<?xml version="1.0" standalone="no"?>
<!DOCTYPE svg PUBLIC "-//W3C//DTD SVG 1.1//EN" "http://www.w3.org/Graphics/SVG/1.1/DTD/svg11.dtd" >
<svg>
<metadata>
Created by FontForge 20090914 at Thu Sep 27 03:12:30 2018
 By www-data
Copyright (c) 2010, Barry Schwartz (crudfactory.com)
</metadata>
<defs>
<font id="GoudyBookletter1911" horiz-adv-x="232" >
  <font-face 
    font-family="Goudy Bookletter 1911"
    font-weight="400"
    font-stretch="normal"
    units-per-em="1024"
    panose-1="2 0 5 3 0 0 0 0 0 0"
    ascent="755"
    descent="-269"
    x-height="424.999"
    cap-height="696"
    bbox="-84 -318.999 1067 983"
    underline-thickness="46"
    underline-position="-92"
    unicode-range="U+0020-U+FB04"
  />
<missing-glyph horiz-adv-x="512" 
d="M51 0v503h410v-503h-410zM102 51h308v401h-308v-401z" />
    <glyph glyph-name=".notdef" horiz-adv-x="512" 
d="M51 0v503h410v-503h-410zM102 51h308v401h-308v-401z" />
    <glyph glyph-name="space" unicode=" " horiz-adv-x="256" 
 />
    <glyph glyph-name="exclam" unicode="!" horiz-adv-x="332" 
d="M199 690c6.66699 0 10.002 -8.66602 10.002 -25.999v-24c0 -66 -3.5 -133 -10.5 -201s-13.667 -119.333 -20 -154s-11.5 -57.667 -15.5 -69c-3.33301 -10.667 -9.33301 -16 -18 -16c-10 0 -15 10 -15 30v18l-2 72.5c-0.666992 24.333 -1.5 46.666 -2.5 66.999l-3 59
c-1 19 -2 36.333 -3 52s-1.83301 30.334 -2.5 44.001s-1.33398 25.5 -2.00098 35.5s-1.33398 18.667 -2.00098 26s-1 12.666 -1 15.999l-1 6c0 10 4.33301 17.667 13 23c46.667 27.333 71.667 41 75 41zM170.002 87.001c14 0 26.167 -4.99902 36.5 -14.999
s15.5 -22.333 15.5 -37c0 -14 -5 -26 -15 -36s-22.333 -15 -37 -15s-27.167 4.83301 -37.5 14.5s-15.5 22.167 -15.5 37.5s5.16699 27.666 15.5 36.999s22.833 14 37.5 14z" />
    <glyph glyph-name="quotedbl" unicode="&#x22;" horiz-adv-x="398" 
d="M154 732c11.333 0 20.332 -3.83301 26.999 -11.5s10 -16.834 10 -27.501c0 -9.33301 -4.66699 -22.666 -14 -39.999l-38.5 -68l-42.5 -75c-11.333 -20 -17.333 -30.667 -18 -32c-5.33301 -6.66699 -11.666 -10 -18.999 -10c-6 0 -10.833 2.16699 -14.5 6.5
s-5.5 9.5 -5.5 15.5v2c0 3.33301 20 64.333 60 183c14 38 32.333 57 55 57zM323.999 732c10.667 0 19.3311 -3.83203 25.998 -11.499s10 -16.834 10 -27.501s-4.33301 -24 -13 -40l-39 -68.5l-42 -74.5c-11.333 -20 -17.666 -30.667 -18.999 -32
c-5.33301 -6.66699 -11.666 -10 -18.999 -10c-6 0 -10.833 2.16699 -14.5 6.5s-5.5 9.5 -5.5 15.5v2c0 3.33301 20.333 64.333 61 183c12 38 30.333 57 55 57z" />
    <glyph glyph-name="numbersign" unicode="#" horiz-adv-x="565" 
d="M354 356c0 3.33301 -2.33594 4.99902 -7.00293 4.99902h-107c-5.33301 0 -8.66602 -2.33301 -9.99902 -7c-1.33301 -12.667 -3.66602 -31 -6.99902 -55l-8.5 -60.5c-2.33301 -16.333 -3.5 -25.166 -3.5 -26.499c0 -3.33301 2.66699 -5 8 -5h105
c6.66699 0 10.334 2.66699 11.001 8c12.667 93.333 19 140.333 19 141zM413.997 629.999l6.99609 -0.00292969c10.667 0 16 -4 16 -12c0 -3.33301 -4.5 -37.5 -13.5 -102.5s-13.5 -99.167 -13.5 -102.5s1.66699 -5 5 -5h75c13.333 0 20 -9 20 -27
c0 -13.333 -5.33301 -20 -16 -20h-88c-2.66699 0 -4.66699 -2 -6 -6c-1.33301 -12.667 -3.66602 -31 -6.99902 -55l-8.5 -60.5c-2.33301 -16.333 -3.5 -25.166 -3.5 -26.499c0 -4 2.33301 -6 7 -6h104c12 0 18 -7.66699 18 -23s-6 -23 -18 -23h-107
c-7.33301 0 -11.666 -3.66699 -12.999 -11c-17.333 -121.333 -26.333 -182.666 -27 -183.999c-3.33301 -6.66699 -10.666 -10 -21.999 -10c-14 0 -21 4.66699 -21 14c0 2.66699 4.16699 33.834 12.5 93.501s12.5 90.167 12.5 91.5c0 4 -3 6 -9 6h-70
c-20.667 0 -33.167 -0.5 -37.5 -1.5s-6.83301 -3.16699 -7.5 -6.5c-17.333 -124 -26.333 -186.667 -27 -188c-3.33301 -6 -11.666 -9 -24.999 -9s-20 4.66699 -20 14c0 2 4.33301 32.833 13 92.5s13 90.167 13 91.5c0 4.66699 -3.33301 7 -10 7h-75
c-11.333 0 -17 6.33301 -17 19c0 10 1 17 3 21s6.66699 6 14 6h89c2 0 3 0.666992 3 2c13.333 93.333 20 142.333 20 147c0 3.33301 -2.33301 5 -7 5h-103c-12.667 0 -19 7.66699 -19 23c0 16 6.33301 24 19 24h110c6.66699 0 10 2.66699 10 8
c10.667 72.667 19 133.667 25 183c2 14 3.33301 21.667 4 23c3.33301 5.33301 11.333 8 24 8h1c13.333 0 20 -4.66699 20 -14c0 -2.66699 -4.66699 -36.667 -14 -102s-14 -99 -14 -101c0 -3.33301 2.66699 -5 8 -5h106c6 0 9.33301 2.33301 10 7l30 208
c3.33301 4.66699 9 7 17 7h3z" />
    <glyph glyph-name="dollar" unicode="$" horiz-adv-x="493" 
d="M385 544c0 -13.333 -3.83398 -24.167 -11.501 -32.5s-17.834 -12.5 -30.501 -12.5c-14.667 0 -26.167 5.33301 -34.5 16s-14 22.667 -17 36s-8.66699 26.333 -17 39s-19.5 20.334 -33.5 23.001h-2c-4 0 -6 -1.66699 -6 -5v-178c0 -2 -0.166992 -5 -0.5 -9
s-0.5 -6.33301 -0.5 -7c0 -4 0.5 -7.16699 1.5 -9.5s3 -4.5 6 -6.5s5.83301 -3.5 8.5 -4.5l14.5 -5.5c7 -2.66699 13.5 -5 19.5 -7c63.333 -27.333 103.333 -69 120 -125c6.66699 -22 10 -42.667 10 -62c0 -54 -16.667 -97.333 -50 -130s-73.666 -53 -120.999 -61
c-6 -1.33301 -9 -5.33301 -9 -12v-71c0 -12.667 -6.66699 -19 -20 -19c-14 0 -21 6.33301 -21 19v71c0 6.66699 -3 10 -9 10c-47.333 1.33301 -86.833 16.666 -118.5 45.999s-47.5 59 -47.5 89c0 16 4.83301 29.5 14.5 40.5s21.834 16.5 36.501 16.5
c12.667 0 23 -4.33301 31 -13s12 -20.334 12 -35.001c0 -4 -0.666992 -9.66699 -2 -17s-2 -13.333 -2 -18c0 -23.333 8.83301 -40.333 26.5 -51s35.167 -16 52.5 -16c3.33301 0 5 1.33301 5 4v266c0 8.66699 -3 13.334 -9 14.001c-44.667 9.33301 -79 30.5 -103 63.5
s-36 68.167 -36 105.5c0 41.333 13.333 76.666 40 105.999s59.667 45.666 99 48.999c6 0.666992 9 3.33398 9 8.00098v22c0 13.333 7 20 21 20h1c14 0 21 -6.66699 21 -20v-19v-3c0 -4 2.33301 -6 7 -6c42.667 -4.66699 77.5 -18.167 104.5 -40.5s40.5 -45.166 40.5 -68.499
zM186.999 612.999c-14 0 -31.833 -8.66699 -53.5 -26s-32.5 -41 -32.5 -71c0 -22 7 -41 21 -57s27 -26.667 39 -32s20 -8 24 -8c3.33301 0 5 1.66699 5 5v77v85c0 18 -1 27 -3 27zM239.999 301.999c-5.33301 0 -7.99902 -2.99805 -7.99902 -8.99805
c0 -49.333 -0.166992 -97 -0.5 -143s-0.5 -70.333 -0.5 -73c0 -21.333 1.66699 -32 5 -32h2c7.33301 0 18.5 4.16699 33.5 12.5s30.167 23.166 45.5 44.499s23 45.666 23 72.999c0 26.667 -7.83301 50.5 -23.5 71.5s-30.834 35.5 -45.501 43.5s-25 12 -31 12z" />
    <glyph glyph-name="percent" unicode="%" horiz-adv-x="839" 
d="M218 -126c-6 0 -11.666 2.00098 -16.999 6.00098s-8 8.66699 -8 14c0 2.66699 1.33301 6.66699 4 12c269.333 460 405 691 407 693c5.33301 6.66699 13.333 10 24 10c6 0 12.5 -1.5 19.5 -4.5s10.5 -7.5 10.5 -13.5c0 -3.33301 -1.33301 -7 -4 -11
c-274.667 -462.667 -412.334 -694.334 -413.001 -695.001c-6 -7.33301 -13.667 -11 -23 -11zM183.001 527.001c-15.333 0 -28.6689 -4.83398 -40.002 -14.501s-19.666 -22.167 -24.999 -37.5s-9.16602 -30.166 -11.499 -44.499s-3.5 -28.5 -3.5 -42.5
c0 -26.667 4.16699 -56 12.5 -88s20.833 -55.333 37.5 -70c14 -11.333 29 -17 45 -17c41.333 0 66 29 74 87c4 24 6 42.667 6 56c0 44 -8.5 83.5 -25.5 118.5s-40.167 52.5 -69.5 52.5zM197.998 566c35.333 0 67.667 -14.501 97 -43.501s44 -75.167 44 -138.5
c0 -62 -14.333 -112.5 -43 -151.5s-66.334 -58.5 -113.001 -58.5c-35.333 0 -67.666 14.333 -96.999 43s-44 74.334 -44 137.001c0 67.333 15 119.5 45 156.5s67 55.5 111 55.5zM641.999 257.999c-15.333 0 -28.667 -4.66797 -40 -14.001s-19.833 -21.666 -25.5 -36.999
s-9.66699 -30 -12 -44s-3.5 -28 -3.5 -42l1 -2c0 -26.667 4 -56 12 -88s20.333 -55 37 -69c12.667 -11.333 27.667 -17 45 -17c41.333 0 66.333 28.667 75 86c3.33301 20 5 39 5 57c0 43.333 -8.33301 82.5 -25 117.5s-39.667 52.5 -69 52.5zM655.998 296.998
c35.333 0 67.832 -14.501 97.499 -43.501s44.5 -75.167 44.5 -138.5c0 -62 -14.5 -112.5 -43.5 -151.5s-66.5 -58.5 -112.5 -58.5c-35.333 0 -67.666 14.333 -96.999 43s-44 74.334 -44 137.001c0 67.333 15 119.5 45 156.5s66.667 55.5 110 55.5z" />
    <glyph glyph-name="ampersand" unicode="&#x26;" horiz-adv-x="847" 
d="M102 432c0 2 -3.66309 7.50195 -10.9961 16.502s-14.5 21.833 -21.5 38.5s-10.5 35 -10.5 55c0 46 18.167 86.833 54.5 122.5s78.166 53.5 125.499 53.5c14.667 0 29.667 -1.66699 45 -5s29.833 -10 43.5 -20s20.5 -22.667 20.5 -38c0 -13.333 -4.66699 -24.333 -14 -33
s-20 -13 -32 -13c-14 0 -28.5 8.5 -43.5 25.5s-30.167 25.5 -45.5 25.5c-24.667 0 -49 -11.167 -73 -33.5s-36 -50.5 -36 -84.5c0 -20 4.83301 -39.167 14.5 -57.5s18.167 -27.5 25.5 -27.5c1.33301 0 7.33301 2.16699 18 6.5s24.667 8.83301 42 13.5s35 7 53 7
c25.333 0 46.5 -5.16699 63.5 -15.5s25.5 -24.166 25.5 -41.499s-9 -31.333 -27 -42s-40.333 -16 -67 -16h-1c-16.667 0 -32.5 2 -47.5 6s-26.833 8 -35.5 12s-13.667 6 -15 6c-2 0 -3.83301 -0.666992 -5.5 -2s-3 -2.66602 -4 -3.99902s-2.16699 -2.66602 -3.5 -3.99902
l-1 -2c-18 -32.667 -27 -68.334 -27 -107.001c0 -24 4.33301 -47.5 13 -70.5s22.167 -45.667 40.5 -68s45 -40.833 80 -55.5s75.833 -23 122.5 -25h18c39.333 0 73.666 5.66699 102.999 17s51.666 26.333 66.999 45s26.5 37.667 33.5 57s10.5 38.666 10.5 57.999
c0 35.333 -9.66699 64.666 -29 87.999s-45 35 -77 35c-29.333 0 -55.166 -10 -77.499 -30s-33.5 -42.667 -33.5 -68c0 -17.333 5.5 -32.166 16.5 -44.499s25.167 -18.5 42.5 -18.5c7.33301 0 15.333 1.66699 24 5s13 7.33301 13 12c0 2.66699 -1.33301 4.66699 -4 6
s-5.83398 2.33301 -9.50098 3s-7.83398 2.33398 -12.501 5.00098s-8.66699 6.33398 -12 11.001c-4.66699 6.66699 -7 14 -7 22c0 10 3.83301 18.667 11.5 26s17.167 11 28.5 11c15.333 0 29.166 -5.66699 41.499 -17s18.5 -25.333 18.5 -42
c0 -20.667 -8.66699 -38.834 -26 -54.501s-38.333 -23.5 -63 -23.5c-27.333 0 -50.666 10 -69.999 30s-29 44.333 -29 73c0 26.667 8.83301 52.167 26.5 76.5s41.834 44.166 72.501 59.499c31.333 15.333 76.166 27.666 134.499 36.999s97.833 18.666 118.5 27.999
c24.667 10.667 45.5 26.5 62.5 47.5s25.5 45.833 25.5 74.5c0 31.333 -9.83301 57.333 -29.5 78s-42.167 31 -67.5 31c-20.667 0 -31 -3 -31 -9l8 -11c6 -7.33301 9 -15.666 9 -24.999c0 -12 -4 -22 -12 -30s-18 -12 -30 -12c-13.333 0 -24.333 4.83301 -33 14.5
s-13 21.5 -13 35.5c0 21.333 9 39.333 27 54s39 22 63 22c38.667 0 73.5 -16.333 104.5 -49s46.5 -73.334 46.5 -122.001c0 -54.667 -21.167 -101.5 -63.5 -140.5s-92.5 -59.167 -150.5 -60.5c-10 0 -15 -2.66699 -15 -8c0 -0.666992 2.83301 -5.66699 8.5 -15
s11.5 -23 17.5 -41s9 -37.333 9 -58v-2c0 -69.333 -30 -130 -90 -182s-131.667 -78 -215 -78c-84 0 -154.667 27.167 -212 81.5s-86 118.833 -86 193.5c0 20 2.16699 39.333 6.5 58s9.83301 34.667 16.5 48s13.167 24.666 19.5 33.999s12.5 17 18.5 23l8 10
c1.33301 2.66699 2 5 2 7v1zM267.004 401.002c28.667 0 43 8.00098 43 24.001c0 17.333 -14.667 26 -44 26c-16 0 -30.833 -1.33301 -44.5 -4s-24 -5.83398 -31 -9.50098s-10.5 -7.16699 -10.5 -10.5c0 -2 1 -4 3 -6c18.667 -13.333 46.667 -20 84 -20z" />
    <glyph glyph-name="quotesingle" unicode="'" horiz-adv-x="229" 
d="M154 732c11.333 0 20.332 -3.83398 26.999 -11.501s10 -16.834 10 -27.501c0 -9.33301 -4.66699 -22.666 -14 -39.999l-38.5 -68l-42.5 -75c-11.333 -20 -17.333 -30.667 -18 -32c-5.33301 -6.66699 -11.666 -10 -18.999 -10c-6 0 -10.833 2.5 -14.5 7.5
s-5.5 10.5 -5.5 16.5v1c0 2.66699 20 63.334 60 182.001c14 38 32.333 57 55 57z" />
    <glyph glyph-name="parenleft" unicode="(" horiz-adv-x="371" 
d="M324 -178c0 -6 -2.16699 -10.999 -6.5 -14.999s-9.5 -6 -15.5 -6c-7.33301 0 -15.333 3.66699 -24 11c-70.667 56 -127 123.833 -169 203.5s-63 163.834 -63 252.501c0 83.333 19.833 165.166 59.5 245.499s95.5 149.5 167.5 207.5c12.667 9.33301 23 14 31 14
c6 0 11.167 -1.83301 15.5 -5.5s6.5 -8.16699 6.5 -13.5c0 -8.66699 -5 -17 -15 -25c-56 -50 -101.167 -111.167 -135.5 -183.5s-51.5 -151.833 -51.5 -238.5c0 -82 16 -159.333 48 -232s77 -135.334 135 -188.001c11.333 -11.333 17 -20.333 17 -27z" />
    <glyph glyph-name="parenright" unicode=")" horiz-adv-x="371" 
d="M49 718c0 6 2.16602 10.9951 6.49902 14.9951s9.5 6 15.5 6s14 -3.66699 24 -11c70.667 -55.333 126.834 -123.166 168.501 -203.499s62.5 -164.833 62.5 -253.5c0 -83.333 -20 -165 -60 -245s-96 -149 -168 -207c-13.333 -10 -23.333 -15 -30 -15
c-6 0 -11.167 2 -15.5 6s-6.5 9 -6.5 15s5 14 15 24c56 50.667 101.167 111.834 135.5 183.501s51.5 150.834 51.5 237.501c0 82.667 -15.833 160.334 -47.5 233.001s-76.5 135.334 -134.5 188.001c-11.333 9.33301 -17 18.333 -17 27z" />
    <glyph glyph-name="asterisk" unicode="*" horiz-adv-x="343" 
d="M329 632c0 -12.667 -8 -23.5049 -24 -32.5049s-32 -16.167 -48 -21.5s-24 -9.66602 -24 -12.999c0 -4 4.83301 -7.33301 14.5 -10s20.5 -5.33398 32.5 -8.00098s22.833 -8 32.5 -16s14.5 -18.667 14.5 -32c0 -11.333 -4 -20.833 -12 -28.5s-17 -11.5 -27 -11.5
c-10.667 0 -21.667 4.5 -33 13.5s-21 18 -29 27s-13.333 13.5 -16 13.5c-4.66699 0 -7 -3 -7 -9c0 -9.33301 1.5 -22.666 4.5 -39.999s4.5 -27.666 4.5 -30.999c0 -14 -5 -24.167 -15 -30.5s-19.333 -9.5 -28 -9.5s-17 3.33301 -25 10s-12 17.667 -12 33
c0 8 1.16699 19.333 3.5 34s3.5 24 3.5 28c0 7.33301 -2 11 -6 11c-3.33301 0 -14.833 -7.5 -34.5 -22.5s-36.834 -22.5 -51.501 -22.5c-11.333 0 -19.666 4.33301 -24.999 13s-8 16.334 -8 23.001c0 13.333 7.83301 24.833 23.5 34.5s31.334 17.334 47.001 23.001
s23.5 10.834 23.5 15.501c0 4 -4.66699 7.66699 -14 11s-19.833 6.33301 -31.5 9s-22.167 8 -31.5 16s-14 18 -14 30c0 10 4.16699 18.5 12.5 25.5s17.166 10.5 26.499 10.5c12 0 26.5 -9 43.5 -27s29.167 -27 36.5 -27c3.33301 0 5 2.33301 5 7
c0 2.66699 -1.5 11.667 -4.5 27s-4.5 27.666 -4.5 36.999c0 30.667 13.667 46 41 46c26.667 0 40 -15.667 40 -47c0 -11.333 -2 -25.166 -6 -41.499s-6 -24.833 -6 -25.5c0 -1.33301 0.666992 -2 2 -2c2.66699 0 14.167 8.33301 34.5 25s37.5 25 51.5 25
c10 0 19.167 -3.83301 27.5 -11.5s12.5 -17.167 12.5 -28.5z" />
    <glyph glyph-name="plus" unicode="+" horiz-adv-x="717" 
d="M78 237c-16 0 -24 7.33398 -24 22.001v13c0 15.333 8.33301 23 25 23h251v255c0 13.333 6.66699 20 20 20h15c16 0 24 -8.66699 24 -26v-249h255c14 0 21 -6.66699 21 -20v-14c0 -10.667 -2.5 -17.334 -7.5 -20.001s-11.833 -4 -20.5 -4h-248v-253
c0 -15.333 -7.33301 -23 -22 -23h-15c-14.667 0 -22 8 -22 24v252h-252z" />
    <glyph glyph-name="comma" unicode="," 
d="M102 102c24.667 0 45.9971 -11.332 63.9971 -33.999s27 -50.334 27 -83.001c0 -40 -13.167 -72.667 -39.5 -98s-47.833 -38 -64.5 -38c-12.667 0 -19 6 -19 18c0 5.33301 1.83301 9.5 5.5 12.5s9.5 7 17.5 12s15 10.167 21 15.5c17.333 16 26 32 26 48
c0 12 -3.66699 21 -11 27s-15.666 9.5 -24.999 10.5s-19.666 3.66699 -30.999 8s-19.666 10.5 -24.999 18.5c-5.33301 7.33301 -8 16.333 -8 27c0 16 6.16699 29.333 18.5 40s26.833 16 43.5 16z" />
    <glyph glyph-name="hyphen" unicode="-" 
d="M204 343c10.667 0 15.9971 -13.333 15.9971 -40c0 -10 -6 -19.667 -18 -29l-44.5 -31l-36 -25.5l-27.5 -20l-21 -15l-15 -10.5l-10.5 -7.5c-2.33301 -1.66699 -4.66602 -3 -6.99902 -4s-4.16602 -1.66699 -5.49902 -2s-2.66602 -0.5 -3.99902 -0.5
c-12.667 0 -19 8.66699 -19 26v15c0 6.66699 1.16699 11.5 3.5 14.5s7.83301 7.5 16.5 13.5l100 70c43.333 30.667 67.333 46 72 46z" />
    <glyph glyph-name="period" unicode="." 
d="M116 103c16.667 0 30.999 -5.83105 42.999 -17.498s18 -25.834 18 -42.501s-5.66699 -30.834 -17 -42.501s-25.666 -17.5 -42.999 -17.5c-16.667 0 -31.167 5.83301 -43.5 17.5s-18.5 26.167 -18.5 43.5s6 31.5 18 42.5s26.333 16.5 43 16.5z" />
    <glyph glyph-name="slash" unicode="/" horiz-adv-x="445" 
d="M37 -191c-20.667 0 -31 4.66699 -31 14c0 2.66699 128.667 256.667 386 762c3.33301 6 8.66602 9 15.999 9c6 0 12.667 -1.5 20 -4.5s11 -7.83301 11 -14.5c0 -2 -58.333 -113.667 -175 -335l-201 -402c-8 -16 -12.333 -24.333 -13 -25
c-3.33301 -2.66699 -7.66602 -4 -12.999 -4z" />
    <glyph glyph-name="zero" unicode="0" horiz-adv-x="486" 
d="M241 451c62 0 115.167 -22.998 159.5 -68.998s66.5 -101.333 66.5 -166s-22.167 -119.834 -66.5 -165.501s-97.833 -68.5 -160.5 -68.5c-62 0 -115.5 22.667 -160.5 68s-67.5 100.666 -67.5 165.999c0 64.667 22.5 120 67.5 166s98.833 69 161.5 69zM240 394.002
c-44 0 -81.667 -17.167 -113 -51.5s-47 -75.166 -47 -122.499c0 -48.667 16 -90.334 48 -125.001s70.333 -52 115 -52c42.667 0 80 16.333 112 49s48 74 48 124s-16.167 92.167 -48.5 126.5s-70.5 51.5 -114.5 51.5z" />
    <glyph glyph-name="one" unicode="1" horiz-adv-x="364" 
d="M168 431c22 0 42.5068 0.167969 61.5068 0.500977s33.833 0.833008 44.5 1.5s17 1 19 1c9.33301 0 14 -7.33301 14 -22c0 -12 -16 -18.667 -48 -20c-12 -0.666992 -21.667 -1.33398 -29 -2.00098c-9.33301 -0.666992 -14 -6 -14 -16v-312c0 -13.333 6 -20.333 18 -21
c7.33301 -0.666992 14.833 -1.16699 22.5 -1.5s14 -0.666016 19 -0.999023l15.5 -1c5.33301 -0.333008 9.33301 -0.833008 12 -1.5s5.66699 -1.33398 9 -2.00098s5.66602 -1.66699 6.99902 -3s2.66602 -2.83301 3.99902 -4.5s2.16602 -3.66699 2.49902 -6
s0.5 -5.16602 0.5 -8.49902c0 -12 -6 -18 -18 -18c-0.666992 0 -3.33398 0.166992 -8.00098 0.5s-11 0.833008 -19 1.5s-17 1.33398 -27 2.00098s-21.5 1.16699 -34.5 1.5s-25.833 0.5 -38.5 0.5s-25.334 -0.166992 -38.001 -0.5s-24 -0.833008 -34 -1.5
s-18.833 -1.33398 -26.5 -2.00098s-13.834 -1.16699 -18.501 -1.5s-7.33398 -0.5 -8.00098 -0.5c-9.33301 0 -14 7 -14 21c0 12 6 18.667 18 20c10 0.666992 22.333 1.66699 37 3c19.333 0.666992 31 2 35 4s6 7.66699 6 17v315c0 9.33301 -5 14.666 -15 15.999
c-52.667 2.66699 -79.667 4 -81 4c-10 2.66699 -15 10.667 -15 24c0 10.667 5 16 15 16c2 0 8.33301 -0.333008 19 -1s25.667 -1.16699 45 -1.5s40 -0.5 62 -0.5z" />
    <glyph glyph-name="two" unicode="2" horiz-adv-x="460" 
d="M78 -13c-18.667 0 -28 6.33594 -28 19.0029c0 3.33301 0.666992 6.16602 2 8.49902s4.16602 5.16602 8.49902 8.49902s9.16602 6.5 14.499 9.5s13.333 8 24 15s21.334 14.833 32.001 23.5c48.667 38.667 91 80.667 127 126c16.667 22 25 41.667 25 59
c0 31.333 -14.667 58.333 -44 81s-60 34 -92 34c-25.333 0 -45.5 -7.33301 -60.5 -22s-23.167 -31.667 -24.5 -51c0 -18 -5 -27 -15 -27h-1c-13.333 0 -20 12.333 -20 37c0 36.667 13.333 66.834 40 90.501s60.334 35.5 101.001 35.5c48 0 89.833 -14.167 125.5 -42.5
s53.5 -63.833 53.5 -106.5c0 -19.333 -5 -39 -15 -59s-19.5 -35.333 -28.5 -46s-26.167 -28.334 -51.5 -53.001s-42.666 -42 -51.999 -52c-2.66699 -4 -4 -6.33301 -4 -7c0 -6 3.66699 -9 11 -9c15.333 0 40.333 1.33301 75 4c26 2 48.167 8.5 66.5 19.5
s35.166 32.833 50.499 65.5c2.66699 7.33301 7 11 13 11c12 0 18 -4.33301 18 -13c0 -2 -12.667 -45.667 -38 -131c-0.666992 -2.66699 -1.66699 -4.83398 -3 -6.50098s-2.5 -3 -3.5 -4s-2.66699 -1.83301 -5 -2.5s-4 -1 -5 -1s-3.16699 -0.166992 -6.5 -0.5
s-5.66602 -0.5 -6.99902 -0.5c-26.667 -1.33301 -63.5 -3 -110.5 -5s-86.833 -3.83301 -119.5 -5.5s-50.334 -2.5 -53.001 -2.5z" />
    <glyph glyph-name="three" unicode="3" horiz-adv-x="368" 
d="M122 454c16.667 0 36.333 -3.66895 59 -11.002s44.667 -20.833 66 -40.5s32 -42.5 32 -68.5c0 -18 -5 -39 -15 -63s-20 -44.333 -30 -61s-15 -25.334 -15 -26.001c0 -3.33301 2.5 -5.66602 7.5 -6.99902s13.667 -3.83301 26 -7.5s24.5 -9.16699 36.5 -16.5
c38.667 -21.333 58 -60.333 58 -117c0 -66.667 -14.667 -118.667 -44 -156c-16.667 -22 -39.5 -38.5 -68.5 -49.5s-58.5 -16.5 -88.5 -16.5c-36.667 0 -65.334 8.5 -86.001 25.5s-31 33.167 -31 48.5c0 12 4.5 21.833 13.5 29.5s19.5 11.5 31.5 11.5
c11.333 0 21.333 -3.66699 30 -11s15.667 -15.5 21 -24.5s14.333 -17.167 27 -24.5s28.334 -11 47.001 -11c32 0 55.5 13 70.5 39s22.5 57 22.5 93c0 77.333 -41.667 116 -125 116c-10 0 -19 -0.333008 -27 -1s-12.667 -1 -14 -1c-5.33301 0 -9.5 1.5 -12.5 4.5
s-4.5 6.16699 -4.5 9.5c0 2 0.166992 3.66699 0.5 5s1.33301 2.83301 3 4.5s3.66699 3.33398 6 5.00098s5.83301 4.5 10.5 8.5s9.66699 8.66699 15 14c44 42.667 66 84.334 66 125.001c0 24 -7.16699 46.5 -21.5 67.5s-38.5 31.5 -72.5 31.5c-36 0 -54 -13 -54 -39v-14l1 -8
c0 -8.66699 -6 -13 -18 -13s-18 14 -18 42c0 28.667 8.5 53.667 25.5 75s40.167 32 69.5 32z" />
    <glyph glyph-name="four" unicode="4" horiz-adv-x="457" 
d="M41 0c-11.333 0 -17.001 4.66699 -17.001 14c0 6 5.66699 17 17 33c172 247.333 261 375 267 383c4.66699 6 10.334 9 17.001 9c9.33301 0 14 -6 14 -18l-1 -334c0 -7.33301 3.33301 -11 10 -11h17c12 0 22 0.333008 30 1s12.333 1 13 1c13.333 0 20 -4.33301 20 -13
c0 -2.66699 -1.33301 -13 -4 -31s-5 -28 -7 -30c-2.66699 -2.66699 -7 -4 -13 -4h-57c-6 0 -9 -2.33301 -9 -7v-171c0 -8 -3.33301 -12 -10 -12h-41c-7.33301 0 -11 4 -11 12v168c0 6.66699 -2.66699 10 -8 10h-227zM265.999 68c6.66699 0 10 4.33398 10 13.001v218
c0 5.33301 -1.66699 8 -5 8c-1.33301 0 -3.33301 -1.33301 -6 -4c-102 -150.667 -153 -227.334 -153 -230.001c0 -3.33301 2 -5 6 -5h148z" />
    <glyph glyph-name="five" unicode="5" horiz-adv-x="390" 
d="M120 263c49.333 0 92.168 -18.4971 128.501 -55.4971s54.5 -85.5 54.5 -145.5c0 -54.667 -16 -105.334 -48 -152.001c-18 -26.667 -42 -51.5 -72 -74.5s-52 -34.5 -66 -34.5c-4.66699 0 -8.83398 1.5 -12.501 4.5s-5.5 6.83301 -5.5 11.5s3.16699 9.5 9.5 14.5
s14.166 10 23.499 15s20.833 13.667 34.5 26s26.167 27.166 37.5 44.499c24.667 40 37 80.667 37 122c0 46.667 -13.833 84.5 -41.5 113.5s-59.5 43.5 -95.5 43.5c-11.333 0 -22.666 -2 -33.999 -6l-18 -5c-8.66699 0 -13 5.33301 -13 16c0 2 5.33301 22.167 16 60.5
l32 114.5l16 56c3.33301 8.66699 9.33301 13 18 13c4 0 32.167 -8.16699 84.5 -24.5s81.166 -24.5 86.499 -24.5s11 3 17 9s11.5 13 16.5 21s8.16699 12.667 9.5 14c2.66699 2 5.33398 3 8.00098 3c3.33301 0 6.83301 -1.33301 10.5 -4s5.5 -6 5.5 -10
c0 -2 -15.667 -39.333 -47 -112c-2.66699 -7.33301 -7 -11 -13 -11c-4.66699 0 -33.334 8.16699 -86.001 24.5s-79.667 24.5 -81 24.5h-1c-5.33301 0 -9.16602 -3.33301 -11.499 -10s-8.83301 -30.334 -19.5 -71.001v-2c-0.666992 -1.33301 -1 -2.33301 -1 -3
c0 -4 2.33301 -6 7 -6h14z" />
    <glyph glyph-name="six" unicode="6" horiz-adv-x="494" 
d="M377 145c0 32.667 -5.83301 65.833 -17.5 99.5s-31.167 63.667 -58.5 90s-59.333 39.5 -96 39.5c-38 0 -65.167 -15 -81.5 -45s-24.5 -65.667 -24.5 -107c0 -60 15.667 -110 47 -150s69 -60 113 -60c34 0 62.167 12 84.5 36s33.5 56.333 33.5 97zM209 410.999
c67.333 0 125.333 -22.832 174 -68.499s73 -102.167 73 -169.5c0 -56 -18.167 -103.667 -54.5 -143s-83.166 -59 -140.499 -59c-60 0 -112.833 23.667 -158.5 71s-68.5 110.666 -68.5 189.999c0 98 34.167 186.5 102.5 265.5s153.833 127.833 256.5 146.5
c1.33301 0.666992 3.66602 1 6.99902 1c6 0 11 -2.5 15 -7.5s6 -10.167 6 -15.5c0 -8 -5.66699 -14.333 -17 -19c-108 -35.333 -191.667 -99 -251 -191l-1 -1v-2c0 -2 1.33301 -3 4 -3h3c2 0.666992 4.66699 1.16699 8 1.5s7 0.833008 11 1.5s8.83301 1.16699 14.5 1.5
s11.167 0.5 16.5 0.5z" />
    <glyph glyph-name="seven" unicode="7" horiz-adv-x="460" 
d="M53 222c-3.33301 0 -6.99902 1.33301 -10.999 4s-6 7 -6 13c0 0.666992 1.5 11.167 4.5 31.5s6 48.166 9 83.499s4.83301 71.333 5.5 108c0 12.667 6.33301 19 19 19c2 0 3.83301 -0.166992 5.5 -0.5s3.16699 -1.16602 4.5 -2.49902s2.33301 -2.66602 3 -3.99902
s1.33398 -3.5 2.00098 -6.5s1.16699 -5.83301 1.5 -8.5s1 -6.5 2 -11.5s1.83301 -9.5 2.5 -13.5c1.33301 -8 6.33301 -12 15 -12h309c14.667 0 22 -6.33301 22 -19v-1c0 -3.33301 -19.667 -64 -59 -182c-45.333 -137.333 -84 -262 -116 -374
c-10 -34 -16.333 -53.833 -19 -59.5s-7.33398 -8.83398 -14.001 -9.50098c-4 -0.666992 -10.333 -1 -19 -1h-1h-6c-19.333 0 -29 4.66699 -29 14c0 3.33301 38 116 114 338c44 121.333 66 183.666 66 186.999c0 13.333 -10 21.666 -30 24.999c-38 3.33301 -72 5 -102 5
c-56.667 0 -93.667 -2.33301 -111 -7c-8 -1.33301 -13.333 -4.66602 -16 -9.99902s-8.33398 -22.666 -17.001 -51.999c-4.66699 -15.333 -8.66699 -28 -12 -38c-3.33301 -10.667 -9 -16 -17 -16z" />
    <glyph glyph-name="eight" unicode="8" horiz-adv-x="457" 
d="M104 526c0 -44 16.167 -80.166 48.5 -108.499s58.5 -42.5 78.5 -42.5c5.33301 0 10.333 2.33301 15 7c40.667 37.333 61 81.666 61 132.999c0 33.333 -9.83301 61.833 -29.5 85.5s-44.5 35.5 -74.5 35.5h-1c-27.333 -0.666992 -50.5 -11.667 -69.5 -33
s-28.5 -47 -28.5 -77zM225 26.001c34 0 63.332 10.6641 87.999 31.9971s37 48.333 37 81s-13.5 63.667 -40.5 93s-62.5 55 -106.5 77c-6.66699 4 -12 6 -16 6c-6 0 -16.167 -6.66699 -30.5 -20s-28.666 -33.166 -42.999 -59.499s-21.5 -53.166 -21.5 -80.499
c0 -37.333 13 -68.166 39 -92.499s57.333 -36.5 94 -36.5zM213.999 -23.002c-54.667 0 -101.332 18.001 -139.999 54.001s-58 78 -58 126c0 46.667 23.667 89 71 127l40 31c14 10.667 21 17 21 19s-1.66699 4 -5 6c-32 22 -58.167 48.167 -78.5 78.5
s-30.5 62.166 -30.5 95.499c0 42.667 17.167 81.667 51.5 117s77.166 53 128.499 53c47.333 0 87.333 -12.667 120 -38s49 -61 49 -107c0 -34 -10.167 -66.833 -30.5 -98.5s-46.5 -56.5 -78.5 -74.5c-2 -1.33301 -3 -3.33301 -3 -6c0 -0.666992 1 -2 3 -4
c48.667 -22 87.667 -50 117 -84s44 -69.667 44 -107c0 -49.333 -22.333 -93 -67 -131s-96 -57 -154 -57z" />
    <glyph glyph-name="nine" unicode="9" horiz-adv-x="521" 
d="M108 256c0 -54.667 16.5 -105.167 49.5 -151.5s77.5 -69.5 133.5 -69.5c30.667 0 53.5 6.33301 68.5 19s26.167 30.667 33.5 54c7.33301 25.333 11 49.333 11 72c0 58 -18 107.833 -54 149.5s-77.333 62.5 -124 62.5c-30.667 0 -58 -11.333 -82 -34s-36 -56.667 -36 -102
zM282 -5c-68.667 0 -127.332 23.667 -175.999 71s-73 102.666 -73 165.999c0 58 20.667 106.833 62 146.5s91 59.5 149 59.5c65.333 0 121.5 -25.167 168.5 -75.5s70.5 -111.5 70.5 -183.5c0 -80 -30 -157.333 -90 -232s-138 -126.667 -234 -156
c-17.333 -4.66699 -28 -7 -32 -7c-6.66699 0 -11.5 3 -14.5 9s-4.5 11.333 -4.5 16c0 8 5.66699 13.667 17 17c30 9.33301 58.833 21.833 86.5 37.5s50.667 31.167 69 46.5s34.333 30.333 48 45s23.667 26.334 30 35.001s9.5 13.667 9.5 15c0 2 -1 3 -3 3l-5 -2l-12.5 -2.5
l-17.5 -3.5c-6.66699 -1.33301 -14.334 -2.5 -23.001 -3.5s-17 -1.5 -25 -1.5z" />
    <glyph glyph-name="colon" unicode=":" horiz-adv-x="233" 
d="M127 421c16.667 0 31 -5.99902 43 -17.999s18 -26.333 18 -43c0 -16 -5.83301 -30 -17.5 -42s-26.167 -18 -43.5 -18c-16.667 0 -30.834 5.83301 -42.501 17.5s-17.5 26.167 -17.5 43.5s5.83301 31.666 17.5 42.999s25.834 17 42.501 17zM127 103.001
c16.667 0 31 -5.83203 43 -17.499s18 -25.834 18 -42.501c0 -16 -5.83301 -30 -17.5 -42s-26.167 -18 -43.5 -18c-16.667 0 -30.834 5.83301 -42.501 17.5s-17.5 26.167 -17.5 43.5s5.83301 31.5 17.5 42.5s25.834 16.5 42.501 16.5z" />
    <glyph glyph-name="semicolon" unicode=";" 
d="M127 102c24 0 45 -11.3311 63 -33.998s27 -50.334 27 -83.001c0 -40 -13 -72.667 -39 -98s-47.667 -38 -65 -38c-4.66699 0 -9 1.66699 -13 5s-6 7.66602 -6 12.999s1.83301 9.5 5.5 12.5s9.5 7 17.5 12s15 10.167 21 15.5c18 17.333 27 33.333 27 48v1
c0 14.667 -5.66699 24.5 -17 29.5s-25 9.33301 -41 13s-27.333 10.5 -34 20.5c-5.33301 6 -8 15 -8 27c0 16 6.16699 29.333 18.5 40s26.833 16 43.5 16zM127 421.002c16.667 0 31 -5.99902 43 -17.999s18 -26.333 18 -43c0 -16 -5.83301 -30 -17.5 -42
s-26.167 -18 -43.5 -18c-16.667 0 -30.834 5.83301 -42.501 17.5s-17.5 26.167 -17.5 43.5s5.83301 31.666 17.5 42.999s25.834 17 42.501 17z" />
    <glyph glyph-name="less" unicode="&#x3c;" horiz-adv-x="688" 
d="M53 255c0 7.33301 6.33301 13.333 19 18c358 130.667 538 196 540 196c16 0 24 -13 24 -39c0 -9.33301 -6.66699 -16 -20 -20l-451 -165l458 -166c8.66699 -3.33301 13 -9.33301 13 -18c0 -8 -2.33301 -16.167 -7 -24.5s-12.334 -12.5 -23.001 -12.5
c-5.33301 0 -183.666 64.333 -534.999 193c-12 4 -18 10.333 -18 19v19z" />
    <glyph glyph-name="equal" unicode="=" horiz-adv-x="717" 
d="M78 312c-16 0 -24 7.66699 -24 23v14c0 15.333 8 23 24 23h565c14 0 21 -7 21 -21v-13c0 -17.333 -9 -26 -27 -26h-559zM78 160c-15.333 0 -22.999 7.33398 -22.999 22.001v15c0 14.667 8 22 24 22h565c14 0 21 -6.66699 21 -20v-15
c0 -10.667 -2.33301 -17.334 -7 -20.001s-11.334 -4 -20.001 -4h-560z" />
    <glyph glyph-name="greater" unicode="&#x3e;" horiz-adv-x="688" 
d="M636 255l0.000976562 -19c0 -8.66699 -6 -15 -18 -19c-352 -128.667 -530.333 -193 -535 -193c-10.667 0 -18.334 4.16699 -23.001 12.5s-7 16.5 -7 24.5c0 8.66699 4.66699 14.667 14 18l457 166l-451 165c-13.333 4 -20 10.667 -20 20c0 26 8 39 24 39
c2 0 182 -65.333 540 -196c12.667 -4.66699 19 -10.667 19 -18z" />
    <glyph glyph-name="question" unicode="?" horiz-adv-x="389" 
d="M163 103c16.667 0 31 -5.83203 43 -17.499s18 -25.834 18 -42.501c0 -16 -5.83301 -30 -17.5 -42s-26.167 -18 -43.5 -18c-16.667 0 -31.167 5.83301 -43.5 17.5s-18.5 26.167 -18.5 43.5s6.16699 31.5 18.5 42.5s26.833 16.5 43.5 16.5zM164 706.001
c59.333 0 104.337 -16.001 135.004 -48.001s46 -66.333 46 -103c0 -23.333 -5.83301 -45.166 -17.5 -65.499s-25.834 -38.5 -42.501 -54.5l-50 -48c-16.667 -16 -30.834 -35.333 -42.501 -58s-17.5 -47 -17.5 -73c0 -3.33301 0.166992 -7.5 0.5 -12.5s0.5 -8.5 0.5 -10.5
c0 -12.667 -2.66699 -21.834 -8 -27.501s-11.333 -8.5 -18 -8.5c-18.667 0 -28 18.667 -28 56c0 24.667 4.66699 48.5 14 71.5s20.666 43.5 33.999 61.5l40 53c13.333 17.333 24.666 36.5 33.999 57.5s14 42.167 14 63.5c0 29.333 -8.66699 54.5 -26 75.5
s-38.333 31.5 -63 31.5c-14.667 0 -27.334 -4 -38.001 -12s-18.5 -16.667 -23.5 -26s-11.667 -18 -20 -26s-18.166 -12 -29.499 -12c-12.667 0 -23 4.33301 -31 13s-12 19.334 -12 32.001c0 30.667 22 50.667 66 60c30 6.66699 57.667 10 83 10z" />
    <glyph glyph-name="at" unicode="@" horiz-adv-x="1024" 
d="M742 -73c8.66699 0 13 -4.00391 13 -12.0039c0 -11.333 -14 -24.666 -42 -39.999s-55 -27 -81 -35c-42.667 -13.333 -88.667 -20 -138 -20h-1c-115.333 0.666992 -211.333 34.334 -288 101.001s-115 156.334 -115 269.001v1c0 28.667 3.16699 57.834 9.5 87.501
s17.5 62.667 33.5 99s41.167 71.5 75.5 105.5s75.833 63 124.5 87c73.333 37.333 147.333 56 222 56c98 0 177.833 -31.167 239.5 -93.5s92.5 -138.833 92.5 -229.5c0 -84.667 -24.667 -157.667 -74 -219s-104.666 -92 -165.999 -92c-18 0 -33.667 2.66699 -47 8
s-23.166 11.666 -29.499 18.999s-11.333 14.666 -15 21.999s-6.33398 13.666 -8.00098 18.999s-2.83398 8 -3.50098 8l-5 -5c-17.333 -21.333 -38 -39.5 -62 -54.5s-48.333 -22.5 -73 -22.5c-26.667 0 -49.167 9.33301 -67.5 28s-27.5 42.334 -27.5 71.001
c0 44.667 23.5 98.5 70.5 161.5s92.5 107.833 136.5 134.5c28.667 16.667 54.334 25 77.001 25c7.33301 0 14 -0.666992 20 -2s9.33301 -2 10 -2c5.33301 0 10.5 5.33301 15.5 16s8.16699 16.334 9.5 17.001c3.33301 2.66699 8 4 14 4c15.333 0 23 -5.66699 23 -17
c0 -2.66699 -3.5 -15.167 -10.5 -37.5s-16.5 -57.166 -28.5 -104.499s-22.667 -98 -32 -152c-3.33301 -14.667 -5 -28 -5 -40c0 -17.333 5 -29.833 15 -37.5s21.333 -11.5 34 -11.5c22 0 45.833 7 71.5 21s46.5 32.333 62.5 55c34.667 48 52 112 52 192v1
c0 87.333 -27.5 155.5 -82.5 204.5s-123.5 73.5 -205.5 73.5c-66.667 0 -129 -15.5 -187 -46.5s-105 -76.167 -141 -135.5s-54 -126.333 -54 -201c0 -100.667 31.167 -183.167 93.5 -247.5s143.833 -96.5 244.5 -96.5c45.333 0 87.166 6 125.499 18s66.833 25.667 85.5 41
c10 6 16.333 9 19 9zM601 360.996c0 7.33301 -3.66797 11.001 -11.001 11.001c-22.667 0 -54.5 -19.833 -95.5 -59.5s-72.833 -88.5 -95.5 -146.5c-9.33301 -22 -14 -42.667 -14 -62c0 -18.667 4.5 -31.834 13.5 -39.501s18.833 -11.5 29.5 -11.5c12 0 28.167 5 48.5 15
s37.5 23.333 51.5 40c2 2.66699 4.66699 5.66699 8 9l6.5 6.5c1 1 2.16699 2.66699 3.5 5s2.33301 4.5 3 6.5s1.33398 4.33301 2.00098 7c33.333 144.667 50 217.667 50 219z" />
    <glyph glyph-name="A" unicode="A" horiz-adv-x="840" 
d="M140 0c-11.333 0 -22.665 -0.167969 -33.998 -0.500977s-21.333 -0.833008 -30 -1.5s-16.334 -1.33398 -23.001 -2.00098s-12 -1.16699 -16 -1.5s-6.33301 -0.5 -7 -0.5c-14 0 -21 7 -21 21c0 3.33301 0.166992 6.16602 0.5 8.49902s1 4.5 2 6.5l2.5 5
c0.666992 1.33301 2.16699 2.5 4.5 3.5s3.83301 1.66699 4.5 2s2.83398 0.833008 6.50098 1.5s6 1.16699 7 1.5s4 0.833008 9 1.5s8.16699 1 9.5 1c16 2 28 6.16699 36 12.5s15.667 18.5 23 36.5c48 107.333 100 216.666 156 327.999
c98.667 186.667 149.667 282.334 153 287.001c1.33301 1.33301 3.33301 3 6 5c7.33301 5.33301 15.666 8 24.999 8c18 0 32.333 -13 43 -39l147 -340c74.667 -180.667 112.667 -272 114 -274c7.33301 -10.667 17.166 -17.667 29.499 -21s23 -5.66602 32 -6.99902
s14.167 -5.33301 15.5 -12c1.33301 -5.33301 2 -10 2 -14c0 -14.667 -7 -22 -21 -22l-17 2c-11.333 0.666992 -26.5 1.5 -45.5 2.5s-37.5 1.5 -55.5 1.5c-22 0 -42 -0.5 -60 -1.5s-32.167 -2 -42.5 -3s-16.5 -1.5 -18.5 -1.5c-14 0 -21 5.66699 -21 17
c0 3.33301 0.166992 6.33301 0.5 9s1 5.16699 2 7.5s1.66699 4.16602 2 5.49902s1.83301 2.66602 4.5 3.99902s4.66699 2.16602 6 2.49902s4 0.833008 8 1.5s7.16699 1.16699 9.5 1.5s6.5 0.833008 12.5 1.5s11 1.33398 15 2.00098c14 2.66699 21 9.33398 21 20.001
c0 10 -8.16699 40.5 -24.5 91.5s-33.833 97.5 -52.5 139.5c-2.66699 6.66699 -8.66699 10 -18 10h-241c-10.667 0 -18.334 -4 -23.001 -12c-23.333 -43.333 -44.166 -88.166 -62.499 -134.499s-27.5 -75.166 -27.5 -86.499c0 -12 3.83301 -19.833 11.5 -23.5
s21.167 -6.5 40.5 -8.5c6 0 10.333 -0.333008 13 -1c14.667 -1.33301 22 -9.66602 22 -24.999c0 -14.667 -7.33301 -22 -22 -22c-2 0 -7.83301 0.5 -17.5 1.5s-23 2 -40 3s-35.5 1.5 -55.5 1.5zM521.001 359.999c6 0 9 2.66797 9 8.00098s-13.167 38.666 -39.5 99.999
s-43.166 98.333 -50.499 111c-2.66699 4.66699 -6.33398 7 -11.001 7c-6 0 -12.333 -6 -19 -18c-70 -132 -105 -199.667 -105 -203s2 -5 6 -5h210z" />
    <glyph glyph-name="B" unicode="B" horiz-adv-x="577" 
d="M92 702c20.667 0 50.499 1.66211 89.499 4.99512s68.5 5 88.5 5c74 0 130.667 -13.667 170 -41c42 -30.667 63 -70 63 -118c0 -31.333 -9 -61 -27 -89s-41.333 -51 -70 -69l-3 -3c0 -0.666992 1.33301 -1.66699 4 -3c40 -7.33301 73.667 -27.666 101 -60.999
s41 -72.333 41 -117c0 -45.333 -13 -85.166 -39 -119.499s-56.333 -59.166 -91 -74.499c-34 -15.333 -75 -23 -123 -23c-16 0 -39.333 1 -70 3s-54 3 -70 3c-11.333 0 -29.666 -0.333008 -54.999 -1s-46 -1 -62 -1h-2c-4 0 -7.16699 0.333008 -9.5 1s-4.66602 3 -6.99902 7
s-3.5 9.66699 -3.5 17c0 8 2.5 13 7.5 15s17.167 4 36.5 6c6 0.666992 10.667 1.33398 14 2.00098c4.66699 0.666992 8.16699 1.5 10.5 2.5s4.66602 3 6.99902 6s3.5 7.16699 3.5 12.5v560c0 12.667 -3.5 20.834 -10.5 24.501s-19.5 6.16699 -37.5 7.5h-5
c-12 0 -18 8.66699 -18 26c0 12 6 18 18 18c0.666992 0 3 -0.166992 7 -0.5s9.83301 -0.5 17.5 -0.5h24.5zM411.999 530.995c0 14 -2.33203 28.167 -6.99902 42.5s-12.334 28.833 -23.001 43.5s-26.5 26.667 -47.5 36s-45.5 14 -73.5 14c-38 0 -62 -4 -72 -12
c-3.33301 -2.66699 -5 -7 -5 -13v-2v-219c0 -8.66699 3.66699 -13 11 -13h46h13c72 0 119.667 21.667 143 65c10 20 15 39.333 15 58zM263 41.9951c54 0 100 14.499 138 43.499s57 69.167 57 120.5c0 34 -9.83301 65.5 -29.5 94.5s-50.167 47.833 -91.5 56.5
c-22 4.66699 -50.667 7 -86 7h-52c-10 0 -15 -5.33301 -15 -16v-264c0 -7.33301 0.5 -13 1.5 -17s3.83301 -8.16699 8.5 -12.5s11.667 -7.16602 21 -8.49902c20 -2.66699 36 -4 48 -4z" />
    <glyph glyph-name="C" unicode="C" horiz-adv-x="716" 
d="M118 362c0 -94 27.998 -173.166 83.998 -237.499s124 -96.5 204 -96.5c60 0 114.833 18.333 164.5 55s83.834 85.334 102.501 146.001c3.33301 9.33301 8.33301 14 15 14c11.333 0 17 -4 17 -12c-15.333 -106 -24 -161.333 -26 -166c-3.33301 -11.333 -11 -17 -23 -17h-1
h-28c-8 0 -13.833 -0.666992 -17.5 -2s-8.66699 -4.33301 -15 -9s-11.5 -8 -15.5 -10c-60 -34.667 -123.333 -52 -190 -52c-47.333 0 -93.666 9.33301 -138.999 28s-85.333 44.667 -120 78c-34.667 34 -61.834 74 -81.501 120s-29.5 93.333 -29.5 142
c0 50 10.333 98.333 31 145s48.334 86.667 83.001 120c73.333 70 160.333 105 261 105h1c36.667 0 70.5 -4.5 101.5 -13.5s55 -18.167 72 -27.5s26.167 -14 27.5 -14c5.33301 0 10 5.66699 14 17s9.33301 18 16 20c1.33301 0 3.33301 0.166992 6 0.5
s4.33398 0.5 5.00098 0.5c7.33301 0 11.666 -4 12.999 -12l7 -52l14 -107c4.66699 -36 7 -55.333 7 -58c0 -11.333 -7 -17 -21 -17c-12.667 0 -20 2.16699 -22 6.5s-4.33301 18.166 -7 41.499c-3.33301 25.333 -12.333 47.666 -27 66.999c-23.333 29.333 -53 53.5 -89 72.5
s-76 28.5 -120 28.5c-74 0 -138.167 -28 -192.5 -84s-81.5 -129.333 -81.5 -220z" />
    <glyph glyph-name="D" unicode="D" horiz-adv-x="726" 
d="M307 49c81.333 0 151.999 24.502 211.999 73.502s90 116.167 90 201.5c0 50.667 -10.667 99.5 -32 146.5s-51.666 85.167 -90.999 114.5c-58 42 -129 63 -213 63c-28.667 0 -47.167 -2 -55.5 -6s-12.5 -12.667 -12.5 -26v-521c0 -12.667 2.66699 -21.834 8 -27.501
s15 -9.83398 29 -12.501c22 -4 43.667 -6 65 -6zM10.999 670.002c0 14 7.66895 21 23.002 21h186c133.333 0 232.333 -15 297 -45c55.333 -26 101.666 -64.667 138.999 -116s56 -111 56 -179c0 -86 -30 -161.333 -90 -226s-129 -104.334 -207 -119.001
c-24 -4 -54.333 -6 -91 -6h-290c-16 0 -24 9.66699 -24 29c0 4 0.333008 7.16699 1 9.5s2.16699 4.33301 4.5 6s4.66602 3 6.99902 4s6 1.66699 11 2s9.5 0.666016 13.5 0.999023s10 0.5 18 0.5s15 0.333008 21 1c11.333 0.666992 18.833 3.83398 22.5 9.50098
s5.5 14.834 5.5 27.501v518c0 16.667 -4.5 27 -13.5 31s-26.833 6.33301 -53.5 7h-17c-12.667 0 -19 8 -19 24z" />
    <glyph glyph-name="E" unicode="E" horiz-adv-x="591" 
d="M446 525c19.333 0 29.001 -9.67188 29.001 -29.0049v-189c0 -19.333 -9.66699 -29 -29 -29c-18 0 -27 7.33301 -27 22v55c0 15.333 -9 23 -27 23h-141c-7.33301 0 -13.333 -0.333008 -18 -1s-9.83398 -2.16699 -15.501 -4.5s-9.83398 -6.5 -12.501 -12.5
s-4 -13.667 -4 -23v-235c0 -7.33301 0.5 -13.166 1.5 -17.499s4 -8.66602 9 -12.999s12.167 -7.16602 21.5 -8.49902c30 -4.66699 62 -7 96 -7c22.667 0 50.667 2 84 6s54.333 9.33301 63 16c6 4.66699 18 23.167 36 55.5s29.667 50.166 35 53.499c4 2 7.33301 3 10 3
c4.66699 0 8.83398 -2 12.501 -6s5.5 -9.66699 5.5 -17v-1c0 -6 -10.333 -54.667 -31 -146c-1.33301 -8 -4.16602 -13.333 -8.49902 -16s-11.833 -4 -22.5 -4h-352c-30.667 0 -59.167 -2 -85.5 -6s-40.166 -6 -41.499 -6c-8 0 -14.167 3.83301 -18.5 11.5
s-6.5 13.834 -6.5 18.501c0 7.33301 2.66699 12.666 8 15.999s18.666 9 39.999 17c12 4.66699 22 8.33398 30 11.001c15.333 5.33301 23 18.666 23 39.999v534c0 7.33301 -1.66699 12 -5 14s-11 4 -23 6c-6 0.666992 -13.333 1.33398 -22 2.00098
s-15.167 1.33398 -19.5 2.00098s-8.83301 1.83398 -13.5 3.50098s-8 4.16699 -10 7.5s-3 8 -3 14c0 15.333 6.66699 23 20 23h471c11.333 0 18.666 -5.66699 21.999 -17l11.5 -53l13 -57.5c3.66699 -15.667 5.5 -24.167 5.5 -25.5c0 -10 -7 -15 -21 -15
c-10.667 0 -20.334 6 -29.001 18c-30 52.667 -47 81.334 -51 86.001c-6 6 -15.667 9 -29 9h-193c-13.333 0 -21.833 -3.33301 -25.5 -10s-5.5 -16.334 -5.5 -29.001v-154c0 -15.333 6.66699 -23 20 -23h157c7.33301 0 13.333 0.5 18 1.5s9.33398 4.16699 14.001 9.5
s7 13 7 23v32c0 14.667 9 22 27 22z" />
    <glyph glyph-name="F" unicode="F" horiz-adv-x="553" 
d="M461 495c0 -2 -0.333008 -7.17969 -1 -15.5127s-1.33398 -19.666 -2.00098 -33.999s-1 -29.833 -1 -46.5c0 -17.333 0.333008 -33.166 1 -47.499s1.33398 -25.666 2.00098 -33.999s1 -13.166 1 -14.499c0 -18 -9.33301 -27 -28 -27c-2.66699 0 -5 0.166992 -7 0.5
s-3.83301 1.16602 -5.5 2.49902s-3.16699 2.66602 -4.5 3.99902s-2.33301 3.33301 -3 6l-2 8c-0.666992 2.66699 -1.33398 6.33398 -2.00098 11.001s-1.16699 8.83398 -1.5 12.501s-0.833008 8.83398 -1.5 15.501s-1.33398 12.667 -2.00098 18
c-0.666992 10 -6.66699 15 -18 15h-167c-6.66699 0 -11.834 -1.66699 -15.501 -5s-5.66699 -6.66602 -6 -9.99902s-0.5 -8 -0.5 -14v-254c0 -8 0.5 -14 1.5 -18s4.66699 -8.16699 11 -12.5s16.166 -6.83301 29.499 -7.5h21h17.5c4.33301 0 9.16602 -0.166992 14.499 -0.5
s9.5 -0.666016 12.5 -0.999023l9 -1c3 -0.333008 5.33301 -1.16602 7 -2.49902s3.16699 -2.66602 4.5 -3.99902s2.33301 -3.16602 3 -5.49902s1 -5.16602 1 -8.49902v-10c0 -14 -6 -21 -18 -21l-19 2c-13.333 0.666992 -31 1.5 -53 2.5s-44 1.5 -66 1.5
c-14 0 -28.167 -0.166992 -42.5 -0.5s-26.833 -0.833008 -37.5 -1.5s-20.334 -1.33398 -29.001 -2.00098s-15.5 -1.16699 -20.5 -1.5s-7.83301 -0.5 -8.5 -0.5c-16 0 -24 7.66699 -24 23c0 4 0.333008 7.5 1 10.5s1.83398 5.5 3.50098 7.5s3.16699 3.5 4.5 4.5
s4.16602 1.83301 8.49902 2.5s7.83301 1.16699 10.5 1.5s7.33398 0.666016 14.001 0.999023s12.334 0.833008 17.001 1.5c12.667 1.33301 20.834 4.5 24.501 9.5s5.5 12.5 5.5 22.5v543c0 4 -0.166992 7.33301 -0.5 10s-1 5 -2 7s-2 3.66699 -3 5s-2.83301 2.5 -5.5 3.5
l-6.5 2.5c-1.66699 0.666992 -4.66699 1.16699 -9 1.5s-7.83301 0.5 -10.5 0.5s-7.16699 0.166992 -13.5 0.5s-11.5 0.5 -15.5 0.5c-16 0 -24 7.33301 -24 22c0 20.667 6.33301 31 19 31c2 0 6.66699 -0.5 14 -1.5s17.5 -1.83301 30.5 -2.5s26.833 -1 41.5 -1
c11.333 0 37 0.5 77 1.5s69.667 1.5 89 1.5h194h5c18.667 0 30 -8.33301 34 -25c1.33301 -6.66699 4.16602 -19.334 8.49902 -38.001l11 -48.5c3 -13.667 4.5 -21.5 4.5 -23.5c0 -6.66699 -2 -12.167 -6 -16.5s-9 -6.5 -15 -6.5c-11.333 0 -27.666 19.667 -48.999 59
c-6.66699 10.667 -11.667 19.334 -15 26.001c-5.33301 8.66699 -10.333 14.334 -15 17.001s-11.667 4 -21 4h-189c-8.66699 0 -15.334 -2 -20.001 -6s-7.33398 -8.16699 -8.00098 -12.5s-1 -10.5 -1 -18.5v-171c0 -10 5 -15 15 -15h171
c2.66699 0 4.83398 0.166992 6.50098 0.5s3.33398 0.833008 5.00098 1.5s2.83398 1.33398 3.50098 2.00098s1.5 2 2.5 4s1.83301 3.83301 2.5 5.5s1.33398 4.33398 2.00098 8.00098s1.16699 7 1.5 10s1 7.33301 2 13s1.83301 10.834 2.5 15.501
c2.66699 18.667 10.667 28 24 28c6.66699 0 12.334 -2 17.001 -6s7 -9 7 -15z" />
    <glyph glyph-name="G" unicode="G" horiz-adv-x="707" 
d="M375 -25c-96.667 0 -180.666 37.834 -251.999 113.501s-107 166.834 -107 273.501c0 102.667 33.5 188.5 100.5 257.5s148.167 103.5 243.5 103.5c28 0 55.333 -3.33301 82 -10s47.834 -14 63.501 -22s29.667 -15.833 42 -23.5s19.166 -11.5 20.499 -11.5h4
c7.33301 0 16.166 6.5 26.499 19.5s16.5 19.833 18.5 20.5c3.33301 2 7.66602 3 12.999 3c9.33301 0 14 -4.66699 14 -14v-28c0 -19.333 0.333008 -39 1 -59s1.66699 -37.333 3 -52l3.5 -39.5c1 -11.667 1.83301 -20.834 2.5 -27.501s1 -10.334 1 -11.001
c0 -10.667 -9.66699 -16 -29 -16c-9.33301 0 -15 3.16699 -17 9.5s-5.5 18.666 -10.5 36.999s-14.5 37.166 -28.5 56.499c-26 35.333 -58.667 64 -98 86s-80.666 33 -123.999 33c-27.333 0 -53.833 -5.33301 -79.5 -16s-50 -27 -73 -49s-41.5 -53.167 -55.5 -93.5
s-21 -86.833 -21 -139.5c0 -64 8.66699 -119.667 26 -167s40.166 -83.333 68.499 -108s56.833 -42.667 85.5 -54s57.667 -17 87 -17c38.667 0 75 8 109 24s54 30 60 42c2 4 3 10 3 18v115c0 13.333 -4.33301 22 -13 26s-26.667 7 -54 9
c-12 0.666992 -21.667 1.33398 -29 2.00098c-19.333 1.33301 -29 9.33301 -29 24c0 15.333 7.66699 23 23 23c2 0 7.5 -0.333008 16.5 -1s21.333 -1.33398 37 -2.00098s32.834 -1 51.501 -1h2c19.333 0 37.333 0.333008 54 1s29.667 1.33398 39 2.00098s15 1 17 1
c8.66699 0 15.167 -2.16699 19.5 -6.5s6.5 -9.16602 6.5 -14.499c0 -11.333 -8.5 -20 -25.5 -26s-26.5 -13 -28.5 -21c-0.666992 -2 -1 -5.66699 -1 -11v-173c0 -13.333 -4.66699 -20 -14 -20c-4 0 -9.5 3.5 -16.5 10.5s-11.833 10.5 -14.5 10.5
c-4 0 -8.66699 -2.66699 -14 -8c-60 -52.667 -130 -79 -210 -79z" />
    <glyph glyph-name="H" unicode="H" horiz-adv-x="780" 
d="M162 0c-12.667 0 -25.6562 -0.166992 -38.9893 -0.5s-24.833 -0.833008 -34.5 -1.5s-18.334 -1.33398 -26.001 -2.00098s-13.834 -1.16699 -18.501 -1.5s-7.33398 -0.5 -8.00098 -0.5c-14 0 -21 9.33301 -21 28c0 12.667 15 19.667 45 21
c10 0.666992 18.333 1.33398 25 2.00098c11.333 0.666992 18.666 3.83398 21.999 9.50098s5 13.5 5 23.5v542c0 5.33301 -0.666992 9.83301 -2 13.5s-2.83301 6.66699 -4.5 9s-4.66699 4.16602 -9 5.49902s-7.5 2.16602 -9.5 2.49902s-6.5 1 -13.5 2s-11.833 1.5 -14.5 1.5
c-2 0.666992 -6.66699 1.16699 -14 1.5s-12.666 1 -15.999 2s-6.66602 3 -9.99902 6s-5 7.16699 -5 12.5s2 11.166 6 17.499s10 9.5 18 9.5c2 0 8.16699 -0.166992 18.5 -0.5s24.5 -0.666016 42.5 -0.999023s37.667 -0.5 59 -0.5h3c22 0 42.167 0.166992 60.5 0.5
s32.833 0.666016 43.5 0.999023s17 0.5 19 0.5c10.667 0 17 -7 19 -21c0 -1.33301 0.166992 -3 0.5 -5s0.5 -3.33301 0.5 -4c0 -8 -3.5 -13.167 -10.5 -15.5s-22.167 -4.16602 -45.5 -5.49902c-9.33301 0 -16.666 -0.333008 -21.999 -1
c-15.333 -0.666992 -23 -10.667 -23 -30v-169c0 -10 4.33301 -15 13 -15h346c12 0 18 6.33301 18 19v151c0 24 -7.33301 38.667 -22 44c-6 2.66699 -15.833 4.16699 -29.5 4.5s-24.334 1.83301 -32.001 4.5s-11.5 9 -11.5 19c0 16 8.33301 24 25 24
c2 0 7.5 -0.166992 16.5 -0.5s21.333 -0.666016 37 -0.999023s32.834 -0.5 51.501 -0.5c13.333 0 27 0.166992 41 0.5s26.333 0.833008 37 1.5s20.167 1.16699 28.5 1.5s15 0.666016 20 0.999023s7.83301 0.5 8.5 0.5c12.667 0 19 -7 19 -21c0 -4 -0.333008 -7.5 -1 -10.5
s-2.16699 -5.66699 -4.5 -8s-4.66602 -4.16602 -6.99902 -5.49902s-5.83301 -2.5 -10.5 -3.5s-8.83398 -1.66699 -12.501 -2s-9.16699 -1 -16.5 -2l-19 -2.5c-18 -2 -27 -11.667 -27 -29v-538v-5c0 -20.667 9.33301 -31.667 28 -33c4 0 9.16699 -0.166992 15.5 -0.5
s11.166 -0.666016 14.499 -0.999023s7.16602 -0.833008 11.499 -1.5s7.66602 -1.5 9.99902 -2.5s4.5 -2.33301 6.5 -4s3.5 -3.83398 4.5 -6.50098s1.5 -6 1.5 -10c0 -17.333 -7 -26 -21 -26c-0.666992 0 -3.33398 0.166992 -8.00098 0.5s-10.834 0.833008 -18.501 1.5
s-16.5 1.33398 -26.5 2.00098s-21.333 1.16699 -34 1.5s-25.334 0.5 -38.001 0.5s-25.334 -0.166992 -38.001 -0.5s-23.834 -0.833008 -33.501 -1.5s-18.167 -1.33398 -25.5 -2.00098s-13.333 -1.16699 -18 -1.5s-7.33398 -0.5 -8.00098 -0.5c-11.333 0 -17 6.66699 -17 20
c0 4 0.166992 7.16699 0.5 9.5s1 4.66602 2 6.99902s1.83301 4 2.5 5s2.33398 2 5.00098 3s5 1.83301 7 2.5s5.16699 1.16699 9.5 1.5s8.33301 0.666016 12 0.999023s9 0.666016 16 0.999023s13.167 0.833008 18.5 1.5c13.333 0.666992 21.833 4 25.5 10s5.5 15.667 5.5 29
v277c0 8 -4.66699 12 -14 12h-349c-10 0 -15 -6 -15 -18v-277c0 -6 0.5 -10.667 1.5 -14s5.33301 -7.16602 13 -11.499s19.167 -7.16602 34.5 -8.49902c1.33301 0 5.83301 -0.333008 13.5 -1s13.5 -1.33398 17.5 -2.00098s8.16699 -2.66699 12.5 -6
s6.5 -7.66602 6.5 -12.999c0 -19.333 -5.33301 -29 -16 -29c-0.666992 0 -3.16699 0.166992 -7.5 0.5s-10.5 0.833008 -18.5 1.5s-16.833 1.33398 -26.5 2.00098s-20.834 1.16699 -33.501 1.5s-25.334 0.5 -38.001 0.5z" />
    <glyph glyph-name="I" unicode="I" horiz-adv-x="330" 
d="M53 696l16.9971 -1.00293c11.333 -0.666992 26.333 -1.5 45 -2.5s37.334 -1.5 56.001 -1.5c19.333 0 37 0.333008 53 1s28.5 1.33398 37.5 2.00098s14.5 1 16.5 1c11.333 0 17 -6.33301 17 -19c0 -3.33301 -0.166992 -6.16602 -0.5 -8.49902
s-0.666016 -4.5 -0.999023 -6.5s-1.16602 -3.66699 -2.49902 -5l-3.5 -3.5c-1 -1 -2.83301 -1.83301 -5.5 -2.5s-4.83398 -1.33398 -6.50098 -2.00098s-4.5 -1.16699 -8.5 -1.5s-7.33301 -0.666016 -10 -0.999023s-6.83398 -0.666016 -12.501 -0.999023
s-10.5 -0.833008 -14.5 -1.5c-10.667 -0.666992 -16 -6.33398 -16 -17.001v-553c0 -16 6 -24.667 18 -26c6.66699 -0.666992 14 -1.16699 22 -1.5s14.333 -0.5 19 -0.5s9.5 -0.333008 14.5 -1s8.83301 -1.33398 11.5 -2.00098s5.16699 -1.66699 7.5 -3s4 -3.33301 5 -6
s1.5 -5.66699 1.5 -9c0 -20 -6.66699 -30 -20 -30c-0.666992 0 -3.33398 0.166992 -8.00098 0.5s-11.167 0.833008 -19.5 1.5s-17.5 1.33398 -27.5 2.00098s-21.667 1.16699 -35 1.5s-26.666 0.5 -39.999 0.5s-26.666 -0.166992 -39.999 -0.5
s-25.166 -0.833008 -35.499 -1.5s-19.5 -1.33398 -27.5 -2.00098s-14.5 -1.16699 -19.5 -1.5s-7.83301 -0.5 -8.5 -0.5c-10.667 0 -16.667 7.66699 -18 23c-0.666992 2 -1 5.33301 -1 10c0 8 2.83301 13 8.5 15s19.167 3.66699 40.5 5
c14.667 0.666992 27 1.33398 37 2.00098c14.667 0.666992 22 10.334 22 29.001v532c0 2 0.166992 4.83301 0.5 8.5s0.5 5.83398 0.5 6.50098c0 8.66699 -2.66699 14 -8 16s-17.333 3.33301 -36 4c-10 0 -18 0.333008 -24 1c-15.333 1.33301 -23 8.66602 -23 21.999
c0 18.667 7.33301 28 22 28z" />
    <glyph glyph-name="J" unicode="J" horiz-adv-x="323" 
d="M169 691c21.333 0 40.999 0.332031 58.999 0.999023s32.167 1.33398 42.5 2.00098s16.5 1 18.5 1c11.333 0 17 -6.66699 17 -20c0 -4.66699 -0.333008 -8.66699 -1 -12s-2 -6 -4 -8s-3.83301 -3.66699 -5.5 -5s-4.66699 -2.5 -9 -3.5s-8.16602 -1.5 -11.499 -1.5
s-8.5 -0.333008 -15.5 -1s-13.167 -1.33398 -18.5 -2.00098c-18 -1.33301 -27 -13 -27 -35v-550c0 -40 -8.33301 -78 -25 -114s-38.334 -67 -65.001 -93c-6 -6 -14.667 -13.5 -26 -22.5s-27.166 -18.667 -47.499 -29s-37.833 -15.5 -52.5 -15.5
c-23.333 0 -42.833 8.33301 -58.5 25s-23.5 34.667 -23.5 54c0 14 4.33301 25.833 13 35.5s19.667 14.5 33 14.5c11.333 0 21.5 -3.5 30.5 -10.5s16 -14.833 21 -23.5s11.5 -16.5 19.5 -23.5s17 -10.5 27 -10.5c23.333 0 40.666 21 51.999 63c6 22 9 44 9 66v636
c0 4.66699 -0.5 8.66699 -1.5 12s-2 6.16602 -3 8.49902s-3.16699 4.33301 -6.5 6s-6.16602 3 -8.49902 4s-6.33301 1.83301 -12 2.5s-10.334 1.16699 -14.001 1.5s-9.5 0.833008 -17.5 1.5s-14.667 1.33398 -20 2.00098c-15.333 2 -23 9.33301 -23 22
c0 18 7.66699 27 23 27c0.666992 0 3.33398 -0.166992 8.00098 -0.5s11 -0.666016 19 -0.999023s17 -0.833008 27 -1.5s21.5 -1.16699 34.5 -1.5s25.833 -0.5 38.5 -0.5h4z" />
    <glyph glyph-name="K" unicode="K" horiz-adv-x="669" 
d="M287 -6c-0.666992 0 -3.33496 0.168945 -8.00195 0.501953s-11 0.833008 -19 1.5s-17 1.33398 -27 2.00098s-21.667 1.16699 -35 1.5s-26.333 0.5 -39 0.5s-25.5 -0.166992 -38.5 -0.5s-24.5 -0.833008 -34.5 -1.5s-19 -1.33398 -27 -2.00098s-14.333 -1.16699 -19 -1.5
s-7.33398 -0.5 -8.00098 -0.5c-12 0 -18 7.66699 -18 23c0 4 0.5 7.5 1.5 10.5s2.66699 5.5 5 7.5s4.5 3.5 6.5 4.5s5 1.83301 9 2.5s7.16699 1.16699 9.5 1.5s6.16602 0.666016 11.499 0.999023s9 0.5 11 0.5c17.333 1.33301 29.333 5.16602 36 11.499s10 19.166 10 38.499
v509c0 4.66699 -0.333008 9 -1 13s-1.16699 7.5 -1.5 10.5s-1.5 5.66699 -3.5 8s-3.33301 4.33301 -4 6s-2.83398 3.16699 -6.50098 4.5s-6.16699 2.33301 -7.5 3s-4.66602 1.33398 -9.99902 2.00098s-8.83301 1.16699 -10.5 1.5s-6.16699 0.833008 -13.5 1.5
s-12.333 1 -15 1c-19.333 1.33301 -29 9.66602 -29 24.999c0 6 2.5 11.667 7.5 17s12.5 8 22.5 8c2 0 7.83301 -0.5 17.5 -1.5s23 -1.83301 40 -2.5s35.5 -1 55.5 -1h1c20 0 38.5 0.333008 55.5 1s30.167 1.5 39.5 2.5s15 1.5 17 1.5c10.667 0 18.334 -3 23.001 -9
s7 -12 7 -18c0 -9.33301 -4.66699 -15.333 -14 -18s-21.166 -4 -35.499 -4s-24.166 -1.33301 -29.499 -4c-10 -5.33301 -15 -16.666 -15 -33.999v-222c0 -11.333 4.33301 -17 13 -17c5.33301 0 14.333 7 27 21l71.5 79.5l81.5 91.5c20.667 23.333 31.667 36.333 33 39
c5.33301 6.66699 8 14 8 22c0 10 -3.5 17.167 -10.5 21.5s-14.667 6.5 -23 6.5s-16 1.66699 -23 5s-10.5 9 -10.5 17c0 14 7.66699 21 23 21c2 0 7.66699 -0.166992 17 -0.5s22 -0.666016 38 -0.999023s33.667 -0.5 53 -0.5h6c18 0 34.667 0.166992 50 0.5
s27.333 0.666016 36 0.999023s14 0.5 16 0.5c19.333 0 29 -7 29 -21c0 -8.66699 -4.5 -14.834 -13.5 -18.501s-22 -6.83398 -39 -9.50098s-29.833 -5.66699 -38.5 -9c-7.33301 -3.33301 -14.833 -7.66602 -22.5 -12.999s-13.5 -10 -17.5 -14s-10 -10.5 -18 -19.5
s-13.333 -14.833 -16 -17.5c-118.667 -128 -179 -193.667 -181 -197c-1.33301 -2.66699 -2 -5 -2 -7c0 -5.33301 2.66699 -10.666 8 -15.999c185.333 -195.333 279.666 -294 282.999 -296c1.33301 -1.33301 3.33301 -3 6 -5c12 -8 25.167 -13 39.5 -15
s24.166 -5.66699 29.499 -11c4.66699 -6 7 -11.333 7 -16c0 -5.33301 -2.5 -10.5 -7.5 -15.5s-12.5 -7.5 -22.5 -7.5c-3.33301 0 -9.5 0.666992 -18.5 2s-18.833 2 -29.5 2h-25c-9.33301 0 -15.833 0.166992 -19.5 0.5s-8.16699 0.5 -13.5 0.5s-9.16602 0.5 -11.499 1.5
s-5 1.83301 -8 2.5s-5.66699 2.16699 -8 4.5s-4.5 4.66602 -6.5 6.99902s-5 5.5 -9 9.5l-157 181c-50 58 -79.667 92 -89 102s-16.333 15 -21 15h-1c-9.33301 0 -14 -7 -14 -21v-216c0 -4 0.166992 -7.5 0.5 -10.5s0.833008 -5.83301 1.5 -8.5
s1.83398 -4.83398 3.50098 -6.50098s3 -3.16699 4 -4.5s3.16699 -2.5 6.5 -3.5s6 -1.83301 8 -2.5s5.66699 -1.16699 11 -1.5s9.5 -0.666016 12.5 -0.999023s8.33301 -0.666016 16 -0.999023s13.834 -0.833008 18.501 -1.5c14.667 -2 22 -9.33301 22 -22
c0 -19.333 -6.66699 -29 -20 -29z" />
    <glyph glyph-name="L" unicode="L" horiz-adv-x="576" 
d="M155 691c22 0 42.3311 0.166016 60.998 0.499023s33.334 0.833008 44.001 1.5s17 1 19 1c7.33301 0 12 -2.16699 14 -6.5s3 -11.166 3 -20.499c0 -16 -7.66699 -24 -23 -24c-6.66699 0 -13.834 -0.166992 -21.501 -0.5s-13.5 -0.5 -17.5 -0.5h-13.5
c-5 0 -8.83301 -0.166992 -11.5 -0.5s-5.33398 -1 -8.00098 -2s-4.66699 -2.16699 -6 -3.5s-2.5 -3.16602 -3.5 -5.49902s-1.66699 -4.83301 -2 -7.5s-0.5 -6 -0.5 -10v-519c0 -22 9 -33 27 -33h196h3c25.333 0 44 9.33301 56 28c3.33301 5.33301 10.833 20.666 22.5 45.999
s18.5 39 20.5 41c4 5.33301 9 8 15 8c3.33301 0 7 -0.5 11 -1.5s8.33301 -3.33301 13 -7s7 -8.5 7 -14.5c0 -5.33301 -6.66699 -53.666 -20 -144.999c-0.666992 -4.66699 -1.5 -8.33398 -2.5 -11.001s-3.66699 -5.16699 -8 -7.5s-10.166 -3.5 -17.499 -3.5
c-2 0 -11 0.166992 -27 0.5s-37.333 0.833008 -64 1.5s-56.667 1.33398 -90 2.00098s-72 1.16699 -116 1.5s-87.333 0.5 -130 0.5h-54c-11.333 0 -17 5.33301 -17 16c0 8.66699 2.83301 14.5 8.5 17.5s18.834 6.5 39.501 10.5c4 0.666992 7 1.33398 9 2.00098
c15.333 4 23 15 23 33v3v538c0 4 -0.166992 7.16699 -0.5 9.5s-1 4.5 -2 6.5s-2.33301 3.5 -4 4.5s-3.5 1.66699 -5.5 2s-4.5 0.666016 -7.5 0.999023s-6.33301 0.5 -10 0.5h-12.5h-15c-17.333 1.33301 -26 9.66602 -26 24.999c0 16.667 6.66699 25 20 25
c2.66699 0 8.66699 -0.166992 18 -0.5l40.5 -1.5c17.667 -0.666992 36.834 -1 57.501 -1h8z" />
    <glyph glyph-name="M" unicode="M" horiz-adv-x="1021" 
d="M738 -6c-12.667 0 -18.9932 7.99609 -18.9932 23.9961c0 10 3.66699 16.5 11 19.5s19 5.16699 35 6.5c10.667 0.666992 19.167 1.66699 25.5 3s12.666 3.66602 18.999 6.99902s11 8.5 14 15.5s4.5 15.833 4.5 26.5v222c0 103.333 -1 158 -3 164c-0.666992 4 -3 6 -7 6
c-4.66699 0 -9.33398 -4 -14.001 -12c-26 -42 -60.167 -101.5 -102.5 -178.5l-110.5 -203.5c-31.333 -58.667 -49.333 -91 -54 -97c-6.66699 -8 -14.334 -12 -23.001 -12c-12 0 -24 12.333 -36 37c-33.333 68.667 -71.5 141 -114.5 217s-78.167 136 -105.5 180
s-42.666 67 -45.999 69c-0.666992 0.666992 -1.66699 1 -3 1c-2.66699 0 -4 -1.66699 -4 -5c-4 -72 -6 -143 -6 -213c0 -58 1.33301 -119 4 -183c1.33301 -19.333 4 -30.666 8 -33.999c6.66699 -4.66699 17.834 -7 33.501 -7s29 -1.83301 40 -5.5s16.5 -11.834 16.5 -24.501
c0 -15.333 -6 -23 -18 -23c-0.666992 0 -3.33398 0.166992 -8.00098 0.5s-10.834 0.833008 -18.501 1.5s-16.167 1.33398 -25.5 2.00098s-20.5 1.16699 -33.5 1.5s-25.5 0.5 -37.5 0.5s-24.5 -0.166992 -37.5 -0.5s-24.167 -0.833008 -33.5 -1.5
s-17.833 -1.33398 -25.5 -2.00098s-13.834 -1.16699 -18.501 -1.5s-7.33398 -0.5 -8.00098 -0.5c-12.667 0 -19 7.33301 -19 22c0 4.66699 0.5 8.5 1.5 11.5s2.66699 5.66699 5 8s4.66602 4 6.99902 5s6.16602 2 11.499 3l13.5 2.5
c3.66699 0.666992 9.5 1.33398 17.5 2.00098s14.667 1.33398 20 2.00098s10 1.83398 14 3.50098s7 3.33398 9 5.00098s3.66699 4.66699 5 9s2.16602 7.66602 2.49902 9.99902s0.833008 6.66602 1.5 12.999s1 10.833 1 13.5c17.333 210 26 362.667 26 458
c0 8 -4 16.667 -12 26c-0.666992 0.666992 -5 5.83398 -13 15.501s-14.667 17 -20 22s-14 10.333 -26 16s-25 8.5 -39 8.5c-13.333 2 -20 8.33301 -20 19c0 6.66699 1.16699 11.834 3.5 15.501s4.5 5.66699 6.5 6s4.66699 0.5 8 0.5h147c12 0 20.667 -4.33301 26 -13
l194 -324l119 -190c4 -8 10 -12 18 -12c6 0 10.667 3.66699 14 11l278 519c3.33301 6 9.33301 9 18 9h149c3.33301 0 5.83301 -0.166992 7.5 -0.5s3.33398 -2.33301 5.00098 -6s2.5 -8.83398 2.5 -15.501c0 -5.33301 -0.833008 -9.66602 -2.5 -12.999s-5 -6 -10 -8
s-10.167 -3.5 -15.5 -4.5s-13 -2.66699 -23 -5s-19.667 -4.83301 -29 -7.5c-16.667 -4 -25 -14 -25 -30l3.5 -287l2 -154.5c0.333008 -25 0.5 -43.833 0.5 -56.5v-7c0 -11.333 0.333008 -19.5 1 -24.5s3.66699 -10.167 9 -15.5s13.666 -8.66602 24.999 -9.99902
c4.66699 -0.666992 10.5 -1.16699 17.5 -1.5s12.167 -0.666016 15.5 -0.999023s7.33301 -0.833008 12 -1.5s7.83398 -1.66699 9.50098 -3l6 -5c2.33301 -2 3.83301 -4.5 4.5 -7.5s1 -6.5 1 -10.5c0 -6.66699 -2 -12 -6 -16s-9 -6 -15 -6l-19 2
c-12.667 0.666992 -29.5 1.5 -50.5 2.5s-41.833 1.5 -62.5 1.5c-13.333 0 -26.666 -0.166992 -39.999 -0.5s-25 -0.833008 -35 -1.5s-19.167 -1.33398 -27.5 -2.00098s-14.833 -1.16699 -19.5 -1.5s-7.33398 -0.5 -8.00098 -0.5z" />
    <glyph glyph-name="N" unicode="N" horiz-adv-x="818" 
d="M153 555l0.0078125 3.99121c0 9.33301 -11.333 24.333 -34 45c-26.667 26.667 -57 41.334 -91 44.001c-12.667 0 -19 7.66699 -19 23c0 17.333 7.66699 26 23 26h126c16.667 0 30.334 -6.33301 41.001 -19l160 -186l94 -105c125.333 -136 190.666 -205.667 195.999 -209
c1.33301 -1.33301 2.66602 -2 3.99902 -2c4.66699 0 7 3.33301 7 10c0 8 0.333008 19.5 1 34.5s1.16699 28.667 1.5 41s0.5 23.833 0.5 34.5c0 92 -3.33301 193.667 -10 305c-0.666992 20 -5.33398 32.667 -14.001 38s-26 9.33301 -52 12c-15.333 2 -23 9.33301 -23 22
c0 6 2.33301 11.5 7 16.5s12.334 7.5 23.001 7.5c1.33301 0 6.16602 -0.166992 14.499 -0.5s20 -0.833008 35 -1.5s31.167 -1 48.5 -1s33.166 0.333008 47.499 1s25.666 1.16699 33.999 1.5s13.166 0.5 14.499 0.5c14.667 0 22 -7.66699 22 -23
c0 -5.33301 -0.666992 -9.66602 -2 -12.999s-4 -5.83301 -8 -7.5s-7.16699 -2.66699 -9.5 -3s-6.83301 -0.666016 -13.5 -0.999023s-11.334 -0.5 -14.001 -0.5c-17.333 -1.33301 -29.166 -6.66602 -35.499 -15.999s-9.83301 -27.666 -10.5 -54.999
c-2.66699 -116 -4 -204.667 -4 -266c0 -50.667 0.333008 -97.667 1 -141s1.33398 -77.166 2.00098 -101.499s1 -39.166 1 -44.499c0 -32.667 -7 -49 -21 -49c-8 0 -24.667 14.333 -50 43l-212 242c-150 166.667 -225.667 250 -227 250l-4 -4
c-9.33301 -140 -14 -261.333 -14 -364v-29c0 -27.333 2.66699 -45 8 -53s18.333 -12.667 39 -14c25.333 0 46 -2.33301 62 -7c8.66699 -4 13 -13 13 -27c0 -12.667 -5.66699 -19 -17 -19c-0.666992 0 -3.33398 0.166992 -8.00098 0.5s-10.834 0.833008 -18.501 1.5
s-16.5 1.33398 -26.5 2.00098s-21.333 1.16699 -34 1.5s-25.334 0.5 -38.001 0.5c-20 0 -40 -0.5 -60 -1.5s-36 -1.83301 -48 -2.5l-18 -2c-14 0 -21 6.66699 -21 20c0 14.667 5 23.667 15 27c4 1.33301 13.167 2.5 27.5 3.5s26.666 3.66699 36.999 8s17.833 11.5 22.5 21.5
c2.66699 6.66699 9 102.334 19 287.001z" />
    <glyph glyph-name="O" unicode="O" horiz-adv-x="796" 
d="M778 345c0 -106 -35.832 -194.166 -107.499 -264.499s-158.167 -105.5 -259.5 -105.5c-50 0 -99 9.66699 -147 29s-90.333 46.666 -127 81.999c-78 75.333 -117.667 167 -119 275c0 103.333 37.167 191.833 111.5 265.5s163.166 110.5 266.499 110.5
c108 0 198.667 -38.667 272 -116s110 -169.333 110 -276zM116.001 393.001c0 -45.333 6.16992 -89.001 18.5029 -131.001s30.166 -80 53.499 -114s54 -61.333 92 -82s80.333 -31 127 -31c31.333 0 62 5.33301 92 16s58.667 26.834 86 48.501s49.5 52.167 66.5 91.5
s25.5 84.666 25.5 135.999c0 54 -9.16699 106.833 -27.5 158.5s-46.833 94.5 -85.5 128.5c-52 46 -113.333 69 -184 69c-32.667 0 -64.334 -5.83301 -95.001 -17.5s-58.834 -28.667 -84.501 -51s-46.167 -52.666 -61.5 -90.999s-23 -81.833 -23 -130.5z" />
    <glyph glyph-name="P" unicode="P" horiz-adv-x="585" 
d="M487 510c0 44 -20.5 80.666 -61.5 109.999s-96.5 44 -166.5 44c-26.667 0 -43.667 -1 -51 -3s-11 -6.33301 -11 -13v-292c0 -5.33301 1.83301 -8.66602 5.5 -9.99902s14.167 -2 31.5 -2c75.333 0 136.333 15.333 183 46s70 70.667 70 120zM71 698.999
c34 0 77.3359 1.83887 130.003 5.50586s90.334 5.5 113.001 5.5c87.333 0 154 -20.667 200 -62c39.333 -36 59 -80.333 59 -133v-1c-0.666992 -36.667 -10.667 -69.167 -30 -97.5s-44 -50.5 -74 -66.5c-49.333 -28 -126 -42 -230 -42h-31c-8.66699 0 -13 -5.33301 -13 -16
v-208c0 -12 2.16699 -20.833 6.5 -26.5s12.833 -8.83398 25.5 -9.50098c60.667 -2.66699 93 -4.66699 97 -6c9.33301 -2.66699 14 -10.334 14 -23.001v-1c0 -16 -6.66699 -24 -20 -24l-20 2c-13.333 0.666992 -31.333 1.5 -54 2.5s-45 1.5 -67 1.5
c-22.667 0 -45.334 -0.5 -68.001 -1.5s-40.667 -1.83301 -54 -2.5l-20 -2c-14 0 -21 8 -21 24c0 2.66699 0.166992 5.16699 0.5 7.5s0.666016 4.33301 0.999023 6s1.16602 3.16699 2.49902 4.5l3.5 3.5c1 1 2.66699 1.83301 5 2.5s4.33301 1.16699 6 1.5
s4.33398 0.666016 8.00098 0.999023s7 0.666016 10 0.999023s7.16699 0.666016 12.5 0.999023s10.333 0.833008 15 1.5c11.333 1.33301 18.833 4.16602 22.5 8.49902s5.5 10.833 5.5 19.5v548c0 5.33301 -0.166992 9.5 -0.5 12.5s-2.33301 6 -6 9s-8.83398 4.5 -15.501 4.5
h-37c-4.66699 0 -8.33398 0.333008 -11.001 1s-5.5 3.16699 -8.5 7.5s-4.5 10.5 -4.5 18.5c0 14.667 7.33301 22 22 22h26z" />
    <glyph glyph-name="Q" unicode="Q" horiz-adv-x="770" 
d="M417 33c71.333 0 131.5 27.833 180.5 83.5s73.5 129.167 73.5 220.5c0 54.667 -9.16699 108.5 -27.5 161.5s-47.5 96.833 -87.5 131.5c-48 40.667 -105 61 -171 61c-70.667 0 -132.5 -25.833 -185.5 -77.5s-79.5 -122.5 -79.5 -212.5
c0 -60.667 11.833 -118.667 35.5 -174s58.667 -101.5 105 -138.5s98.5 -55.5 156.5 -55.5zM467 -11l-22.999 -2.99902c-16 -1.33301 -31.333 -2 -46 -2c-51.333 0 -100.5 10 -147.5 30s-87.5 47.333 -121.5 82c-72.667 74 -109 162.667 -109 266
c0 50 10.167 99.167 30.5 147.5s48.5 90.166 84.5 125.499c72 70.667 159.333 106 262 106c99.333 0 183.333 -34 252 -102c36 -36 63.833 -78 83.5 -126s29.5 -97.333 29.5 -148c0 -69.333 -17.333 -135.5 -52 -198.5s-79.667 -113.5 -135 -151.5c-2 -2 -3 -3.66699 -3 -5
s1 -2.66602 3 -3.99902c26.667 -18.667 55 -43.5 85 -74.5s52.667 -51.5 68 -61.5c28.667 -18.667 57.667 -28 87 -28c5.33301 0 10.166 0.166992 14.499 0.5s6.83301 0.5 7.5 0.5c8 0 12 -3.33301 12 -10c0 -8.66699 -10 -17.667 -30 -27s-40.333 -14 -61 -14
c-11.333 0 -22.166 1 -32.499 3s-20.833 5.66699 -31.5 11s-19.334 9.83301 -26.001 13.5s-15.334 10.167 -26.001 19.5l-21.5 19c-3.66699 3.33301 -11 10.666 -22 21.999l-19.5 20c-59.333 59.333 -96.666 89 -111.999 89z" />
    <glyph glyph-name="R" unicode="R" horiz-adv-x="712" 
d="M449 508c0 42 -17.333 78.5 -52 109.5s-77.334 46.5 -128.001 46.5c-31.333 0 -51.666 -3.66699 -60.999 -11c-4 -2.66699 -6 -8 -6 -16v-1l1 -2v-241c0 -8.66699 3.33301 -13.834 10 -15.501s25.667 -2.5 57 -2.5c38.667 0 70.334 4.66699 95.001 14
c23.333 9.33301 43.166 24.333 59.499 45s24.5 45.334 24.5 74.001zM290 703c43.333 0 81.333 -5.83691 114 -17.5039s57.5 -26.667 74.5 -45s29.5 -37.166 37.5 -56.499s12 -39 12 -59c0 -44 -13.667 -81.333 -41 -112s-52.333 -50 -75 -58c-3.33301 -2 -5 -3.66699 -5 -5
s0.666992 -2.66602 2 -3.99902c36.667 -42.667 67.834 -82.5 93.501 -119.5s45.667 -67.5 60 -91.5s26.166 -41.333 35.499 -52c19.333 -22 37.666 -33 54.999 -33c10 0 19 3.83301 27 11.5s13.667 11.5 17 11.5c7.33301 0 11 -4 11 -12c0 -11.333 -8.5 -26.5 -25.5 -45.5
s-38.5 -28.5 -64.5 -28.5c-34.667 0 -70.667 24.667 -108 74l-102 146c-58 81.333 -89.667 123.666 -95 126.999c-3.33301 2.66699 -9 4 -17 4h-75c-9.33301 0 -14 -5 -14 -15v-237v-3c0 -20 8.66699 -31 26 -33c6 -0.666992 13 -1.33398 21 -2.00098
s14.167 -1.16699 18.5 -1.5s9.33301 -0.666016 15 -0.999023s10 -0.833008 13 -1.5s6.33301 -1.5 10 -2.5s6.33398 -2.16699 8.00098 -3.5s3.16699 -3.16602 4.5 -5.49902s2.33301 -4.83301 3 -7.5s1 -5.66699 1 -9c0 -14.667 -7 -22 -21 -22
c-0.666992 0 -3.5 0.166992 -8.5 0.5s-11.5 0.833008 -19.5 1.5s-17.167 1.33398 -27.5 2.00098s-22.333 1.16699 -36 1.5s-27.167 0.5 -40.5 0.5s-26.833 -0.166992 -40.5 -0.5s-25.5 -0.833008 -35.5 -1.5s-19.167 -1.33398 -27.5 -2.00098s-14.833 -1.16699 -19.5 -1.5
s-7.33398 -0.5 -8.00098 -0.5c-12 0 -18 9.33301 -18 28c0 2.66699 0.166992 5 0.5 7s1 3.66699 2 5s2 2.5 3 3.5s2.66699 1.83301 5 2.5s4.5 1.33398 6.5 2.00098s5 1.16699 9 1.5s7.33301 0.5 10 0.5s6.83398 0.166992 12.501 0.5s10.5 0.833008 14.5 1.5
c11.333 1.33301 18.833 4.83301 22.5 10.5s5.5 14.167 5.5 25.5v529c0 15.333 -4.33301 24.833 -13 28.5s-33 8.83398 -73 15.501c-10.667 2 -16 7.66699 -16 17c0 12.667 4.66699 19 14 19h35c32 0 72.667 2 122 6s84.333 6 105 6z" />
    <glyph glyph-name="S" unicode="S" horiz-adv-x="503" 
d="M33 528c0 46.667 17.3311 87.166 51.998 121.499s78.334 51.5 131.001 51.5c24.667 0 46.834 -3.5 66.501 -10.5s35 -13.833 46 -20.5s17.5 -10 19.5 -10c4 0 9.83301 6.83301 17.5 20.5s16.167 20.5 25.5 20.5c4.66699 0 8.66699 -1.83301 12 -5.5s5 -8.16699 5 -13.5
c0 -1.33301 -0.333008 -5.66602 -1 -12.999s-1.5 -17.5 -2.5 -30.5s-1.5 -26.833 -1.5 -41.5s0.5 -28.334 1.5 -41.001s1.83301 -22.5 2.5 -29.5s1 -11.167 1 -12.5c0 -10 -6 -15 -18 -15h-1c-9.33301 0 -16.333 3.5 -21 10.5s-10.834 18.833 -18.501 35.5
s-18.167 32.667 -31.5 48c-34 38 -71.333 57 -112 57c-28 0 -51.667 -9.33301 -71 -28s-29 -41.334 -29 -68.001c0 -36.667 17.667 -67.667 53 -93c20.667 -15.333 54.334 -28.666 101.001 -39.999s77.667 -20.333 93 -27c38.667 -16.667 69.834 -41.5 93.501 -74.5
s35.5 -71.833 35.5 -116.5c0 -61.333 -21.667 -113.333 -65 -156s-96.333 -64 -159 -64c-61.333 0 -113.333 18.667 -156 56c-10.667 9.33301 -21 14 -31 14c-3.33301 0 -8 -0.5 -14 -1.5s-10.333 -1.5 -13 -1.5c-12 0 -18 5.33301 -18 16c0 2 1.16699 8.66699 3.5 20
s5.5 30 9.5 56s7.33301 56 10 90c1.33301 14.667 9 22 23 22c10.667 0 17.167 -3 19.5 -9s5.16602 -22.667 8.49902 -50l2 -25c0.666992 -8 1.16699 -13.667 1.5 -17s0.5 -6.33301 0.5 -9s0.666992 -5.16699 2 -7.5s2.33301 -4.16602 3 -5.49902s3 -4.5 7 -9.5l11 -13.5
c34 -45.333 78 -68 132 -68c40.667 0 75.667 13.667 105 41s44 61 44 101c0 46 -20 83.667 -60 113c-22.667 16.667 -57 30.5 -103 41.5s-76 19.5 -90 25.5c-40 16 -70.333 38.833 -91 68.5s-31 62.167 -31 97.5z" />
    <glyph glyph-name="T" unicode="T" horiz-adv-x="708" 
d="M506 -6l-19.9971 2.00195c-12.667 0.666992 -30.167 1.5 -52.5 2.5s-44.5 1.5 -66.5 1.5c-14 0 -28.167 -0.166992 -42.5 -0.5s-27 -0.833008 -38 -1.5s-20.833 -1.33398 -29.5 -2.00098s-15.667 -1.16699 -21 -1.5s-8.33301 -0.5 -9 -0.5c-13.333 0 -20 8.66699 -20 26
c0 10.667 2.83301 17.334 8.5 20.001s18.834 4.66699 39.501 6c11.333 0.666992 20.333 1.33398 27 2.00098c14 1.33301 23.167 5 27.5 11s6.5 15 6.5 27v519c0 6.66699 -0.333008 11.667 -1 15s-3.16699 7 -7.5 11s-10.5 6 -18.5 6h-153
c-12.667 0 -21.334 -1.5 -26.001 -4.5s-9 -8.5 -13 -16.5c-28 -55.333 -43 -84.333 -45 -87c-4.66699 -5.33301 -10.334 -8 -17.001 -8s-12.167 2.5 -16.5 7.5s-6.5 11.167 -6.5 18.5v1c0 2.66699 10 49.667 30 141c2 10.667 9 16 21 16h597c11.333 0 18.333 -8 21 -24
c16.667 -86.667 25 -130.334 25 -131.001c0 -6 -2 -11.333 -6 -16s-8.66699 -7 -14 -7c-8 0 -15.667 6.66699 -23 20l-13 22.5l-10.5 19l-8 15c-3 5.66699 -5.5 9.66699 -7.5 12s-4 5 -6 8s-3.83301 5 -5.5 6s-3.5 2.16699 -5.5 3.5s-4.16699 2.16602 -6.5 2.49902l-7 1
c-2.33301 0.333008 -5.16602 0.5 -8.49902 0.5h-151c-6.66699 0 -11.834 -1.66699 -15.501 -5s-5.66699 -6.5 -6 -9.5s-0.5 -7.5 -0.5 -13.5v-536c0 -10.667 3.16699 -17.334 9.5 -20.001s23.166 -5 50.499 -7c14 -1.33301 25 -2.33301 33 -3
c7.33301 -0.666992 12.166 -3 14.499 -7s3.5 -11.333 3.5 -22c0 -13.333 -5.66699 -20 -17 -20z" />
    <glyph glyph-name="U" unicode="U" horiz-adv-x="774" 
d="M760 679c0 -9.33301 -3.66992 -15.501 -11.0029 -18.501s-15.166 -4.5 -23.499 -4.5s-16.166 -5.5 -23.499 -16.5s-11 -28.833 -11 -53.5c0 -1.33301 -0.166992 -3.33301 -0.5 -6s-0.5 -4.33398 -0.5 -5.00098v-232c0 -5.33301 0.166992 -13.333 0.5 -24
s0.5 -18.667 0.5 -24v-33c0 -22 -0.833008 -41.5 -2.5 -58.5s-5.33398 -36.5 -11.001 -58.5s-15 -42.333 -28 -61s-29.5 -35 -49.5 -49c-47.333 -33.333 -111.666 -50 -192.999 -50c-46 0 -87.5 5 -124.5 15s-65.667 21.5 -86 34.5s-38.166 28.667 -53.499 47
s-25.5 33 -30.5 44s-9.16699 22.5 -12.5 34.5c-8.66699 31.333 -13 75 -13 131c0 8.66699 0.166992 21.667 0.5 39s0.5 30.333 0.5 39v258c0 4 -0.166992 7.5 -0.5 10.5s-1.5 5.33301 -3.5 7s-3.33301 3.16699 -4 4.5s-3 2.33301 -7 3s-6.5 1.16699 -7.5 1.5
s-4.33301 0.833008 -10 1.5s-9.16699 1 -10.5 1c-18.667 2.66699 -28 11 -28 25c0 16.667 7 25 21 25c2 0 7.33301 -0.333008 16 -1s20.834 -1.33398 36.501 -2.00098s32.5 -1 50.5 -1h6c19.333 0 37.333 0.333008 54 1s29.667 1.33398 39 2.00098s15 1 17 1
c12.667 0 19 -9 19 -27c0 -5.33301 -0.666992 -9.66602 -2 -12.999s-4.16602 -5.66602 -8.49902 -6.99902s-8.33301 -2.33301 -12 -3s-9.83398 -1.33398 -18.501 -2.00098s-16 -1.33398 -22 -2.00098c-22 -2.66699 -33 -14.667 -33 -36v-320
c0 -45.333 4 -83.666 12 -114.999s25 -58.666 51 -81.999c40.667 -37.333 102 -56 184 -56c95.333 0 157.666 31 186.999 93c13.333 28 20 66 20 114v14c0 7.33301 -0.166992 18 -0.5 32s-0.5 24.667 -0.5 32v278c0 12 -1 21.5 -3 28.5s-7.16699 12.167 -15.5 15.5
s-14.5 5.33301 -18.5 6s-14.667 2 -32 4c-14.667 1.33301 -22 9 -22 23c0 15.333 6.33301 23 19 23c1.33301 0 6 -0.333008 14 -1s18.667 -1.33398 32 -2.00098s28 -1 44 -1s30.667 0.333008 44 1s24 1.33398 32 2.00098s12.667 1 14 1c12.667 0 19 -9 19 -27z" />
    <glyph glyph-name="V" unicode="V" horiz-adv-x="849" 
d="M46 706c2 0 8.00098 -0.333984 18.001 -1.00098s23.667 -1.33398 41 -2.00098s36 -1 56 -1c19.333 0 37.166 0.333008 53.499 1s29 1.33398 38 2.00098s14.5 1 16.5 1c12.667 0 19 -6.66699 19 -20c0 -11.333 -2.66699 -18.5 -8 -21.5s-18 -5.83301 -38 -8.5
c-5.33301 -0.666992 -9.33301 -1.33398 -12 -2.00098c-18 -2 -27 -10.667 -27 -26c0 -6 2 -13 6 -21c32 -71.333 67.167 -144.5 105.5 -219.5s69 -132.667 92 -173s36.167 -62.5 39.5 -66.5c2.66699 -2.66699 6 -4 10 -4s7.66699 3 11 9c80.667 146 149 294.667 205 446
c4 12 6 19.667 6 23c0 14.667 -7.66699 24.667 -23 30c-6 2 -15.167 3 -27.5 3s-21.833 1.5 -28.5 4.5s-10 9.83301 -10 20.5c0 17.333 7.33301 26 22 26c2 0 7.5 -0.333008 16.5 -1s21.5 -1.33398 37.5 -2.00098s33 -1 51 -1c18.667 0 35.834 0.333008 51.501 1
s27.834 1.33398 36.501 2.00098s14 1 16 1c15.333 0 23 -9.33301 23 -28c0 -10 -4 -16.333 -12 -19s-18.833 -5.5 -32.5 -8.5s-24.834 -9.16699 -33.501 -18.5c-7.33301 -8 -20.5 -35.167 -39.5 -81.5s-51.833 -120.666 -98.5 -222.999s-101.667 -211.5 -165 -327.5
c-8 -13.333 -16.667 -20 -26 -20s-18 6.66699 -26 20l-158.5 284c-45.667 84 -78.334 146.333 -98.001 187l-49 102.5l-26 54.5c-4.33301 8.66699 -9.5 15 -15.5 19c-2 1.33301 -7.5 4 -16.5 8s-16.333 8.33301 -22 13s-8.5 10.334 -8.5 17.001c0 14 10 21 30 21z" />
    <glyph glyph-name="W" unicode="W" horiz-adv-x="1026" 
d="M39 706c1.33301 0 6.16602 -0.338867 14.499 -1.00586s20 -1.33398 35 -2.00098s31.167 -1 48.5 -1c16.667 0 32.334 0.333008 47.001 1s26.167 1.33398 34.5 2.00098s13.166 1 14.499 1c12.667 0 19 -8.66699 19 -26c0 -8.66699 -2.83301 -14.667 -8.5 -18
s-12.334 -4.66602 -20.001 -3.99902s-15.667 0.333984 -24 -0.999023s-14.5 -4.33301 -18.5 -9c-3.33301 -4 -5 -8.33301 -5 -13s1 -9 3 -13c35.333 -112 88.666 -263.333 159.999 -454c4.66699 -12 9.66699 -18 15 -18c4.66699 0 9.66699 5.83301 15 17.5
s23.666 57.5 54.999 137.5l40 101c1.33301 5.33301 2 9.33301 2 12v1c0 4 -22.667 71.333 -68 202c-6 18.667 -11.5 29.334 -16.5 32.001s-23.167 4.66699 -54.5 6c-12 0 -18 7.66699 -18 23c0 16 8 24 24 24c2 0 7.5 -0.333008 16.5 -1s21.333 -1.33398 37 -2.00098
s32.834 -1 51.501 -1h1c18 0 35 0.333008 51 1s28.5 1.33398 37.5 2.00098s14.5 1 16.5 1c11.333 0 17 -7.66699 17 -23c0 -9.33301 -2.5 -15.166 -7.5 -17.499s-17.167 -4.5 -36.5 -6.5c-21.333 -2.66699 -32 -11 -32 -25c0 -2 0.666992 -6.33301 2 -13
c22 -66.667 47.333 -137.334 76 -212.001s52.834 -135.5 72.501 -182.5s31.834 -73.833 36.501 -80.5c4.66699 -6 8.66699 -9 12 -9h1c6.66699 0 12 6.33301 16 19c30.667 64.667 59.834 134.667 87.501 210s48.167 136 61.5 182s20 73.667 20 83
c0 4 -0.333008 7.16699 -1 9.5s-2.16699 4.5 -4.5 6.5s-4.5 3.5 -6.5 4.5s-5.33301 1.83301 -10 2.5s-8.66699 1.16699 -12 1.5l-15.5 1.5c-7 0.666992 -12.833 1.33398 -17.5 2.00098c-14 1.33301 -21 9.33301 -21 24c0 15.333 6.33301 23 19 23
c2 0 7.33301 -0.333008 16 -1s20.834 -1.33398 36.501 -2.00098s32.5 -1 50.5 -1h1c17.333 0 33.833 0.333008 49.5 1s27.834 1.33398 36.501 2.00098s14 1 16 1c11.333 0 17 -8 17 -24c0 -8.66699 -3 -14.834 -9 -18.501s-12.833 -5.5 -20.5 -5.5s-16 -1.66699 -25 -5
s-15.833 -9.33301 -20.5 -18c-0.666992 -1.33301 -4.5 -12.166 -11.5 -32.499l-30.5 -85.5l-47 -124.5c-18 -46.333 -40.833 -102.166 -68.5 -167.499s-57.167 -131.333 -88.5 -198c-14.667 -33.333 -28.334 -50 -41.001 -50c-16.667 0 -31.334 18.333 -44.001 55l-89 227
c-22 55.333 -34 83 -36 83s-3.66699 -1.33301 -5 -4l-80 -209c-27.333 -71.333 -43.833 -113.333 -49.5 -126s-10.834 -20 -15.501 -22h-1c-4 -2.66699 -7 -4 -9 -4c-4.66699 0 -8.66699 1.16699 -12 3.5s-6.33301 5.83301 -9 10.5s-5 9 -7 13s-4.16699 9.33301 -6.5 16
s-4.16602 11.667 -5.49902 15l-74.5 190c-23.667 62.667 -43.5 117.167 -59.5 163.5l-41.5 123l-28 87.5c-7 22.667 -10.833 35 -11.5 37c-4.66699 12 -15 18.333 -31 19s-25.667 3.33398 -29 8.00098c-3.33301 3.33301 -5 8 -5 14c0 7.33301 2.16699 14 6.5 20
s10.833 9 19.5 9z" />
    <glyph glyph-name="X" unicode="X" horiz-adv-x="680" 
d="M160 702c20.667 0 39.5029 0.332031 56.5029 0.999023s30.333 1.33398 40 2.00098s15.5 1 17.5 1c6.66699 0 11.667 -2 15 -6s5 -12 5 -24c0 -7.33301 -3.66699 -12.333 -11 -15s-15.666 -3.83398 -24.999 -3.50098s-17.666 -1.5 -24.999 -5.5s-11 -10.667 -11 -20
c0 -4.66699 4 -15 12 -31c74.667 -121.333 113 -182.333 115 -183c1.33301 0 2.66602 0.666992 3.99902 2l31.5 44l26.5 37l21 29c7.33301 10 13 18 17 24l12.5 18.5c4.33301 6.33301 7.5 11.333 9.5 15l6 11.5c2 4 3.5 7.33301 4.5 10s1.66699 5.33398 2 8.00098
s0.5 5.66699 0.5 9c0 4.66699 -0.333008 8.66699 -1 12s-2.33398 6.16602 -5.00098 8.49902s-4.66699 4.16602 -6 5.49902s-4.33301 2.33301 -9 3s-8 1.16699 -10 1.5s-6.16699 0.666016 -12.5 0.999023s-10.5 0.5 -12.5 0.5c-18 1.33301 -27 11.333 -27 30
c0 12 5.66699 18 17 18c2 0 8 -0.333008 18 -1s24 -1.33398 42 -2.00098s37.333 -1 58 -1c21.333 0 40.833 0.333008 58.5 1s31.667 1.33398 42 2.00098s16.5 1 18.5 1c12.667 0 19 -6.33301 19 -19c0 -12 -3 -20.333 -9 -25s-13 -6.66699 -21 -6s-18.333 0 -31 -2
s-23.667 -6.66699 -33 -14c-8 -6 -19.333 -18.167 -34 -36.5s-24.667 -31.5 -30 -39.5c-88.667 -125.333 -133 -189.333 -133 -192c0 -3.33301 58.667 -97.666 176 -282.999c12.667 -20 22.667 -31.667 30 -35s26.666 -6.66602 57.999 -9.99902
c18 -2.66699 27 -12.334 27 -29.001c0 -14 -6 -21 -18 -21c-0.666992 0 -3.33398 0.166992 -8.00098 0.5s-11.167 0.833008 -19.5 1.5s-17.666 1.33398 -27.999 2.00098s-22.333 1.16699 -36 1.5s-27.167 0.5 -40.5 0.5s-26.666 -0.166992 -39.999 -0.5
s-25.166 -0.833008 -35.499 -1.5s-19.5 -1.33398 -27.5 -2.00098s-14.5 -1.16699 -19.5 -1.5s-7.83301 -0.5 -8.5 -0.5c-12.667 0 -19 7 -19 21s6.33301 22.667 19 26c4 0.666992 18 2.66699 42 6c15.333 2.66699 23 10.334 23 23.001v2c0 6.66699 -24 48 -72 124l-60 96
c0 2 -1 3 -3 3c-2.66699 0 -49.667 -66 -141 -198c-7.33301 -10 -11 -18.667 -11 -26c0 -10 3.5 -16.5 10.5 -19.5s21.167 -5.5 42.5 -7.5c4 -0.666992 7.33301 -1 10 -1c18.667 -3.33301 28 -12.333 28 -27s-6 -22 -18 -22c-0.666992 0 -3 0.166992 -7 0.5
s-9.66699 0.833008 -17 1.5s-15.333 1.33398 -24 2.00098s-18.667 1.16699 -30 1.5s-22.666 0.5 -33.999 0.5c-18 0 -35.833 -0.5 -53.5 -1.5s-31.834 -1.83301 -42.501 -2.5l-16 -2c-10 0 -15 6.33301 -15 19c0 3.33301 0.166992 6.16602 0.5 8.49902s0.5 4.33301 0.5 6
s0.666992 3.33398 2 5.00098s2.16602 3 2.49902 4s1.66602 1.83301 3.99902 2.5s4 1.33398 5 2.00098s3.16699 1.33398 6.5 2.00098l7.5 1.5c1.66699 0.333008 5 0.833008 10 1.5s8.83301 1.33398 11.5 2.00098c4.66699 0.666992 9 1.66699 13 3s7.5 2.66602 10.5 3.99902
s6.33301 3.5 10 6.5l8.5 7c2 1.66699 5.16699 5.16699 9.5 10.5s7.5 9.33301 9.5 12s5.83301 8.16699 11.5 16.5l13.5 19.5c100.667 140.667 151 212 151 214c0 2.66699 -54.333 90.667 -163 264c-14.667 23.333 -26.334 37.166 -35.001 41.499s-25.334 7.5 -50.001 9.5
c-17.333 1.33301 -26 10.333 -26 27c0 15.333 7 23 21 23c2 0 8 -0.333008 18 -1s24 -1.33398 42 -2.00098s37.333 -1 58 -1h3z" />
    <glyph glyph-name="Y" unicode="Y" horiz-adv-x="683" 
d="M485 657c-10.667 0.666992 -18.6641 1.33398 -23.9971 2.00098s-10.333 3.16699 -15 7.5s-7 10.5 -7 18.5c0 4.66699 1.83301 9.33398 5.5 14.001s9.16699 7 16.5 7c1.33301 0 6 -0.333008 14 -1s18.833 -1.33398 32.5 -2.00098s28.5 -1 44.5 -1h3c16 0 31 0.333008 45 1
s24.667 1.33398 32 2.00098s12 1 14 1c10 0 17.333 -2.16699 22 -6.5s7 -9.16602 7 -14.499c0 -6.66699 -2.5 -12.167 -7.5 -16.5s-12.167 -9.83301 -21.5 -16.5s-17.333 -14.334 -24 -23.001l-149 -192l-34.5 -46.5l-26.5 -36l-18.5 -24.5
c-6.33301 -8 -10.666 -14 -12.999 -18s-4.83301 -7.83301 -7.5 -11.5s-4.16699 -7.16699 -4.5 -10.5s-0.666016 -6.16602 -0.999023 -8.49902s-0.5 -5.83301 -0.5 -10.5v-199c0 -10 3.66699 -16.167 11 -18.5s27.666 -4.16602 60.999 -5.49902
c16.667 -0.666992 30 -1.33398 40 -2.00098c15.333 -0.666992 23 -8.66699 23 -24v-9c0 -12.667 -5.66699 -19 -17 -19l-21 2c-13.333 0.666992 -31.5 1.5 -54.5 2.5s-45.833 1.5 -68.5 1.5c-14.667 0 -29.5 -0.166992 -44.5 -0.5s-28.167 -0.833008 -39.5 -1.5
s-21.5 -1.33398 -30.5 -2.00098s-16.167 -1.16699 -21.5 -1.5s-8.33301 -0.5 -9 -0.5c-17.333 0 -26 9.66699 -26 29c0 2.66699 0.166992 5.16699 0.5 7.5s0.666016 4.33301 0.999023 6s1.33301 3 3 4s3 1.83301 4 2.5s3 1.33398 6 2.00098s5.66699 1.16699 8 1.5
s5.66602 0.5 9.99902 0.5s8.66602 0.166992 12.999 0.5s9.66602 0.5 15.999 0.5s12.5 0.333008 18.5 1l4 1h5.5c0.333008 0 1.66602 0.166992 3.99902 0.5s3.83301 0.666016 4.5 0.999023s2 0.833008 4 1.5s3.16699 1.66699 3.5 3s1 2.66602 2 3.99902s1.66699 3 2 5
s0.5 4.33301 0.5 7v212c0 6 -0.666992 11.5 -2 16.5s-2.33301 8.5 -3 10.5s-3.16699 6.66699 -7.5 14s-7.5 12.333 -9.5 15l-163 262c-15.333 24 -23.666 37.333 -24.999 40c-6.66699 8.66699 -16.667 13.5 -30 14.5s-21.666 5.16699 -24.999 12.5
c-2.66699 4 -4 8.66699 -4 14c0 6 2.16699 11.333 6.5 16s10.833 7 19.5 7c2 0 7.83301 -0.333008 17.5 -1s23 -1.33398 40 -2.00098s35.5 -1 55.5 -1s38.333 0.333008 55 1s29.667 1.33398 39 2.00098s15 1 17 1c12.667 0 19 -7 19 -21
c0 -3.33301 -0.166992 -6.33301 -0.5 -9s-1 -5 -2 -7s-2 -3.66699 -3 -5s-2.83301 -2.5 -5.5 -3.5s-4.83398 -1.66699 -6.50098 -2s-4.66699 -0.833008 -9 -1.5s-8 -1 -11 -1s-7.5 -0.166992 -13.5 -0.5s-11.333 -0.833008 -16 -1.5c-18 -2 -27 -9.66699 -27 -23v-2
c0 -4.66699 16.333 -35 49 -91l97 -168c6 -10 10.667 -15 14 -15c1.33301 0 4 2 8 6c98.667 136 152.667 211.667 162 227c12 21.333 18 35.666 18 42.999c0 10.667 -3 17.5 -9 20.5s-17 4.83301 -33 5.5h-7z" />
    <glyph glyph-name="Z" unicode="Z" horiz-adv-x="644" 
d="M16 523c0 2.66699 0.664062 10.6709 1.99707 24.0039s2.83301 31.666 4.5 54.999s2.5 48.333 2.5 75v38c0 18.667 7 28 21 28c10.667 0 19.667 -8 27 -24c6 -18.667 24.667 -28 56 -28h446c16.667 0 25 -6 25 -18c0 -5.33301 -17.667 -31.333 -53 -78l-39 -51l-149 -187
c-75.333 -92 -129.666 -167.667 -162.999 -227c-4 -6 -6 -11 -6 -15c0 -10.667 6.16699 -17.5 18.5 -20.5s40.5 -5.83301 84.5 -8.5c32.667 -2 66 -3 100 -3h22c44.667 0 78 3.5 100 10.5s39 24.167 51 51.5c4 10.667 8.66699 30.167 14 58.5s9 44.5 11 48.5
c4.66699 6.66699 11 10 19 10c5.33301 0 10.833 -2.5 16.5 -7.5s8.5 -12.167 8.5 -21.5v-1c0 -12.667 -0.666992 -24.334 -2 -35.001s-3 -22.667 -5 -36s-3.66699 -25 -5 -35c-0.666992 -10 -1.5 -23.333 -2.5 -40s-2 -28.5 -3 -35.5s-2.66699 -15 -5 -24
s-5.83301 -15.5 -10.5 -19.5s-11 -6.33301 -19 -7h-536h-2c-19.333 0 -29 7.33301 -29 22c0 5.33301 3 11.666 9 18.999c136 192 280 372 432 540c9.33301 10.667 14 18 14 22c0 7.33301 -4.66699 11 -14 11h-331c-6 0 -11 -0.166992 -15 -0.5
s-7.83301 -1.16602 -11.5 -2.49902s-6.66699 -2.33301 -9 -3s-4.66602 -3 -6.99902 -7s-4.16602 -6.83301 -5.49902 -8.5s-3 -5.83398 -5 -12.501s-3.33301 -11.834 -4 -15.501s-2.33398 -10.5 -5.00098 -20.5s-4.66699 -18 -6 -24c-4 -14.667 -11 -22 -21 -22
c-5.33301 0 -10.166 2 -14.499 6s-6.5 10.333 -6.5 19z" />
    <glyph glyph-name="bracketleft" unicode="[" horiz-adv-x="387" 
d="M128 -159c0 -3.33301 1.33105 -4.99902 3.99805 -4.99902c0.666992 0 3.33398 1.5 8.00098 4.5s11.667 6.5 21 10.5s20 7 32 9c2.66699 0.666992 4 2.66699 4 6v799c0 3.33301 -2.16699 5.66602 -6.5 6.99902s-12 3.5 -23 6.5s-21.833 7.83301 -32.5 14.5
c-1.33301 1.33301 -2.66602 2 -3.99902 2c-2 0 -3 -1.66699 -3 -5v-849zM105.998 762.001c5.33301 0 12.8281 -3.00488 22.4951 -9.00488s22.834 -12.167 39.501 -18.5s36.334 -9.5 59.001 -9.5c20 0 39.833 2.5 59.5 7.5s35.5 10.167 47.5 15.5l17 7
c3.33301 0 6.33301 -2.16699 9 -6.5s4 -7.83301 4 -10.5c0 -4.66699 -4.66699 -12.167 -14 -22.5s-23.666 -20.666 -42.999 -30.999s-40 -15.5 -62 -15.5c-4 0 -6 -2.33301 -6 -7l1 -792c0 -4.66699 1.33301 -7.66699 4 -9s6.5 -2.16602 11.5 -2.49902
s13 -2.16602 24 -5.49902s22.5 -8.66602 34.5 -15.999c12.667 -8 23.834 -16.833 33.501 -26.5s14.5 -17.167 14.5 -22.5c0 -8.66699 -4 -13 -12 -13c-1.33301 0 -7.83301 3 -19.5 9s-28 12 -49 18s-42.833 9 -65.5 9c-20.667 0 -40 -2.16699 -58 -6.5
s-32 -8.66602 -42 -12.999s-16 -6.5 -18 -6.5c-10.667 0 -16 7.33301 -16 22v424c0 5.33301 -1.33301 8 -4 8c-0.666992 0 -3.66699 -1.83301 -9 -5.5s-10.666 -5.5 -15.999 -5.5c-19.333 0 -29 14 -29 42c0 24.667 9.66699 37 29 37c5.33301 0 10.5 -1.16699 15.5 -3.5
s7.83301 -3.5 8.5 -3.5c2.66699 0 4 2.33301 4 7v420c0 23.333 8.33301 35 25 35z" />
    <glyph glyph-name="backslash" unicode="\" horiz-adv-x="240" 
d="M238 -205c0 -6 -4.33301 -11.833 -13 -17.5s-15 -8.5 -19 -8.5c-7.33301 0 -11 3.66699 -11 11c-128 552.667 -192 829.334 -192 830.001c0 5.33301 4.16699 10.5 12.5 15.5s14.833 7.5 19.5 7.5c6.66699 0 11.667 -5.33301 15 -16
c27.333 -136.667 56.833 -272.834 88.5 -408.501s56.167 -237.5 73.5 -305.5s26 -104 26 -108z" />
    <glyph glyph-name="bracketright" unicode="]" horiz-adv-x="387" 
d="M259 -159l0.00195312 849c0 3.33301 -1 5 -3 5c-1.33301 0 -2.66602 -0.666992 -3.99902 -2c-7.33301 -4.66699 -14.5 -8.5 -21.5 -11.5s-12.833 -4.83301 -17.5 -5.5s-8.83398 -1.5 -12.501 -2.5s-6.33398 -2 -8.00098 -3s-2.5 -2.83301 -2.5 -5.5v-799
c0 -3.33301 1.66699 -5.33301 5 -6c12 -2 22.667 -5 32 -9s16.166 -7.5 20.499 -10.5s6.83301 -4.5 7.5 -4.5c2.66699 0 4 1.66699 4 5zM281.002 762c16.667 0 24.9971 -11.6621 24.9971 -34.9951v-420c0 -4.66699 1.33301 -7 4 -7c0.666992 0 3.5 1.16699 8.5 3.5
s10.167 3.5 15.5 3.5c20 0 30 -12.333 30 -37c0 -28 -10 -42 -30 -42c-5.33301 0 -10.666 1.83301 -15.999 5.5s-8.33301 5.5 -9 5.5c-2.66699 0 -4 -2.66699 -4 -8v-424c0 -14.667 -5.33301 -22 -16 -22c-2 0 -8 2.16699 -18 6.5s-24 8.66602 -42 12.999
s-37.333 6.5 -58 6.5c-22.667 0 -44.5 -3 -65.5 -9s-37.333 -12 -49 -18s-18.167 -9 -19.5 -9c-8 0 -12 4.33301 -12 13c0 5.33301 4.83301 12.833 14.5 22.5s20.834 18.5 33.501 26.5c12 7.33301 23.5 12.666 34.5 15.999s19 5.16602 24 5.49902
s8.83301 1.16602 11.5 2.49902s4 4.33301 4 9l1 792c0 4.66699 -2 7 -6 7c-22 0 -42.667 5.16699 -62 15.5s-33.5 20.666 -42.5 30.999s-13.5 17.833 -13.5 22.5c0 3.33301 1.16699 7 3.5 11s5.16602 6 8.49902 6l18 -7c11.333 -5.33301 26.833 -10.5 46.5 -15.5
s39.5 -7.5 59.5 -7.5c22.667 0 42.334 3.16699 59.001 9.5s29.834 12.5 39.501 18.5s17.167 9 22.5 9z" />
    <glyph glyph-name="asciicircum" unicode="^" horiz-adv-x="433" 
d="M75 473c-6.66699 0 -12.168 2.33203 -16.501 6.99902s-6.5 10 -6.5 16c0 5.33301 2.33301 12 7 20c73.333 124 113 190 119 198c6 7.33301 13 12.666 21 15.999c4.66699 2 9.66699 3 15 3c3.33301 0 6.33301 -0.5 9 -1.5s5.16699 -2 7.5 -3s4.83301 -2.66699 7.5 -5
s4.83398 -4.16602 6.50098 -5.49902s3.83398 -3.66602 6.50098 -6.99902s4.33398 -5.5 5.00098 -6.5l4.5 -7c2.33301 -3.66699 3.83301 -5.83398 4.5 -6.50098l71 -113c30.667 -48 46 -75.667 46 -83c0 -6.66699 -2.5 -12.334 -7.5 -17.001s-10.833 -7 -17.5 -7
c-3.33301 0 -6.83301 0.833008 -10.5 2.5s-6.83398 3.33398 -9.50098 5.00098s-5.66699 4.33398 -9 8.00098s-5.83301 6.5 -7.5 8.5l-8 10c-3.66699 4.66699 -5.83398 7.66699 -6.50098 9c-54 68.667 -81.333 103.667 -82 105c-2 1.33301 -4.33301 2 -7 2h-1
c-3.33301 -0.666992 -12.333 -9.66699 -27 -27c-4 -5.33301 -12.667 -16 -26 -32l-40 -50c-2 -2 -4.66699 -5.16699 -8 -9.5s-6 -7.5 -8 -9.5l-7.5 -7.5c-3 -3 -5.5 -5.33301 -7.5 -7s-4.5 -3 -7.5 -4s-6.16699 -1.5 -9.5 -1.5z" />
    <glyph glyph-name="underscore" unicode="_" horiz-adv-x="539" 
d="M28 -51v4c0 16.667 4.66699 25 14 25h457c9.33301 0 14 -8.33301 14 -25v-2c0 -19.333 -4.66699 -29 -14 -29h-457c-9.33301 0 -14 9 -14 27z" />
    <glyph glyph-name="grave" unicode="`" 
d="M8 680c0 11.333 3.83203 20.501 11.499 27.501s16.5 10.5 26.5 10.5h1c18.667 0 37.334 -14.333 56.001 -43l70 -104c25.333 -37.333 38 -59 38 -65c0 -5.33301 -2 -10.166 -6 -14.499s-8.66699 -6.5 -14 -6.5h-2c-4.66699 0 -9.5 2.16699 -14.5 6.5
s-24.5 24.166 -58.5 59.499l-82 83c-17.333 17.333 -26 32.666 -26 45.999z" />
    <glyph glyph-name="a" unicode="a" horiz-adv-x="433" 
d="M30 353c0 20 16.165 40.1689 48.498 60.502s68.5 30.5 108.5 30.5c12.667 0 25.667 -1.33301 39 -4s28.5 -7.33398 45.5 -14.001s31.333 -18.167 43 -34.5s18.834 -36.166 21.501 -59.499c1.33301 -16 2 -28.333 2 -37v-202c0 -12 2.33301 -21.667 7 -29
s9.33398 -11.833 14.001 -13.5s9.33398 -2.5 14.001 -2.5c9.33301 0 16.666 2.83301 21.999 8.5s9.5 11.334 12.5 17.001s6.5 8.5 10.5 8.5c6 0 9 -4.33301 9 -13c0 -16 -7.33301 -33.5 -22 -52.5s-33.667 -28.5 -57 -28.5c-8.66699 0 -17 1.33301 -25 4
s-14.667 6.16699 -20 10.5s-10.166 8.5 -14.499 12.5s-7.83301 7.66699 -10.5 11l-3 4c-0.666992 0 -1 0.166992 -1 0.5s-0.333008 0.5 -1 0.5c-1.33301 0 -2.33301 -0.666992 -3 -2s-3 -4 -7 -8s-9.66699 -8.33301 -17 -13c-30 -18.667 -61.667 -28 -95 -28
c-34.667 0 -62.834 11 -84.501 33s-32.5 49 -32.5 81v1c0 38.667 14.333 69 43 91c10 8 23 15.167 39 21.5s31.833 11.166 47.5 14.499s30.5 6.16602 44.5 8.49902s25.667 3.83301 35 4.5l14 1c5.33301 1.33301 8 6 8 14v37c0 35.333 -8 62.666 -24 81.999
c-16.667 18 -36.667 27 -60 27c-36 0 -65.333 -22.667 -88 -68c-6 -8 -13.333 -12 -22 -12c-10.667 0 -20.167 3.33301 -28.5 10s-12.5 15.667 -12.5 27zM174.998 36.002c15.333 0 29.834 3.33203 43.501 9.99902s23.167 12.667 28.5 18s9.66602 10 12.999 14
c4 5.33301 6 13 6 23v25v42c0 12.667 -0.5 20.834 -1.5 24.501s-3.83301 5.5 -8.5 5.5c-16.667 0 -37.5 -2.66699 -62.5 -8s-44.833 -15 -59.5 -29c-16 -13.333 -24 -32 -24 -56c0 -25.333 7 -44 21 -56c9.33301 -8.66699 24 -13 44 -13z" />
    <glyph glyph-name="b" unicode="b" horiz-adv-x="497" 
d="M145 404c0 -4 1.66797 -5.99707 5.00098 -5.99707c1.33301 0 7.66602 3.5 18.999 10.5s27.833 14 49.5 21s45.167 10.5 70.5 10.5c60 0 108.167 -20.833 144.5 -62.5s54.5 -96.167 54.5 -163.5c0 -26 -3 -51.167 -9 -75.5s-19.833 -50 -41.5 -77
s-50.167 -47.167 -85.5 -60.5c-36 -13.333 -74 -20 -114 -20c-18 0 -37 3.16699 -57 9.5s-34.333 9.5 -43 9.5c-12 0 -22.667 -3.66699 -32 -11s-15.666 -11 -18.999 -11c-10.667 0 -16 10.333 -16 31c0 40 0.5 139.833 1.5 299.5s1.5 259.5 1.5 299.5
c0 9.33301 -4.33301 17 -13 23c-4.66699 2.66699 -9.33398 5.5 -14.001 8.5s-8.5 5.33301 -11.5 7l-9.5 5.5c-3.33301 2 -5.83301 3.66699 -7.5 5s-3.5 2.66602 -5.5 3.99902l-4.5 3c-1 0.666992 -1.83301 1.5 -2.5 2.5s-1.16699 2 -1.5 3s-0.5 1.83301 -0.5 2.5
c0 5.33301 4.33301 9.66602 13 12.999c75.333 30 114.333 45 117 45c9.33301 -1.33301 14 -8 14 -20c0 -22.667 -0.5 -77.334 -1.5 -164.001s-1.5 -134 -1.5 -142zM424.001 197.003c0 55.333 -17 100.67 -51 136.003s-74 53 -120 53c-24 0 -48.5 -5.66699 -73.5 -17
s-37.5 -22.333 -37.5 -33v-262c0 -0.666992 -0.166992 -1.83398 -0.5 -3.50098s-0.5 -2.83398 -0.5 -3.50098c0 -12.667 5 -21 15 -25c32 -12.667 63.333 -19 94 -19c52 0 94 16.167 126 48.5s48 74.166 48 125.499z" />
    <glyph glyph-name="c" unicode="c" horiz-adv-x="390" 
d="M214 -18c-58.667 0 -106.168 20.668 -142.501 62.001s-54.5 94 -54.5 158c0 70 20.333 126.833 61 170.5s93.667 65.5 159 65.5c36 0 66.667 -7.66699 92 -23s38 -33 38 -53c0 -11.333 -4 -20.5 -12 -27.5s-17.667 -10.5 -29 -10.5
c-14.667 0 -33.834 10.167 -57.501 30.5s-45.834 30.5 -66.501 30.5c-31.333 0 -58.666 -15.667 -81.999 -47s-35 -68.333 -35 -111c0 -48.667 15.5 -90.834 46.5 -126.501s69.5 -53.5 115.5 -53.5c18 0 34.5 2.83301 49.5 8.5s26.333 12 34 19s15.334 13.333 23.001 19
s13.834 8.5 18.501 8.5s8.66699 -1.66699 12 -5s5 -7.33301 5 -12c0 -5.33301 -2 -10.666 -6 -15.999c-18 -24.667 -41.667 -45.334 -71 -62.001s-62 -25 -98 -25z" />
    <glyph glyph-name="d" unicode="d" horiz-adv-x="505" 
d="M244 392c-50.667 0 -89.668 -15.333 -117.001 -46s-41 -72.334 -41 -125.001c0 -58 19.333 -104 58 -138s78.667 -51 120 -51c20.667 0 40.834 4.16699 60.501 12.5s31.5 18.833 35.5 31.5c2.66699 10.667 4 18.334 4 23.001v230c0 8.66699 -3.66699 16.667 -11 24
c-28 26 -64.333 39 -109 39zM245.999 433c20 0 38.6729 -1.16211 56.0059 -3.49512s30.666 -4.83301 39.999 -7.5l14 -4c5.33301 0 8 3 8 9v172c0 2 -0.166992 3.83301 -0.5 5.5s-0.666016 3.16699 -0.999023 4.5s-1 2.66602 -2 3.99902s-1.83301 2.33301 -2.5 3
s-2.16699 1.66699 -4.5 3l-6 3.5c-1.66699 1 -4.33398 2.16699 -8.00098 3.5s-7 2.66602 -10 3.99902s-7.16699 3 -12.5 5s-10.333 4 -15 6c-12.667 3.33301 -19 8.66602 -19 15.999c0 4 3 8 9 12c85.333 41.333 129.333 62 132 62c8 0 12 -4.66699 12 -14
c0 -6.66699 -0.333008 -24.167 -1 -52.5s-1.16699 -67.333 -1.5 -117s-0.5 -103.834 -0.5 -162.501c0 -182.667 1 -283 3 -301c0 -2 0.166992 -3.5 0.5 -4.5s0.833008 -2 1.5 -3s1.5 -1.83301 2.5 -2.5s2.33301 -1.16699 4 -1.5s3.16699 -0.666016 4.5 -0.999023
s3.5 -0.5 6.5 -0.5h8c2.33301 0 5.5 -0.166992 9.5 -0.5s7.66699 -0.5 11 -0.5c13.333 0 20 -5 20 -15c0 -4.66699 -1.83301 -8.33398 -5.5 -11.001s-11.334 -6.5 -23.001 -11.5s-22.5 -10.5 -32.5 -16.5c-13.333 -7.33301 -25.333 -14.833 -36 -22.5
s-18.334 -13.334 -23.001 -17.001s-8.33398 -5.5 -11.001 -5.5c-5.33301 0 -8 3.66699 -8 11v33c0 2 -1 3 -3 3l-6 -4c-3.33301 -2.66699 -8.33301 -6 -15 -10s-14.5 -8 -23.5 -12s-20.333 -7.33301 -34 -10s-27.834 -4 -42.501 -4c-66 0 -119.833 22.5 -161.5 67.5
s-62.5 100.5 -62.5 166.5c0 59.333 19.167 111 57.5 155s95.166 66 170.499 66h1z" />
    <glyph glyph-name="e" unicode="e" horiz-adv-x="418" 
d="M23 211c0 69.333 18.3281 125.001 54.9951 167.001s81.334 63 134.001 63c34 0 66.667 -9.33301 98 -28s57.333 -42 78 -70c5.33301 -6.66699 8 -14 8 -22v-2c0 -6 -1.66699 -11.333 -5 -16s-8.66602 -8.83398 -15.999 -12.501s-13.666 -6.5 -18.999 -8.5
s-13.166 -4.66699 -23.499 -8s-16.833 -5.33301 -19.5 -6c-139.333 -48 -210.666 -73 -213.999 -75c-2.66699 -1.33301 -4 -3.33301 -4 -6c0 -4 1 -10.667 3 -20s6.5 -21.666 13.5 -36.999s15.667 -29.5 26 -42.5s25.166 -24.333 44.499 -34s41 -14.5 65 -14.5
c46.667 0 87.334 16.667 122.001 50c9.33301 9.33301 17 14 23 14c11.333 0 17 -5 17 -15c0 -4 -2.66699 -9.33301 -8 -16c-21.333 -28 -48 -50.167 -80 -66.5s-65.667 -24.5 -101 -24.5c-22.667 0 -44.834 4 -66.501 12s-42.667 20.333 -63 37s-36.666 40.667 -48.999 72
s-18.5 67.666 -18.5 108.999zM296.995 317.001c0 8.66699 -11.667 22.167 -35 40.5s-47.666 27.5 -72.999 27.5c-30 0 -53.833 -13 -71.5 -39s-26.5 -61.667 -26.5 -107c0 -5.33301 1.66699 -8 5 -8c1.33301 0 33.166 12.167 95.499 36.5s94.5 36.833 96.5 37.5
c6 3.33301 9 7.33301 9 12z" />
    <glyph glyph-name="f" unicode="f" horiz-adv-x="299" 
d="M34 -6c-10.667 0 -16.0029 8.32715 -16.0029 24.9941c0 6.66699 2.16699 11 6.5 13s13.833 4 28.5 6c6 0.666992 10.667 1.33398 14 2.00098c2 0 3.83301 0.333008 5.5 1s3 1.66699 4 3s1.83301 2.33301 2.5 3s1.16699 2 1.5 4s0.5 3.33301 0.5 4
s0.166992 2.33398 0.5 5.00098s0.5 4.33398 0.5 5.00098c2.66699 34.667 4 132.334 4 293.001c0 4.66699 -2 7.66699 -6 9s-13.667 2 -29 2h-19c-14.667 0 -22 6 -22 18c0 20.667 7.33301 31 22 31c8.66699 0.666992 18.667 1 30 1c10.667 0 17 0.333008 19 1
s3 3.33398 3 8.00098v1c2 83.333 16.667 149 44 197c19.333 33.333 47.166 60.166 83.499 80.499s70.833 30.5 103.5 30.5c24.667 0 43.167 -5.5 55.5 -16.5s18.5 -23.167 18.5 -36.5c0 -10.667 -3.83301 -20 -11.5 -28s-18.167 -12 -31.5 -12
c-9.33301 0 -23.166 4.16699 -41.499 12.5s-32.833 12.5 -43.5 12.5c-34.667 0 -60.834 -21 -78.501 -63s-26.5 -95.333 -26.5 -160v-9c0 -6.66699 0.5 -11 1.5 -13s3.83301 -3 8.5 -3h100c15.333 0 23 -7 23 -21v-1c0 -20.667 -9 -31 -27 -31h-96c-6 0 -9 -3 -9 -9v-293v-4
c0 -15.333 6.66699 -23.333 20 -24c5.33301 -0.666992 11.333 -1.16699 18 -1.5s11.5 -0.5 14.5 -0.5s6.33301 -0.166992 10 -0.5s6.33398 -1 8.00098 -2s3.33398 -2.16699 5.00098 -3.5s2.66699 -3.16602 3 -5.49902s0.5 -5.16602 0.5 -8.49902
c0 -14.667 -5.66699 -22 -17 -22c-0.666992 0 -2.66699 0.166992 -6 0.5s-7.83301 0.833008 -13.5 1.5s-12.167 1.33398 -19.5 2.00098s-15.666 1.16699 -24.999 1.5s-18.666 0.5 -27.999 0.5s-18.833 -0.166992 -28.5 -0.5s-18 -0.833008 -25 -1.5
s-13.5 -1.33398 -19.5 -2.00098s-10.667 -1.16699 -14 -1.5s-5.33301 -0.5 -6 -0.5z" />
    <glyph glyph-name="g" unicode="g" horiz-adv-x="450" 
d="M191 409c-26 0 -47.334 -10.5 -64.001 -31.5s-25 -48.167 -25 -81.5c0 -39.333 10 -73.333 30 -102s45.333 -43 76 -43c27.333 0 49.333 10.833 66 32.5s25 48.5 25 80.5c0 38 -10.167 71.667 -30.5 101s-46.166 44 -77.499 44zM84.999 -90
c0 -30 15.834 -54.332 47.501 -72.999s71.5 -28 119.5 -28c47.333 0 80.833 7.5 100.5 22.5s29.5 32.167 29.5 51.5c0 28 -13.667 48.333 -41 61c-14 7.33301 -30.333 12.166 -49 14.499s-44.834 4 -78.501 5s-63.167 2.83301 -88.5 5.5h-3
c-4.66699 0 -10.667 -3.66699 -18 -11c-12.667 -12.667 -19 -28.667 -19 -48zM23 284.001c0 43.333 15.832 80.665 47.499 111.998s70.834 47 117.501 47c28.667 0 56.5 -6 83.5 -18s42.167 -18 45.5 -18c21.333 0 39.333 10.667 54 32c10 16 19.667 24 29 24
s18.166 -4.5 26.499 -13.5s12.5 -18.5 12.5 -28.5c0 -12 -5.16699 -22.333 -15.5 -31s-22.333 -15.834 -36 -21.501s-20.834 -8.83398 -21.501 -9.50098c-3.33301 -3.33301 -5 -6 -5 -8c0 -1.33301 1 -4.66602 3 -9.99902s4 -12.833 6 -22.5s3 -20.167 3 -31.5
c0 -47.333 -16.5 -87.833 -49.5 -121.5s-73.167 -50.5 -120.5 -50.5c-13.333 0 -26 1.5 -38 4.5s-19.333 4.5 -22 4.5c-9.33301 0 -19.333 -5.83301 -30 -17.5s-16 -23.167 -16 -34.5c0 -18 14.5 -30 43.5 -36s66 -9.66699 111 -11s77.167 -5 96.5 -11
c30.667 -8.66699 53.834 -23.5 69.501 -44.5s23.5 -43.833 23.5 -68.5c0 -15.333 -3.33301 -30.666 -10 -45.999s-17.5 -30.333 -32.5 -45s-37.167 -26.667 -66.5 -36s-64 -14 -104 -14c-74 0 -125.833 13.5 -155.5 40.5s-44.5 56.5 -44.5 88.5
c0 6.66699 0.666992 13.167 2 19.5s3 12 5 17s4.16699 9.66699 6.5 14s5 8.33301 8 12s6 6.83398 9 9.50098s5.83301 5 8.5 7s5 3.83301 7 5.5s3.66699 2.83398 5 3.50098l2 1c1.33301 1.33301 2 3 2 5c0 0.666992 -3.16699 3 -9.5 7s-12.666 10.667 -18.999 20
s-9.5 20.666 -9.5 33.999c0 32.667 19 64.334 57 95.001l1 1c0.666992 0.666992 1 1.66699 1 3c0 2.66699 -3 5.66699 -9 9s-14.167 9.83301 -24.5 19.5s-19.833 22.167 -28.5 37.5c-12.667 22.667 -19 47.667 -19 75z" />
    <glyph glyph-name="h" unicode="h" horiz-adv-x="526" 
d="M300 8l-0.00292969 7.00098c0 3.33301 0.166992 6 0.5 8s1.33301 3.83301 3 5.5s3.33398 2.83398 5.00098 3.50098s4.33398 1.33398 8.00098 2.00098s7 1.16699 10 1.5l14 1.5c6.33301 0.666992 12.166 1.33398 17.499 2.00098c10 1.33301 16 6.66602 18 15.999
s3 33.666 3 72.999c0 66.667 -4.16699 114.834 -12.5 144.501s-20.5 53.167 -36.5 70.5c-24.667 24.667 -52.334 37 -83.001 37c-20.667 0 -40 -5.5 -58 -16.5s-28.333 -22.167 -31 -33.5c-0.666992 -2.66699 -1 -7.33398 -1 -14.001c0 -164 0.666992 -248.333 2 -253
c2 -10 7.16699 -17 15.5 -21s17 -5.83301 26 -5.5s17.167 -1.16699 24.5 -4.5s11 -9 11 -17c0 -14 -4 -21 -12 -21c-0.666992 0 -2.66699 0.166992 -6 0.5s-8 0.833008 -14 1.5s-12.667 1.33398 -20 2.00098s-15.833 1.16699 -25.5 1.5s-19.167 0.5 -28.5 0.5
c-10 0 -19.833 -0.166992 -29.5 -0.5s-18.334 -0.833008 -26.001 -1.5s-14.5 -1.33398 -20.5 -2.00098s-10.667 -1.16699 -14 -1.5s-5.33301 -0.5 -6 -0.5c-8 0 -12 6.66699 -12 20c0 8 2 13 6 15s14.333 4.66699 31 8c7.33301 1.33301 13 4.16602 17 8.49902
s6.16699 8 6.5 11s0.833008 8.16699 1.5 15.5c3.33301 103.333 5 197 5 281v4c0 151.333 -1.33301 235 -4 251c-1.33301 8.66699 -13.833 15.667 -37.5 21s-35.5 12.666 -35.5 21.999c0 7.33301 5.66699 14 17 20c75.333 43.333 114.333 65 117 65h1
c10.667 0 16 -6.33301 16 -19l-1 -316c0 -4.66699 1.66699 -7 5 -7c0.666992 0 6.33398 3.16699 17.001 9.5s25.5 12.666 44.5 18.999s38.833 9.5 59.5 9.5c64 0 109.667 -31 137 -93c10.667 -25.333 17.834 -53.833 21.501 -85.5s6.5 -93.5 8.5 -185.5
c0 -9.33301 1.66699 -16.333 5 -21s7 -7.5 11 -8.5s11.333 -2.16699 22 -3.5c11.333 -1.33301 17 -7.66602 17 -18.999c0 -14.667 -4.33301 -22 -13 -22c-0.666992 0 -2.66699 0.166992 -6 0.5s-8 0.833008 -14 1.5s-12.5 1.33398 -19.5 2.00098s-15.5 1.16699 -25.5 1.5
s-19.667 0.5 -29 0.5s-18.666 -0.166992 -27.999 -0.5s-17.666 -0.833008 -24.999 -1.5s-13.833 -1.33398 -19.5 -2.00098s-10.167 -1.16699 -13.5 -1.5s-5.33301 -0.5 -6 -0.5c-7.33301 0 -11 4.66699 -11 14z" />
    <glyph glyph-name="i" unicode="i" horiz-adv-x="248" 
d="M96 124l0.000976562 96.999c0 30 0.166992 53.5 0.5 70.5s0.5 27.167 0.5 30.5c0 7.33301 -2.5 12.5 -7.5 15.5s-25.5 11.833 -61.5 26.5c-8.66699 3.33301 -13 7.66602 -13 12.999c0 2 0.5 4 1.5 6s2.66699 3.66699 5 5s4.5 2.5 6.5 3.5s4.66699 2.16699 8 3.5
s5.66602 2.33301 6.99902 3c74.667 36 112.334 54 113.001 54h1c9.33301 0 14 -5.66699 14 -17l-1 -33c-1.33301 -22 -2.5 -51.5 -3.5 -88.5s-1.5 -73.833 -1.5 -110.5v-34c0 -63.333 1 -100.666 3 -111.999s8.66699 -17.666 20 -18.999c20 -2.66699 32.667 -5 38 -7
s8 -7 8 -15c0 -14.667 -4 -22 -12 -22c-0.666992 0 -2.66699 0.166992 -6 0.5s-8 0.833008 -14 1.5s-12.667 1.33398 -20 2.00098s-15.833 1.16699 -25.5 1.5s-19.167 0.5 -28.5 0.5s-19 -0.166992 -29 -0.5s-18.5 -0.833008 -25.5 -1.5s-13.5 -1.33398 -19.5 -2.00098
s-10.667 -1.16699 -14 -1.5s-5.33301 -0.5 -6 -0.5c-10.667 0 -16 5.66699 -16 17s2.16699 18 6.5 20s19.166 4.66699 44.499 8c12 2 19.5 5.83301 22.5 11.5s4.5 14.167 4.5 25.5v48zM106.001 632.999c0 13.333 5 24.667 15 34s21.667 14 35 14s24.833 -4.66699 34.5 -14
s14.5 -20.333 14.5 -33c0 -14 -4.83301 -25.667 -14.5 -35s-21.5 -14 -35.5 -14s-25.667 4.5 -35 13.5s-14 20.5 -14 34.5z" />
    <glyph glyph-name="j" unicode="j" horiz-adv-x="237" 
d="M96 104c0 38 0.165039 73.3311 0.498047 105.998s0.666016 58.5 0.999023 77.5s0.5 30.5 0.5 34.5c0 3.33301 -0.166992 6 -0.5 8s-0.666016 3.83301 -0.999023 5.5s-1.5 3.5 -3.5 5.5l-5 5c-1.33301 1.33301 -4 3.16602 -8 5.49902s-7.5 4.5 -10.5 6.5
s-7.83301 5 -14.5 9l-18 11c-6 2.66699 -9 6.66699 -9 12c0 4.66699 4.16699 9 12.5 13s45.166 20 110.499 48c2.66699 1.33301 5 2 7 2c6.66699 0 10 -5.66699 10 -17c0 -3.33301 -0.166992 -13.333 -0.5 -30s-0.666016 -39.667 -0.999023 -69s-0.5 -61.333 -0.5 -96
c0 -54 0.333008 -104.167 1 -150.5s1.33398 -82.666 2.00098 -108.999s1 -42.5 1 -48.5c0 -15.333 -5 -30.333 -15 -45c-9.33301 -13.333 -20.333 -27.5 -33 -42.5s-31.334 -32.5 -56.001 -52.5s-46 -30 -64 -30c-11.333 0 -20.666 3.33301 -27.999 10s-11 15 -11 25
c0 10.667 4 20.667 12 30s19 14 33 14c4 0 9.33301 -0.5 16 -1.5s11.667 -1.5 15 -1.5c5.33301 0 10.833 1 16.5 3s11.834 5.5 18.501 10.5s12.167 13.333 16.5 25s6.5 25.834 6.5 42.501c0 3.33301 -0.166992 12.833 -0.5 28.5s-0.5 37.334 -0.5 65.001v90.5z
M105.998 617.998c0 14 4.83301 25.667 14.5 35s21.5 14 35.5 14c13.333 0 24.833 -4.5 34.5 -13.5s14.5 -20.167 14.5 -33.5s-5 -24.833 -15 -34.5s-21.667 -14.5 -35 -14.5s-24.833 4.5 -34.5 13.5s-14.5 20.167 -14.5 33.5z" />
    <glyph glyph-name="k" unicode="k" horiz-adv-x="464" 
d="M229 12c0 8.66699 2.5 14.832 7.5 18.499s10.667 5.33398 17 5.00098s12 0.833984 17 3.50098s7.5 7.33398 7.5 14.001s-9 22.667 -27 48s-35.167 48.333 -51.5 69s-25.5 32 -27.5 34c0 1.33301 -1.33301 2 -4 2s-8 -4.33301 -16 -13s-12.333 -14.334 -13 -17.001
c-0.666992 -2 -1 -5.66699 -1 -11v-106c0 -9.33301 2.33301 -15 7 -17s18 -4.33301 40 -7c14.667 -3.33301 22 -10.666 22 -21.999s-4.66699 -17 -14 -17c-1.33301 0 -5.33301 0.333008 -12 1s-16 1.33398 -28 2.00098s-25 1 -39 1s-27 -0.333008 -39 -1
s-21.5 -1.33398 -28.5 -2.00098s-11.167 -1 -12.5 -1c-12 0 -18 6 -18 18c0 8 2.66699 13.5 8 16.5s11.166 4.5 17.499 4.5s12.333 1.66699 18 5s8.83398 9 9.50098 17v552c0 10.667 -4.33301 19 -13 25c-30 20.667 -45.667 31.667 -47 33l-4 8
c0 6.66699 7 12.334 21 17.001c64.667 28.667 98.334 43 101.001 43c7.33301 0 11 -5.66699 11 -17v-484c0 -2.66699 1 -4 3 -4c2.66699 0 4.66699 1.33301 6 4l30.5 30.5l24 24l17.5 17.5c6 6 10.5 10.667 13.5 14s5.83301 6.66602 8.5 9.99902
s4.33398 6.16602 5.00098 8.49902s1.33398 4.83301 2.00098 7.5s1 5.66699 1 9c0 11.333 -4.5 20.5 -13.5 27.5s-13.5 12.167 -13.5 15.5v11c0 8.66699 7.33301 13 22 13h59c20 0 38.5 0.333008 55.5 1s30.333 1.16699 40 1.5s15.5 0.5 17.5 0.5c10 0 15 -6.33301 15 -19
c0 -8 -1.66699 -13.333 -5 -16s-11.166 -4.66699 -23.499 -6s-22.5 -3 -30.5 -5c-14.667 -4 -30.334 -12 -47.001 -24s-30.334 -23.333 -41.001 -34l-61 -62c-4.66699 -4.66699 -7 -7.66699 -7 -9c0 -2.66699 39.667 -51.334 119 -146.001c12 -14 21.667 -24.833 29 -32.5
s17.833 -15.5 31.5 -23.5s28.167 -13 43.5 -15c11.333 -1.33301 17 -7.33301 17 -18c0 -14 -5.66699 -21 -17 -21c-0.666992 0 -2.83398 0.166992 -6.50098 0.5s-8.5 0.833008 -14.5 1.5s-12.833 1.33398 -20.5 2.00098s-16.5 1.16699 -26.5 1.5s-20 0.5 -30 0.5
s-20 -0.166992 -30 -0.5s-18.833 -0.833008 -26.5 -1.5s-14.5 -1.33398 -20.5 -2.00098s-10.833 -1.16699 -14.5 -1.5s-5.83398 -0.5 -6.50098 -0.5c-9.33301 0 -14 5.66699 -14 17v1z" />
    <glyph glyph-name="l" unicode="l" horiz-adv-x="244" 
d="M233 14c0 -13.333 -4.00391 -20.0029 -12.0039 -20.0029c-0.666992 0 -2.83398 0.166992 -6.50098 0.5s-8.5 0.833008 -14.5 1.5s-12.667 1.33398 -20 2.00098s-16 1.16699 -26 1.5s-19.667 0.5 -29 0.5s-18.666 -0.166992 -27.999 -0.5
s-17.666 -0.666016 -24.999 -0.999023s-13.833 -0.833008 -19.5 -1.5s-10.167 -1.16699 -13.5 -1.5s-5.33301 -0.5 -6 -0.5c-10 0 -15 6 -15 18v3c0 8.66699 2.16699 14.167 6.5 16.5s16.166 4.5 35.499 6.5c12 1.33301 19.833 5.16602 23.5 11.499s5.5 15.5 5.5 27.5v521
c0 2 -0.166992 3.83301 -0.5 5.5s-0.833008 3.16699 -1.5 4.5s-1.16699 2.5 -1.5 3.5s-1.33301 2 -3 3s-3 1.83301 -4 2.5s-3 1.83398 -6 3.50098s-5.16699 2.83398 -6.5 3.50098l-21.5 12.5c-7.66699 4.33301 -13 7.5 -16 9.5l-9.5 6.5
c-3.33301 2.33301 -5.5 4.33301 -6.5 6s-1.5 3.5 -1.5 5.5v1c0 3.33301 12.667 11.666 38 24.999l88 45c4 2.66699 8.33301 4 13 4c9.33301 0 14 -6.33301 14 -19v-648c0 -4 0.166992 -7.33301 0.5 -10s0.833008 -5.16699 1.5 -7.5s1.33398 -4.16602 2.00098 -5.49902
s2.16699 -2.66602 4.5 -3.99902s4 -2.33301 5 -3s3.33301 -1.5 7 -2.5s6.33398 -1.66699 8.00098 -2s5.33398 -0.833008 11.001 -1.5s9.83398 -1.33398 12.501 -2.00098c11.333 -2 17 -9 17 -21z" />
    <glyph glyph-name="m" unicode="m" horiz-adv-x="740" 
d="M145 387c0.666992 0 5.99805 3.83301 15.998 11.5s23.833 15.167 41.5 22.5s35.5 11 53.5 11c9.33301 0 18.333 -1 27 -3s16.667 -4.66699 24 -8s14.166 -7 20.499 -11s11.833 -8 16.5 -12l12 -10.5c3.33301 -3 6 -5.5 8 -7.5l3 -4c0.666992 -0.666992 2 -1 4 -1
s3.66699 0.333008 5 1s2.83301 1.83398 4.5 3.50098s5.5 4.5 11.5 8.5l22 14c34 20 67 30 99 30c30 0 57.667 -8.83301 83 -26.5s43.666 -45.834 54.999 -84.501c8 -28.667 12 -68.667 12 -120v-130c0 -4.66699 0.166992 -8.66699 0.5 -12s1.33301 -6.16602 3 -8.49902
s2.83398 -4.16602 3.50098 -5.49902s2.83398 -2.66602 6.50098 -3.99902s6.33398 -2.16602 8.00098 -2.49902l12.5 -2.5l15 -3c9.33301 -1.33301 14 -7.66602 14 -18.999c0 -13.333 -5 -20 -15 -20c-1.33301 0 -5.66602 0.5 -12.999 1.5s-17.666 2 -30.999 3
s-27.333 1.5 -42 1.5c-15.333 0 -29.5 -0.5 -42.5 -1.5s-23.333 -2 -31 -3s-12.167 -1.5 -13.5 -1.5c-4 0 -7.83301 1.33301 -11.5 4s-5.5 7 -5.5 13c0 9.33301 2.16699 15 6.5 17s18.166 5.33301 41.499 10c14 2 21 11.333 21 28v142c0 74.667 -14 124.334 -42 149.001
c-19.333 15.333 -40.666 23 -63.999 23c-20.667 0 -41.334 -5.66699 -62.001 -17s-31 -21.333 -31 -30l1 -3c0 -2 0.333008 -5 1 -9s1.33398 -8.66699 2.00098 -14s1.16699 -11.833 1.5 -19.5s0.5 -15.5 0.5 -23.5v-197c0 -0.666992 -0.166992 -2 -0.5 -4
s-0.5 -3.66699 -0.5 -5v-1c0 -11.333 11.667 -18 35 -20c6 -0.666992 11 -1.33398 15 -2.00098c13.333 -2 20 -8.66699 20 -20c0 -14 -4.33301 -21 -13 -21c-0.666992 0 -2.83398 0.166992 -6.50098 0.5s-8.5 0.833008 -14.5 1.5s-12.667 1.33398 -20 2.00098
s-16 1.16699 -26 1.5s-19.667 0.5 -29 0.5s-19 -0.166992 -29 -0.5s-18.667 -0.833008 -26 -1.5s-14 -1.33398 -20 -2.00098s-10.667 -1.33398 -14 -2.00098h-6c-9.33301 0 -14 7.33301 -14 22c0 9.33301 12.667 15.666 38 18.999c7.33301 1.33301 13 2.33301 17 3
c11.333 2 18.666 5.66699 21.999 11s5 14.666 5 27.999v189c0 42.667 -11 72.334 -33 89.001s-46 25 -72 25c-19.333 0 -36 -4.5 -50 -13.5s-23.333 -17.833 -28 -26.5c-2.66699 -6.66699 -4 -15.667 -4 -27v-246c0 -3.33301 0.166992 -6.16602 0.5 -8.49902
s0.666016 -4.33301 0.999023 -6s1 -3.33398 2 -5.00098s1.83301 -3 2.5 -4s2.16699 -1.83301 4.5 -2.5s4.16602 -1.33398 5.49902 -2.00098s3.83301 -1.33398 7.5 -2.00098s6.5 -1.16699 8.5 -1.5s5.5 -0.833008 10.5 -1.5s9.16699 -1.33398 12.5 -2.00098
c9.33301 -1.33301 14 -8.66602 14 -21.999c0 -10.667 -4.33301 -16 -13 -16l-13 2c-8 0.666992 -18.833 1.5 -32.5 2.5s-27.5 1.5 -41.5 1.5c-13.333 0 -25.666 -0.333008 -36.999 -1s-20.166 -1.33398 -26.499 -2.00098s-10.166 -1 -11.499 -1
c-9.33301 0 -14 6.66699 -14 20c0 7.33301 2.83301 12.333 8.5 15s11.834 4 18.501 4s13.167 2 19.5 6s9.83301 10.667 10.5 20v254c0 8.66699 -1.5 15 -4.5 19s-11.5 11.333 -25.5 22l-11 8c-6 4 -9 8 -9 12c0 3.33301 1.66699 6.5 5 9.5s13.333 9.5 30 19.5l48 30
c11.333 6 17.666 9 18.999 9c6 0 9 -4 9 -12v-39c0 -4 1.33301 -6 4 -6z" />
    <glyph glyph-name="n" unicode="n" horiz-adv-x="510" 
d="M144 386c0 -2.66699 0.993164 -3.99219 2.99316 -3.99219h1c0.666992 0 3.16699 2 7.5 6s10.5 9 18.5 15s17.333 12 28 18s23.667 11.167 39 15.5s31.333 6.5 48 6.5h2c14 0 27.833 -1.83301 41.5 -5.5s28.334 -10.334 44.001 -20.001s28.834 -24.834 39.501 -45.501
s17.334 -46 20.001 -76c1.33301 -11.333 2 -28.666 2 -51.999v-19.5c0 -10.333 -0.166992 -28.833 -0.5 -55.5s-0.5 -60.667 -0.5 -102v-2c0 -3.33301 0.333008 -6.5 1 -9.5s1.16699 -5.33301 1.5 -7s1.5 -3.33398 3.5 -5.00098s3.5 -2.83398 4.5 -3.50098
s3.33301 -1.5 7 -2.5s6.33398 -1.5 8.00098 -1.5s5.33398 -0.333008 11.001 -1s9.83398 -1.33398 12.501 -2.00098c10 -1.33301 15 -7.66602 15 -18.999c0 -13.333 -5.33301 -20 -16 -20c-2 0 -6.66699 0.5 -14 1.5s-17.5 2 -30.5 3s-26.833 1.5 -41.5 1.5
c-8.66699 0 -17.334 -0.166992 -26.001 -0.5s-16.167 -0.833008 -22.5 -1.5s-12.166 -1.33398 -17.499 -2.00098s-9.66602 -1.33398 -12.999 -2.00098h-5c-9.33301 0 -14 6.66699 -14 20c0 7.33301 2 12 6 14s14.667 4.33301 32 7c6 1.33301 11 2.33301 15 3
c6.66699 1.33301 11.167 3.5 13.5 6.5s3.5 8.83301 3.5 17.5v159c0 50 -4.66699 87 -14 111c-10 22.667 -25 38.5 -45 47.5s-39 13.5 -57 13.5c-26 0 -49.333 -8 -70 -24s-32.334 -30 -35.001 -42c-1.33301 -5.33301 -2 -10 -2 -14v-242v-3c0 -17.333 7.66699 -27 23 -29
c30 -4.66699 46.333 -8.33398 49 -11.001c4 -3.33301 6 -9 6 -17c0 -12 -4.33301 -18 -13 -18c-0.666992 0 -2.83398 0.166992 -6.50098 0.5s-8.5 0.833008 -14.5 1.5s-12.667 1.5 -20 2.5s-15.833 1.66699 -25.5 2s-19.167 0.5 -28.5 0.5s-18.666 -0.166992 -27.999 -0.5
s-17.5 -0.833008 -24.5 -1.5s-13.167 -1.33398 -18.5 -2.00098s-9.66602 -1.16699 -12.999 -1.5s-5.33301 -0.5 -6 -0.5c-11.333 0 -17 6 -17 18c0 9.33301 2.16699 15.166 6.5 17.499s15.5 4.83301 33.5 7.5c12 2 19.5 5.66699 22.5 11s4.5 13.333 4.5 24v244
c0 12 -1.66699 20.167 -5 24.5s-17 15.5 -41 33.5c-4 4 -6 7.33301 -6 10v1c0 3.33301 2.33301 6.5 7 9.5s19 10.833 43 23.5l47 25c4 2.66699 7.33301 4 10 4c8 0 12 -5 12 -15v-40c0 -0.666992 -0.333008 -2 -1 -4v-2z" />
    <glyph glyph-name="o" unicode="o" horiz-adv-x="478" 
d="M22 209c0 68.667 21.833 124.667 65.5 168s95.5 65 155.5 65c61.333 0 112.333 -21.833 153 -65.5s61 -99.5 61 -167.5c0 -70 -21.167 -125.5 -63.5 -166.5s-93.833 -61.5 -154.5 -61.5c-64 0 -116.167 22 -156.5 66s-60.5 98 -60.5 162zM242 31
c42 0 76.666 17.167 103.999 51.5s41 75.166 41 122.499c0 53.333 -15.167 98.166 -45.5 134.499s-65.5 54.5 -105.5 54.5c-33.333 0 -64.166 -14.667 -92.499 -44s-42.5 -74.666 -42.5 -135.999c0 -53.333 13 -97.166 39 -131.499s60 -51.5 102 -51.5z" />
    <glyph glyph-name="p" unicode="p" horiz-adv-x="505" 
d="M256 28c43.333 0 81.166 16.333 113.499 49s48.5 73.667 48.5 123c0 48.667 -16.167 91 -48.5 127s-69.166 54 -110.499 54c-25.333 0 -48 -7.33301 -68 -22c-19.333 -13.333 -29 -34.333 -29 -63v-220c0 -13.333 8.66699 -24 26 -32c21.333 -10.667 44 -16 68 -16z
M293 441c56 0 102.168 -21.668 138.501 -65.001s54.5 -95.333 54.5 -156c0 -67.333 -22.667 -122 -68 -164s-103.666 -63 -174.999 -63c-6.66699 0 -13.334 0.166992 -20.001 0.5s-12.667 0.833008 -18 1.5s-10 1.33398 -14 2.00098s-7.33301 1 -10 1l-4 1
c-4.66699 0 -7 -3.66699 -7 -11v-141v-3c0 -16 7.66699 -24.667 23 -26c6.66699 -0.666992 14.5 -1.33398 23.5 -2.00098s15.5 -1.16699 19.5 -1.5s8.66699 -0.833008 14 -1.5s9.16602 -1.66699 11.499 -3s4.66602 -3 6.99902 -5s3.83301 -4.5 4.5 -7.5s1 -6.83301 1 -11.5
c0 -10 -4 -15 -12 -15c-1.33301 0 -6.16602 0.333008 -14.499 1s-19.833 1.33398 -34.5 2.00098s-30.334 1 -47.001 1c-22 0 -43.833 -0.666992 -65.5 -2s-38.834 -2.66602 -51.501 -3.99902l-19 -2c-11.333 0 -17 6.66699 -17 20c0 2 0.166992 3.83301 0.5 5.5s1 3 2 4
s1.83301 2 2.5 3s2.16699 2 4.5 3s4.33301 1.66699 6 2s4.33398 1 8.00098 2s7 1.66699 10 2s7.16699 1.16602 12.5 2.49902s10 2.33301 14 3c14.667 2.66699 22 12 22 28v473v2c0 10.667 -4.33301 17.667 -13 21l-34 15c-17.333 7.33301 -27.5 12 -30.5 14
s-4.5 4.33301 -4.5 7v1c0 2.66699 15 12.667 45 30l65 38c2 1.33301 4 2.5 6 3.5s3.5 2 4.5 3s2 1.66699 3 2s2.16699 0.5 3.5 0.5c5.33301 0 8 -4 8 -12v-60c0 -4 1.33301 -6 4 -6l13 14c8.66699 9.33301 22.334 19.5 41.001 30.5s39.667 18.167 63 21.5
c5.33301 0.666992 13.333 1 24 1z" />
    <glyph glyph-name="q" unicode="q" horiz-adv-x="537" 
d="M265 411c-48 0 -89.167 -16.6689 -123.5 -50.002s-51.5 -74 -51.5 -122c0 -51.333 18.833 -95.166 56.5 -131.499s82.167 -54.5 133.5 -54.5c18 0 36.667 2.83301 56 8.5s32.333 11.834 39 18.501c6 6 9 16.333 9 31c0 31.333 -1 111.333 -3 240
c0 13.333 -4.66699 23.333 -14 30c-31.333 20 -65.333 30 -102 30zM16 217.998c0 26 5.00391 51.498 15.0039 76.498s25.167 49 45.5 72s49 41.667 86 56s79.5 21.5 127.5 21.5c25.333 0 51 -2.16699 77 -6.5s39.333 -6.5 40 -6.5c11.333 0 20 4.33301 26 13s10 13 12 13
c8 0 12 -19 12 -57c0 -2.66699 0.166992 -7 0.5 -13s0.5 -10.667 0.5 -14v-515c0 -14.667 2.16699 -25.5 6.5 -32.5s9.66602 -11.5 15.999 -13.5s17.5 -4 33.5 -6c9.33301 -2 14 -6.66699 14 -14c0 -14.667 -6 -22 -18 -22c-1.33301 0 -4.33301 0.166992 -9 0.5
s-11.167 0.666016 -19.5 0.999023s-17.5 0.5 -27.5 0.5c-14.667 0 -29.334 -0.5 -44.001 -1.5s-27.334 -2 -38.001 -3s-20.167 -2.16699 -28.5 -3.5s-15 -2.5 -20 -3.5s-7.83301 -1.5 -8.5 -1.5c-12 0 -18 6.33301 -18 19c0 2 0.166992 4 0.5 6s1 3.66699 2 5
s2.16699 2.5 3.5 3.5s3 2 5 3s4 1.66699 6 2s4.66699 0.833008 8 1.5s6.16602 1.33398 8.49902 2.00098s5.83301 1.33398 10.5 2.00098s8.66699 1.33398 12 2.00098c20 4 30 17.667 30 41v177c0 4.66699 -2 7 -6 7c-1.33301 0 -7.5 -3.33301 -18.5 -10
s-26.667 -13.167 -47 -19.5s-42.5 -9.5 -66.5 -9.5c-62.667 0 -116.5 22.167 -161.5 66.5s-67.5 97.833 -67.5 160.5z" />
    <glyph glyph-name="r" unicode="r" horiz-adv-x="366" 
d="M148 386c0.666992 0 8.00098 4.83008 22.001 14.4971l47 31.5c17.333 11.333 30 18.333 38 21s18 4 30 4c18.667 0 36.667 -4.16699 54 -12.5s26 -19.166 26 -32.499v-1c0 -4 -1.33301 -8 -4 -12s-5 -7 -7 -9s-5.33301 -5 -10 -9l-7 -6
c-0.666992 0 -4.16699 -2.5 -10.5 -7.5s-11.833 -8.5 -16.5 -10.5s-9.66699 -3 -15 -3c-8 0 -17.167 4.33301 -27.5 13s-21.5 13 -33.5 13c-14.667 0 -30.334 -5.33301 -47.001 -16s-27.334 -19.334 -32.001 -26.001c-2.66699 -4 -4 -10.333 -4 -19v-245v-4
c0 -19.333 8.33301 -29.666 25 -30.999c6.66699 -0.666992 15.667 -1.33398 27 -2.00098c20.667 -1.33301 33.834 -3.16602 39.501 -5.49902s8.5 -8.16602 8.5 -17.499c0 -13.333 -4.66699 -20 -14 -20c-0.666992 0 -2.83398 0.166992 -6.50098 0.5
s-8.83398 0.833008 -15.501 1.5s-14 1.33398 -22 2.00098s-17.5 1.16699 -28.5 1.5s-21.5 0.5 -31.5 0.5c-10.667 -0 -21.334 -0.166992 -32.001 -0.5s-20.167 -0.833008 -28.5 -1.5s-15.666 -1.33398 -21.999 -2.00098s-11.333 -1.16699 -15 -1.5
s-5.83398 -0.5 -6.50098 -0.5c-11.333 0 -17 5.66699 -17 17c0 6 1.33301 10.5 4 13.5s5.33398 5 8.00098 6s7.83398 2 15.501 3s13.834 2.16699 18.501 3.5c12.667 2.66699 19 10.667 19 24v272c0 4 -0.333008 7.16699 -1 9.5s-2.5 5 -5.5 8s-6 5.5 -9 7.5l-17.5 12l-24 17
c-2 2 -3.33301 4.33301 -4 7c0 2.66699 13.667 10.334 41 23.001l67 33c0.666992 0 1.66699 0.333008 3 1c2.66699 1.33301 4.66699 2 6 2c8 0 12 -7 12 -21v-41c0 -3.33301 1 -5 3 -5z" />
    <glyph glyph-name="s" unicode="s" horiz-adv-x="346" 
d="M32 316c0 32 13.501 60.1631 40.501 84.4961s62.5 36.5 106.5 36.5c9.33301 0 17.833 -0.5 25.5 -1.5s13.667 -1.83301 18 -2.5s6.83301 -1 7.5 -1c2.66699 0 6.66699 1.66699 12 5s10 5 14 5c8 0 13.333 -6.33301 16 -19l8 -42l8.5 -45.5
c2.33301 -12.333 3.5 -19.166 3.5 -20.499c0 -10.667 -8 -16 -24 -16c-6.66699 0 -11.5 2.5 -14.5 7.5s-5.83301 12.167 -8.5 21.5s-5.66699 16.333 -9 21c-7.33301 10 -19.166 19.167 -35.499 27.5s-32.5 12.5 -48.5 12.5c-18 0 -33.333 -5 -46 -15s-19 -23 -19 -39
c0 -34 27 -58.667 81 -74c6.66699 -2 16.667 -4.5 30 -7.5s23.666 -5.5 30.999 -7.5s16.166 -5 26.499 -9s19.5 -9 27.5 -15s15.667 -13.333 23 -22c20.667 -24 31 -51 31 -81c0 -36 -14.167 -68 -42.5 -96s-66.166 -42 -113.499 -42c-26 0 -52.5 4.33301 -79.5 13
s-47.5 21.334 -61.5 38.001c-8 8.66699 -12 20.334 -12 35.001c0 10.667 -0.166992 22.667 -0.5 36s-0.5 21.666 -0.5 24.999c0 13.333 1.16699 22 3.5 26s7.16602 6 14.499 6s12 -3 14 -9s3.33301 -14.833 4 -26.5s2.66699 -21.167 6 -28.5
c6 -13.333 20.167 -26.666 42.5 -39.999s46.833 -20 73.5 -20c23.333 0 43 6.33301 59 19s24 29 24 49c0 12.667 -2.83301 23.834 -8.5 33.501s-14.5 17.667 -26.5 24s-21.667 11 -29 14s-19 6.5 -35 10.5l-24 5c-75.333 22 -113 63.667 -113 125z" />
    <glyph glyph-name="t" unicode="t" horiz-adv-x="340" 
d="M41 374c-14 0 -21.002 4.33398 -21.002 13.001c0 4 4.83301 10.167 14.5 18.5s23.5 22.333 41.5 42s35 42.834 51 69.501c7.33301 12.667 14 19 20 19c9.33301 0 14 -5.66699 14 -17c0 -4.66699 -0.166992 -16.667 -0.5 -36s-0.5 -31.333 -0.5 -36
c0 -13.333 6.66699 -20 20 -20h92c1.33301 0 3 -0.166992 5 -0.5s3.33301 -0.5 4 -0.5c17.333 0 26 -6.33301 26 -19s-3 -22.667 -9 -30c-3.33301 -3.33301 -9.33301 -5 -18 -5h-120c-6.66699 0 -10 -3.33301 -10 -10c0 -55.333 -0.166992 -101.333 -0.5 -138
s-0.666016 -61.334 -0.999023 -74.001s-0.5 -21.667 -0.5 -27c0 -50.667 17.667 -76 53 -76c14 0 28.667 5.16699 44 15.5s28.833 20.666 40.5 30.999s20.5 15.5 26.5 15.5c5.33301 0 9.83301 -2 13.5 -6s5.5 -8.33301 5.5 -13c0 -4 -2.33301 -9.66699 -7 -17
c-54 -61.333 -101.667 -92 -143 -92c-24.667 0 -47.167 9.83301 -67.5 29.5s-32.166 51.167 -35.499 94.5c-0.666992 7.33301 -1 18.333 -1 33c0 16.667 0.666992 57.167 2 121.5s2 99.5 2 105.5s-2.33301 9 -7 9h-33z" />
    <glyph glyph-name="u" unicode="u" horiz-adv-x="517" 
d="M368 34c-0.666992 0 -3.49707 -1.83496 -8.49707 -5.50195s-11.667 -8 -20 -13s-17.833 -10 -28.5 -15s-23.667 -9.33301 -39 -13s-31 -5.5 -47 -5.5c-42 0 -77 13 -105 39s-45 62.333 -51 109c-2 20 -3 41 -3 63c0 12.667 0.166992 42.167 0.5 88.5s0.5 71.5 0.5 75.5
c0 12.667 -9.33301 22.334 -28 29.001c-3.33301 1.33301 -8.5 3 -15.5 5s-11.5 4 -13.5 6s-3 5.66699 -3 11v3c0 8.66699 3.66699 13.334 11 14.001c68 4 103.667 6 107 6c6.66699 0 10 -4 10 -12v-210c0 -44.667 6.33301 -80 19 -106c9.33301 -18 23.5 -33.833 42.5 -47.5
s40.833 -20.5 65.5 -20.5c33.333 0 62.333 12.333 87 37c1.33301 2 3.16602 4.16699 5.49902 6.5s3.83301 4 4.5 5s1.66699 2.16699 3 3.5s2.16602 2.5 2.49902 3.5s0.833008 2.16699 1.5 3.5s1 2.5 1 3.5v4.5v252c0 14.667 -6.66699 24 -20 28
c-3.33301 1.33301 -19.333 4.33301 -48 9c-10 2 -15 7.66699 -15 17c0 10 4.66699 15.667 14 17c22 0.666992 41.833 1.33398 59.5 2.00098s30 1.16699 37 1.5s13 0.5 18 0.5h11.5c10 0 15 -6.66699 15 -20v-321c0 -2 0.166992 -3.5 0.5 -4.5s1 -2 2 -3
s2.16699 -1.83301 3.5 -2.5l6 -3c2.66699 -1.33301 5.66699 -2.66602 9 -3.99902s7.66602 -3.33301 12.999 -6s11 -5.33398 17 -8.00098s9 -6.66699 9 -12c0 -7.33301 -1.5 -12.333 -4.5 -15s-7.5 -4.5 -13.5 -5.5s-17 -4.33301 -33 -10s-33.333 -13.834 -52 -24.501
c-4 -2.66699 -7.66699 -4 -11 -4c-9.33301 0 -14 6.66699 -14 20v24c0 2.66699 -1 4 -3 4z" />
    <glyph glyph-name="v" unicode="v" horiz-adv-x="501" 
d="M305 406l0.000976562 5.00293c0 9.33301 4 14 12 14c1.33301 0 5.5 -0.166992 12.5 -0.5s16.667 -0.833008 29 -1.5s25.833 -1 40.5 -1s28.167 0.333008 40.5 1s22 1.16699 29 1.5s11.167 0.5 12.5 0.5c10.667 0 16 -6.33301 16 -19c0 -8 -2.33301 -13.333 -7 -16
s-10.167 -3.83398 -16.5 -3.50098s-12.833 -0.166992 -19.5 -1.5s-11.334 -4.66602 -14.001 -9.99902c-1.33301 -2 -3.33301 -9 -6 -21c-16 -58.667 -35.5 -117.667 -58.5 -177s-42.333 -105 -58 -137s-26.167 -50.667 -31.5 -56c-5.33301 -6.66699 -12 -10 -20 -10
c-11.333 0 -22.666 10.667 -33.999 32c-38 67.333 -71.333 130.5 -100 189.5s-48.834 102.167 -60.501 129.5s-18.834 43 -21.501 47c-4 5.33301 -9.16699 9.16602 -15.5 11.499s-11.666 3.5 -15.999 3.5s-8.16602 1.83301 -11.499 5.5s-5 10.167 -5 19.5
c0 8.66699 4 13 12 13c2 0 7.16699 -0.166992 15.5 -0.5s19.833 -0.833008 34.5 -1.5s30.667 -1 48 -1s33.333 0.333008 48 1s26.167 1.16699 34.5 1.5s13.5 0.5 15.5 0.5c9.33301 0 14 -7 14 -21c0 -6 -1.5 -10.5 -4.5 -13.5s-6.5 -4.5 -10.5 -4.5
s-10.333 -0.166992 -19 -0.5s-16.334 -1.16602 -23.001 -2.49902c-14 -1.33301 -21 -7.33301 -21 -18c0 -5.33301 4.83301 -21.333 14.5 -48s24.5 -61.834 44.5 -105.501s41 -84.5 63 -122.5c5.33301 -5.33301 8.66602 -8 9.99902 -8c3.33301 0 5 1.66699 5 5
c23.333 40.667 43 83.667 59 129s26.5 80 31.5 104s7.5 40.333 7.5 49c0 2 -0.166992 3.83301 -0.5 5.5s-1.16602 3.16699 -2.49902 4.5s-2.66602 2.33301 -3.99902 3s-3.16602 1.33398 -5.49902 2.00098s-4.5 1.16699 -6.5 1.5s-4.83301 0.666016 -8.5 0.999023
s-6.83398 0.666016 -9.50098 0.999023s-6.33398 0.666016 -11.001 0.999023s-8.66699 0.5 -12 0.5c-10.667 2 -16 8 -16 18z" />
    <glyph glyph-name="w" unicode="w" horiz-adv-x="770" 
d="M753 425c10 0 15.0049 -5.66211 15.0049 -16.9951c0 -5.33301 -0.833008 -9.66602 -2.5 -12.999s-3.83398 -5.5 -6.50098 -6.5s-5.16699 -1.83301 -7.5 -2.5s-5.33301 -1 -9 -1h-6.5c-12 -2.66699 -20.5 -12.834 -25.5 -30.501s-19.5 -59.667 -43.5 -126
s-59.333 -142.5 -106 -228.5c-9.33301 -17.333 -19 -26 -29 -26c-8 0 -15.5 5.33301 -22.5 16s-19.833 33 -38.5 67c-7.33301 13.333 -13 24 -17 32c-44 83.333 -66.667 125.333 -68 126c-2 0 -15.667 -27 -41 -81c-48 -96.667 -73.667 -146.667 -77 -150
c-5.33301 -6.66699 -11.333 -10 -18 -10c-10.667 0 -20.667 9 -30 27c-32.667 61.333 -62.334 121.666 -89.001 180.999s-46.5 105.5 -59.5 138.5s-19.833 49.833 -20.5 50.5c-3.33301 6.66699 -7.83301 11.167 -13.5 13.5s-10.667 3.33301 -15 3s-8.16602 1 -11.499 4
s-5 8.5 -5 16.5c0 11.333 6.33301 17 19 17c1.33301 0 5.16602 -0.166992 11.499 -0.5s15.166 -0.833008 26.499 -1.5s23.666 -1 36.999 -1h3c12.667 0 24.667 0.333008 36 1s20.166 1.16699 26.499 1.5s10.166 0.5 11.499 0.5c8 0 12 -5.66699 12 -17
c0 -13.333 -10.5 -20.333 -31.5 -21s-31.5 -6 -31.5 -16c0 -5.33301 2 -12 6 -20c32.667 -85.333 71 -171 115 -257c2.66699 -5.33301 6 -8 10 -8c2 0 3.83301 0.666992 5.5 2s2.83398 2.5 3.50098 3.5s1 1.83301 1 2.5c19.333 29.333 39.5 64.5 60.5 105.5
s31.833 65.5 32.5 73.5v1c0 3.33301 -5.66699 17.5 -17 42.5s-18.333 39.5 -21 43.5c-6 8.66699 -13.667 14.834 -23 18.501s-17.833 5.33398 -25.5 5.00098s-14.334 0.666992 -20.001 3s-8.5 7.16602 -8.5 14.499c0 16 5.33301 24 16 24c2 0 7.5 -0.166992 16.5 -0.5
s21.5 -0.833008 37.5 -1.5s33.333 -1 52 -1s35.834 0.333008 51.501 1s28 1.16699 37 1.5s14.5 0.5 16.5 0.5c9.33301 0 14 -5 14 -15v-7c0 -6.66699 -1.5 -10.667 -4.5 -12s-13.167 -2.66602 -30.5 -3.99902c-10 -0.666992 -18 -1.33398 -24 -2.00098
c-16 -1.33301 -24 -8.33301 -24 -21c0 -11.333 13.667 -46 41 -104s56.333 -111 87 -159c5.33301 -9.33301 11 -14 17 -14s10 3 12 9c22 38.667 41.167 79.667 57.5 123s27.333 76.5 33 99.5s8.5 37.5 8.5 43.5c0 2.66699 -0.166992 5.16699 -0.5 7.5
s-1.16602 4.16602 -2.49902 5.49902s-2.5 2.66602 -3.5 3.99902s-2.66699 2.33301 -5 3s-4.5 1.16699 -6.5 1.5s-4.83301 0.666016 -8.5 0.999023s-6.83398 0.666016 -9.50098 0.999023s-6.66699 0.666016 -12 0.999023s-10 0.5 -14 0.5c-12 1.33301 -18 8.33301 -18 21
c0 11.333 4 17 12 17c1.33301 0 5.33301 -0.333008 12 -1s16.167 -1.33398 28.5 -2.00098s25.5 -1 39.5 -1c14.667 0 28.167 0.333008 40.5 1s22 1.33398 29 2.00098s11.167 1 12.5 1z" />
    <glyph glyph-name="x" unicode="x" horiz-adv-x="453" 
d="M25 425c1.33301 0 5.66992 -0.168945 13.0029 -0.501953s17.333 -0.833008 30 -1.5s26.334 -1 41.001 -1s28.5 0.333008 41.5 1s23.167 1.16699 30.5 1.5s11.666 0.5 12.999 0.5c8 0 12 -4.66699 12 -14v-2c0 -1.33301 0.166992 -3.16602 0.5 -5.49902
s0.5 -3.83301 0.5 -4.5c0 -4.66699 -1.5 -7.66699 -4.5 -9s-10.5 -2.66602 -22.5 -3.99902c-4 -0.666992 -7.33301 -1 -10 -1c-10.667 -1.33301 -16 -6 -16 -14c0 -3.33301 4.66699 -11.666 14 -24.999l46 -61c8.66699 -10.667 13.667 -16 15 -16s3 1 5 3
c48 64 72 97.667 72 101c0 7.33301 -8.33301 11.333 -25 12s-25 5.33398 -25 14.001c0 17.333 4.33301 26 13 26c1.33301 0 5.16602 -0.166992 11.499 -0.5s15 -0.833008 26 -1.5s22.833 -1 35.5 -1h3c13.333 0 25.666 0.333008 36.999 1s20.166 1.16699 26.499 1.5
s10.166 0.5 11.499 0.5c8.66699 0 13 -5 13 -15c0 -6.66699 -1 -11.5 -3 -14.5s-4.66699 -5 -8 -6s-10 -2.16699 -20 -3.5c-3.33301 -0.666992 -5.66602 -1 -6.99902 -1c-14 -2 -24 -5 -30 -9s-13.667 -11.667 -23 -23c-58 -76.667 -87 -115.334 -87 -116.001
c0 -2 47 -62.667 141 -182c2 -2.66699 3.83301 -5 5.5 -7s3.33398 -3.83301 5.00098 -5.5s3 -2.83398 4 -3.50098s2.66699 -1.33398 5 -2.00098s4 -1.16699 5 -1.5s3.16699 -0.833008 6.5 -1.5s5.66602 -1 6.99902 -1c6.66699 -1.33301 10 -5.66602 10 -12.999
c0 -16 -5 -24 -15 -24c-1.33301 0 -5.5 0.333008 -12.5 1s-16.833 1.33398 -29.5 2.00098s-26.334 1 -41.001 1s-28.334 -0.333008 -41.001 -1s-22.5 -1.33398 -29.5 -2.00098s-11.167 -1 -12.5 -1c-8 0 -12 5.66699 -12 17c0 7.33301 1.5 12.5 4.5 15.5
s10.167 5.16699 21.5 6.5s19.666 2.66602 24.999 3.99902c8 2.66699 12 7 12 13c0 1.33301 -1.33301 4.66602 -4 9.99902c-62.667 78 -94.334 117.333 -95.001 118h-1l-2 1c-2.66699 0 -14.334 -14 -35.001 -42l-45 -61c-9.33301 -12 -14 -20.667 -14 -26
c0 -10 9.33301 -15.833 28 -17.5s29.334 -4.16699 32.001 -7.5c1.33301 -2 2 -5.66699 2 -11c0 -13.333 -4.33301 -20 -13 -20c-1.33301 0 -5.16602 0.333008 -11.499 1s-15 1.33398 -26 2.00098s-23.167 1 -36.5 1c-12.667 0 -24.667 -0.333008 -36 -1
s-20.166 -1.5 -26.499 -2.5s-10.166 -1.5 -11.499 -1.5c-6.66699 0 -10 7 -10 21c0 10.667 7.16699 17.334 21.5 20.001s22.833 5 25.5 7s6 5.66699 10 11c78.667 104 118.334 157.333 119.001 160c0 2 -1.33301 4.33301 -4 7c-78.667 98 -120 149 -124 153
c-6.66699 6 -15.667 9.66699 -27 11c-12.667 1.33301 -19 9 -19 23c0 11.333 4.66699 17 14 17z" />
    <glyph glyph-name="y" unicode="y" horiz-adv-x="479" 
d="M94 -228c-11.333 0 -20.834 3.65918 -28.501 10.9922s-11.5 16 -11.5 26c0 12 4.33301 22.5 13 31.5s21.5 18.833 38.5 29.5s29.833 20 38.5 28c14.667 13.333 29.834 32.833 45.501 58.5s23.5 45.167 23.5 58.5c0 17.333 -38 102 -114 254
c-31.333 61.333 -50 96.333 -56 105c-4 6 -9.5 9.5 -16.5 10.5s-12.5 2.66699 -16.5 5s-6 8.5 -6 18.5c0 11.333 4.66699 17 14 17c1.33301 0 5.33301 -0.166992 12 -0.5l28.5 -1.5c12.333 -0.666992 25.5 -1 39.5 -1s27.167 0.333008 39.5 1s22 1.16699 29 1.5
s11.167 0.5 12.5 0.5c9.33301 0 14 -5.33301 14 -16c0 -2.66699 -0.166992 -4.83398 -0.5 -6.50098s-0.5 -3.16699 -0.5 -4.5s-0.5 -2.5 -1.5 -3.5s-1.66699 -2 -2 -3s-1.33301 -1.66699 -3 -2s-2.83398 -0.666016 -3.50098 -0.999023
s-2.33398 -0.666016 -5.00098 -0.999023s-4.66699 -0.666016 -6 -0.999023s-3.83301 -0.666016 -7.5 -0.999023s-6.5 -0.5 -8.5 -0.5c-10.667 -1.33301 -16 -6 -16 -14c0 -3.33301 4.16699 -16.166 12.5 -38.499s21.666 -53.5 39.999 -93.5s38.166 -80 59.499 -120
c0 -4 2.33301 -6 7 -6c2 0 3.66699 0.666992 5 2s2.33301 2.83301 3 4.5s1.33398 2.83398 2.00098 3.50098c56 134 84 214.333 84 241c0 4 -0.5 7.33301 -1.5 10s-2.16699 4.83398 -3.5 6.50098s-3.66602 2.83398 -6.99902 3.50098s-6.33301 1.16699 -9 1.5s-7 0.5 -13 0.5
s-11 0.333008 -15 1c-12.667 1.33301 -19 8 -19 20s6.33301 18 19 18c1.33301 0 5.33301 -0.166992 12 -0.5l28.5 -1.5c12.333 -0.666992 25.5 -1 39.5 -1h1c14 0 26.833 0.333008 38.5 1s20.834 1.16699 27.501 1.5s10.667 0.5 12 0.5c8 0 12 -7 12 -21
c0 -7.33301 -2 -11.833 -6 -13.5s-15.333 -3.5 -34 -5.5c-6.66699 -0.666992 -11.167 -3 -13.5 -7s-7.5 -16.667 -15.5 -38c-16 -45.333 -33.333 -90.666 -52 -135.999c-66 -161.333 -127 -284.333 -183 -369c-27.333 -42 -52.666 -63 -75.999 -63z" />
    <glyph glyph-name="z" unicode="z" horiz-adv-x="369" 
d="M67 465l5.99902 -0.00390625c8 0 12.5 -6.33301 13.5 -19s5.83301 -19 14.5 -19h224c14.667 0 22 -5 22 -15c0 -2 -2 -7 -6 -15l-160 -217c-48 -64.667 -72 -98.667 -72 -102c0 -7.33301 5.33301 -11 16 -11h148c2 0 5 -0.166992 9 -0.5s6.33301 -0.5 7 -0.5
c7.33301 0 12.333 2.33301 15 7s5.33398 15.334 8.00098 32.001c1.33301 9.33301 2.66602 17 3.99902 23c3.33301 10.667 9.33301 16 18 16c16 0 24 -5.66699 24 -17c0 -0.666992 -0.5 -3.5 -1.5 -8.5s-2 -12 -3 -21l-3.5 -30.5c-1.33301 -11.333 -2.5 -24.666 -3.5 -39.999
s-1.5 -30.666 -1.5 -45.999c0 -10 0.166992 -19.167 0.5 -27.5s0.5 -14.833 0.5 -19.5v-9c0 -13.333 -10.333 -20 -31 -20c-11.333 0 -17 6 -17 18v62c0 10 -5.66699 15 -17 15h-238c-20.667 0 -31 8 -31 24c0 5.33301 4.66699 15.333 14 30l208 282
c4.66699 4.66699 7 9 7 13c0 10 -7 15 -21 15h-122c-5.33301 0 -9.16602 -2 -11.499 -6s-4.83301 -12.333 -7.5 -25c-1.33301 -6.66699 -2.33301 -12 -3 -16c-3.33301 -10.667 -9.33301 -16 -18 -16c-12 0 -18 4.33301 -18 13c0 0.666992 0.333008 2.83398 1 6.50098
s1.5 8.66699 2.5 15s2 13.5 3 21.5s1.83301 17.5 2.5 28.5s1 22.167 1 33.5v31c0 10 5.66699 15 17 15z" />
    <glyph glyph-name="braceleft" unicode="{" horiz-adv-x="257" 
d="M46 262c0 1.33301 2 2.99805 6 4.99805s9 5.16699 15 9.5s12 10 18 17s11 17 15 30s6 27.833 6 44.5c0 26 -4.5 64.167 -13.5 114.5s-13.5 89.5 -13.5 117.5c0 48.667 11.167 83.667 33.5 105s47.5 32 75.5 32c16.667 0 25 -1.66699 25 -5
c0 -0.666992 -3.66699 -2.83398 -11 -6.50098s-16.166 -10.667 -26.499 -21s-18.166 -23.166 -23.499 -38.499c-5.33301 -16 -8 -32 -8 -48c0 -18 4.66699 -48.333 14 -91s14 -78 14 -106c0 -28.667 -4 -55.667 -12 -81s-15.833 -44.833 -23.5 -58.5
s-11.5 -20.834 -11.5 -21.501c0 -1.33301 3.66699 -7.5 11 -18.5s14.666 -27 21.999 -48s11 -44.5 11 -70.5c0 -22.667 -4.83301 -55.5 -14.5 -98.5s-14.5 -75.167 -14.5 -96.5c0 -17.333 2.33301 -33.5 7 -48.5s10.167 -27.167 16.5 -36.5s12.666 -17.166 18.999 -23.499
s11.833 -11.166 16.5 -14.499l7 -5c0 -2 -5.66699 -3 -17 -3c-28.667 0 -54.834 11.5 -78.501 34.5s-35.5 59.833 -35.5 110.5c0 27.333 5.5 64 16.5 110s16.5 79.333 16.5 100c0 13.333 -1.5 25.5 -4.5 36.5s-6.5 20.167 -10.5 27.5s-8.66699 14 -14 20
s-10.166 10.333 -14.499 13s-8.5 5 -12.5 7l-5 4c-0.666992 0.666992 -1 1.33398 -1 2.00098z" />
    <glyph glyph-name="bar" unicode="|" horiz-adv-x="156" 
d="M79 -203h-4.00098c-16 0 -24 4.66699 -24 14v911c0 8.66699 8.33301 13 25 13h2c10.667 0 17.834 -0.833008 21.501 -2.5s5.5 -5.16699 5.5 -10.5v-911c0 -9.33301 -8.66699 -14 -26 -14z" />
    <glyph glyph-name="braceright" unicode="}" horiz-adv-x="257" 
d="M181 600c0 -28 -4.49609 -67.165 -13.4961 -117.498s-13.5 -88.5 -13.5 -114.5c0 -14 1.33301 -26.667 4 -38s6 -20.333 10 -27s8.66699 -12.667 14 -18s10 -9.16602 14 -11.499s8 -4.16602 12 -5.49902l5 -3c0.666992 -0.666992 1 -1.33398 1 -2.00098
c0 -2.66699 -1.33301 -4.33398 -4 -5.00098c-38 -20 -57 -55.333 -57 -106c0 -20.667 5.33301 -54 16 -100s16 -82.667 16 -110c0 -50.667 -11.833 -87.5 -35.5 -110.5s-49.834 -34.5 -78.501 -34.5c-11.333 0 -17 1 -17 3l7 5c4.66699 3.33301 10.167 8.16602 16.5 14.499
s12.666 14.166 18.999 23.499s11.833 21.5 16.5 36.5s7 31.167 7 48.5c0 21.333 -4.83301 53.5 -14.5 96.5s-14.5 75.833 -14.5 98.5c0 26 3.66699 49.667 11 71s14.666 37.333 21.999 48s11 16.667 11 18s-1.33301 4.66602 -4 9.99902c-28.667 44 -43 94.333 -43 151
c0 28 4.66699 63.333 14 106s14 73 14 91c0 16.667 -2.33301 32 -7 46s-10.334 24.833 -17.001 32.5s-13.5 14 -20.5 19s-12.833 8.83301 -17.5 11.5s-7 4.33398 -7 5.00098c0 3.33301 8.33301 5 25 5c28 0 53.167 -10.667 75.5 -32s33.5 -56.333 33.5 -105z" />
    <glyph glyph-name="asciitilde" unicode="~" horiz-adv-x="461" 
d="M41 177c-2.66699 0 -6.00098 2.66895 -10.001 8.00195s-6 9.66602 -6 12.999c0 1.33301 3.33301 7.66602 10 18.999s15 24.333 25 39s18.333 25.334 25 32.001c19.333 20.667 42 31 68 31c20 0 45.5 -9.83301 76.5 -29.5s56.5 -29.5 76.5 -29.5
c16.667 0 32.5 4.66699 47.5 14s27.5 19.666 37.5 30.999s15.333 17 16 17c2.66699 1.33301 4.66699 2 6 2c3.33301 0 8.16602 -2 14.499 -6s9.5 -8.33301 9.5 -13c0 -2 -2.5 -7 -7.5 -15s-12.333 -17.833 -22 -29.5s-20.5 -23 -32.5 -34s-26.167 -20.333 -42.5 -28
s-32.5 -11.5 -48.5 -11.5c-24.667 0 -51.167 10.167 -79.5 30.5s-51.166 30.5 -68.499 30.5c-30 0 -59.333 -22 -88 -66c-1.33301 -3.33301 -3.66602 -5 -6.99902 -5z" />
    <glyph glyph-name="uni00A0" unicode="&#xa0;" horiz-adv-x="256" 
 />
    <glyph glyph-name="exclamdown" unicode="&#xa1;" horiz-adv-x="332" 
d="M135 -16c-6.66699 0 -9.99902 8.33398 -9.99902 25.001v24c0 65.333 3.5 132.333 10.5 201s13.5 119.667 19.5 153s11 56.666 15 69.999c3.33301 10.667 9 16 17 16c11.333 0 17 -11.333 17 -34v-13l2 -73c0.666992 -24 1.5 -46.167 2.5 -66.5
s1.83301 -40.166 2.5 -59.499s1.5 -36.833 2.5 -52.5s1.83301 -30.334 2.5 -44.001s1.5 -25.5 2.5 -35.5s1.66699 -18.667 2 -26s0.833008 -13 1.5 -17v-5c0 -10 -4.33301 -17.333 -13 -22c-46.667 -27.333 -71.334 -41 -74.001 -41zM164.001 586.001
c-14.667 0 -27.167 5 -37.5 15s-15.5 22.333 -15.5 37c0 14 5 26.167 15 36.5s22.333 15.5 37 15.5s27.167 -4.83301 37.5 -14.5s15.5 -22.167 15.5 -37.5s-5 -27.833 -15 -37.5s-22.333 -14.5 -37 -14.5z" />
    <glyph glyph-name="dieresis" unicode="&#xa8;" horiz-adv-x="261" 
d="M151 633c0 13.333 4.83301 24.667 14.5 34s21.167 14 34.5 14c14 0 25.667 -4.5 35 -13.5s14 -20.167 14 -33.5c0 -14 -4.83301 -25.667 -14.5 -35s-21.167 -14 -34.5 -14c-14 0 -25.667 4.5 -35 13.5s-14 20.5 -14 34.5zM12 633.001c0 13.333 4.83301 24.667 14.5 34
s21.167 14 34.5 14c14 0 25.833 -4.5 35.5 -13.5s14.5 -20.167 14.5 -33.5c0 -14 -4.83301 -25.667 -14.5 -35s-21.5 -14 -35.5 -14s-25.667 4.5 -35 13.5s-14 20.5 -14 34.5z" />
    <glyph glyph-name="copyright" unicode="&#xa9;" horiz-adv-x="790" 
d="M395 28c84.667 0 157.999 29.998 219.999 89.998s93 134.333 93 223c0 84 -30.333 156.833 -91 218.5s-135 92.5 -223 92.5c-86.667 0 -160.167 -30.667 -220.5 -92s-90.5 -134.666 -90.5 -219.999c0 -87.333 30.833 -161.166 92.5 -221.499s134.834 -90.5 219.501 -90.5
zM30.999 339.998c0 100 35.165 186 105.498 258s156.5 108 258.5 108c101.333 0 187.5 -36 258.5 -108s106.5 -158 106.5 -258c0 -99.333 -35.167 -185 -105.5 -257s-157.166 -108 -260.499 -108c-99.333 0 -184.666 35.333 -255.999 106s-107 157 -107 259z
M562.997 392.998c-7.33301 0 -12.333 2.33203 -15 6.99902s-4 10.334 -4 17.001s-1.33301 15 -4 25s-7 19 -13 27c-34.667 42 -78.667 63 -132 63c-46 0 -86.333 -17.5 -121 -52.5s-52 -81.5 -52 -139.5c0 -59.333 17.833 -109.333 53.5 -150s78.5 -61 128.5 -61
c36.667 0 70.834 11.5 102.501 34.5s53.5 53.833 65.5 92.5c2.66699 6.66699 7.66699 10 15 10s11 -3.33301 11 -10c-9.33301 -56.667 -14.333 -90 -15 -100c-1.33301 -12.667 -7.66602 -19 -18.999 -19h-18c-4.66699 0 -7.83398 -0.166992 -9.50098 -0.5s-4.5 -2 -8.5 -5
s-8 -5.5 -12 -7.5c-38 -22.667 -78.667 -34 -122 -34c-66.667 0 -123.167 23.333 -169.5 70s-69.5 102.667 -69.5 168s23.5 121.5 70.5 168.5s104.167 70.5 171.5 70.5c25.333 0 47.666 -2.83301 66.999 -8.5s34 -11.167 44 -16.5s16 -8 18 -8c1.33301 0 4 3.83301 8 11.5
s9.66699 11.5 17 11.5c6.66699 0 10.667 -3.33301 12 -10c12 -84 18 -129.333 18 -136c0 -12 -6 -18 -18 -18z" />
    <glyph glyph-name="guillemotleft" unicode="&#xab;" horiz-adv-x="373" 
d="M189 342c4 0 8 -2.33203 12 -6.99902s6 -8.66699 6 -12c0 -2.66699 -3.16699 -7.66699 -9.5 -15l-89.5 -102l-2 -2c-1.33301 -2 -2 -3.66699 -2 -5c0 -2.66699 11.667 -17.334 35 -44.001l63 -74c2.66699 -2.66699 4 -5.33398 4 -8.00098c0 -4 -2 -8.33301 -6 -13
s-8 -7 -12 -7c-2.66699 0 -22.667 16.333 -60 49l-99 86c-4 2.66699 -6 6 -6 10c0 2.66699 2.33301 6.33398 7 11.001c104.667 88 157.667 132.333 159 133zM334 342.001c4 0 7.83203 -2.16602 11.499 -6.49902s5.5 -8.5 5.5 -12.5c0 -2.66699 -3.16699 -7.66699 -9.5 -15
l-89.5 -102c-2.66699 -2.66699 -4 -5 -4 -7c0 -2.66699 11.333 -17.334 34 -44.001l63 -74c2.66699 -2 4 -4.66699 4 -8c0 -4 -1.66699 -8.33301 -5 -13s-7 -7 -11 -7c-3.33301 0 -26.666 19 -69.999 57l-90 78c-4 2.66699 -6 6 -6 10s2.33301 7.66699 7 11l90 77
c44 37.333 67.333 56 70 56z" />
    <glyph glyph-name="logicalnot" unicode="&#xac;" horiz-adv-x="717" 
d="M78 237c-16 0 -24 7.33301 -24 22v13c0 15.333 8.33301 23 25 23h577c6 0 9 -3 9 -9v-224c0 -13.333 -6.66699 -20 -20 -20h-14c-16.667 0 -25 9 -25 27v168h-528z" />
    <glyph glyph-name="registered" unicode="&#xae;" horiz-adv-x="531" 
d="M248 692c30.667 0 52.999 -6.83594 66.999 -20.5029s21 -29.167 21 -46.5c0 -16.667 -5 -30.667 -15 -42s-19.333 -18.666 -28 -21.999c20.667 -23.333 40.334 -50.666 59.001 -81.999c8 -14.667 17 -22 27 -22c2.66699 0 5.33398 1.33301 8.00098 4s5.33398 4 8.00098 4
c4 0 6 -2.33301 6 -7s-3.16699 -10.667 -9.5 -18s-14.5 -11 -24.5 -11c-14.667 0 -28.334 9.33301 -41.001 28l-68 93c-1.33301 3.33301 -4 5 -8 5h-27c-1.33301 0 -2 -1 -2 -3v-85l-1 -2c0 -5.33301 7.33301 -8.5 22 -9.5s22 -5.5 22 -13.5
c0 -7.33301 -3.33301 -11 -10 -11l-15 1c-10 0.666992 -20.667 1 -32 1c-8.66699 0 -16.5 -0.166992 -23.5 -0.5s-12.5 -0.666016 -16.5 -0.999023s-6.33301 -0.5 -7 -0.5c-6.66699 0 -10 4 -10 12c0 4 1 6.66699 3 8s7.66699 2.66602 17 3.99902
c1.33301 0.666992 2.66602 1 3.99902 1c5.33301 0 8 3.33301 8 10v190c0 6 -6.66699 10 -20 12c-3.33301 0.666992 -6 1.33398 -8 2.00098c-6 0 -9 2.66699 -9 8c0 6 3 9 9 9h12c12 0 26.667 0.833008 44 2.5s30 2.5 38 2.5zM297.999 617.997
c0 15.333 -5.16699 28.333 -15.5 39s-24.5 16 -42.5 16c-14.667 0 -22 -2 -22 -6l1 -1v-88c0 -3.33301 7 -5 21 -5c38.667 0 58 15 58 45zM263.999 380.997c48.667 0 90.668 17.5 126.001 52.5s53 76.167 53 123.5c0 48.667 -17.5 90.667 -52.5 126s-77.167 53 -126.5 53
c-48 0 -89.5 -17.667 -124.5 -53s-52.5 -77.333 -52.5 -126c0 -47.333 17.667 -88.5 53 -123.5s76.666 -52.5 123.999 -52.5zM264 342.997c-58.667 0 -108.832 21 -150.499 63s-62.5 92.333 -62.5 151c0 60 20.667 111 62 153s91.666 63 150.999 63c60 0 111 -21 153 -63
s63 -93 63 -153c0 -58.667 -21 -109 -63 -151s-93 -63 -153 -63z" />
    <glyph glyph-name="degree" unicode="&#xb0;" horiz-adv-x="217" 
d="M109 707c26.667 0 49.334 -10 68.001 -30s28 -43.333 28 -70c0 -27.333 -9.33301 -50.666 -28 -69.999s-41.334 -29 -68.001 -29c-26 0 -48.667 9.66699 -68 29s-29 42.666 -29 69.999s9.66699 50.833 29 70.5s42 29.5 68 29.5zM109 669c-16 0 -29.333 -6 -40 -18
s-16 -26.333 -16 -43c0 -17.333 5.5 -31.833 16.5 -43.5s24.5 -17.5 40.5 -17.5c16.667 0 30.167 6 40.5 18s15.5 26 15.5 42c0 16.667 -5.5 31.167 -16.5 43.5s-24.5 18.5 -40.5 18.5z" />
    <glyph glyph-name="plusminus" unicode="&#xb1;" horiz-adv-x="717" 
d="M78 287c-16 0 -24 7.33301 -24 22v15c0 14.667 8.33301 22 25 22h251v198c0 10.667 6.66699 16 20 16h15c9.33301 0 15.5 -1.66699 18.5 -5s4.5 -8.66602 4.5 -15.999v-193h256c14 0 21 -6.66699 21 -20v-15c0 -10.667 -2.5 -17.334 -7.5 -20.001s-11.833 -4 -20.5 -4
h-249v-196c0 -12 -7 -18 -21 -18h-15c-8.66699 0 -14.5 1.5 -17.5 4.5s-4.5 7.83301 -4.5 14.5v195h-252zM78 -12c-16 0 -24 7.33398 -24 22.001v14c0 14.667 8.33301 22 25 22h565c14 0 21 -6.33301 21 -19v-15c0 -10.667 -2.5 -17.334 -7.5 -20.001s-11.833 -4 -20.5 -4
h-559z" />
    <glyph glyph-name="acute" unicode="&#xb4;" 
d="M179 718c10.667 0 19.666 -3.5 26.999 -10.5s11 -16.167 11 -27.5c0 -13.333 -8 -28.666 -24 -45.999c-89.333 -91.333 -137 -139.333 -143 -144c-4.66699 -3.33301 -9.66699 -5 -15 -5c-6 0 -10.833 2.16699 -14.5 6.5s-5.5 9.16602 -5.5 14.499
c0 6.66699 15.333 32.667 46 78l62 91c18.667 28.667 37.334 43 56.001 43z" />
    <glyph glyph-name="paragraph" unicode="&#xb6;" horiz-adv-x="768" 
d="M455 323c0 34.667 1.83398 68.498 5.50098 101.498s8.16699 60.667 13.5 83s10.666 42 15.999 59s9.83301 30.333 13.5 40s5.5 14.834 5.5 15.501c0 6.66699 -4.16699 16.167 -12.5 28.5s-14.833 18.5 -19.5 18.5c-0.666992 0 -2.33398 -1.33301 -5.00098 -4
c-48 -94.667 -72 -206 -72 -334c0 -40 3.33301 -82.667 10 -128s13.834 -81.666 21.501 -108.999s13.5 -41 17.5 -41c2.66699 0 7.5 4.66699 14.5 14s12.167 18 15.5 26c-16 90 -24 166.667 -24 230zM450.001 680.998c0 4 -5.16309 7.33203 -15.4961 9.99902
s-19.833 4 -28.5 4c-40 0 -75 -18.5 -105 -55.5s-53.333 -79.5 -70 -127.5c-18.667 -56.667 -28 -117.667 -28 -183v-1c0 -89.333 15.333 -163.333 46 -222s70.334 -88 119.001 -88c11.333 0 23.166 2.33301 35.499 7s18.5 9.66699 18.5 15c0 1.33301 -1.66699 6.5 -5 15.5
s-7.33301 21.5 -12 37.5s-9.33398 34.5 -14.001 55.5s-8.66699 46.833 -12 77.5s-5 62.334 -5 95.001c0 43.333 2.66699 85 8 125s11.666 73.333 18.999 100s14.666 49.834 21.999 69.501s13.666 35.167 18.999 46.5s8 17.666 8 18.999zM663.005 647.997
c0 6.66699 3.83594 13.998 11.5029 21.998s11.5 14.667 11.5 20s-2.33301 10.166 -7 14.499s-12 6.5 -22 6.5c-21.333 0 -41.5 -8.5 -60.5 -25.5s-32.5 -34.5 -40.5 -52.5c-42 -85.333 -63 -186.666 -63 -303.999v-4c0.666992 -90.667 10.5 -173 29.5 -247
s40.833 -130.333 65.5 -169c21.333 -32 41 -53.333 59 -64c3.33301 -2 10 -3.33301 20 -4s18.167 -2.5 24.5 -5.5s9.5 -8.5 9.5 -16.5s-3.83301 -14.667 -11.5 -20s-16.5 -8 -26.5 -8h-5c-18.667 0 -38.334 10 -59.001 30c-17.333 16.667 -36.666 45.667 -57.999 87
c-22 42 -39.667 87 -53 135c-0.666992 -0.666992 -4.16699 -3.83398 -10.5 -9.50098s-10.333 -9.16699 -12 -10.5s-5.66699 -4.16602 -12 -8.49902s-11.5 -7.33301 -15.5 -9l-17.5 -7.5c-7.66699 -3.33301 -15.334 -5.66602 -23.001 -6.99902s-16.834 -2.83301 -27.501 -4.5
s-22 -2.83398 -34 -3.50098c-2.66699 0 -6.33398 -0.166992 -11.001 -0.5s-8 -0.5 -10 -0.5c-84.667 0 -153.834 30.833 -207.501 92.5s-80.5 137.5 -80.5 227.5c0 60 11.333 116.833 34 170.5s51.834 98.834 87.501 135.501s75.5 65.667 119.5 87s87.667 32 131 32
c17.333 0 33.833 -1.83301 49.5 -5.5s28.5 -8.16699 38.5 -13.5s18.667 -10.833 26 -16.5s13.166 -10.334 17.499 -14.001s6.83301 -5.5 7.5 -5.5c2 0 4.83301 2.33301 8.5 7s10.334 11.834 20.001 21.501s21.5 18.834 35.5 27.501c26 15.333 49.667 23 71 23
c22 0 38.833 -6.33301 50.5 -19s17.5 -27 17.5 -43c0 -17.333 -6 -32 -18 -44s-24.333 -18 -37 -18c-6 0 -11.333 2 -16 6s-7 9 -7 15z" />
    <glyph glyph-name="periodcentered" unicode="&#xb7;" 
d="M116 326c16.667 0 30.999 -5.99805 42.999 -17.998s18 -26.333 18 -43c0 -16 -5.66699 -29.833 -17 -41.5s-25.666 -17.5 -42.999 -17.5c-16.667 0 -31.167 5.66699 -43.5 17s-18.5 25.666 -18.5 42.999s6 31.666 18 42.999s26.333 17 43 17z" />
    <glyph glyph-name="cedilla" unicode="&#xb8;" horiz-adv-x="203" 
d="M103 -204c-15.333 0 -31.8311 1.67188 -49.498 5.00488s-27.834 6.33301 -30.501 9s-4 5 -4 7c0 1.33301 0.5 3.66602 1.5 6.99902s2.66699 7 5 11s5.16602 6 8.49902 6l4 -1c2.66699 -0.666992 5.83398 -1.33398 9.50098 -2.00098s7.66699 -1.33398 12 -2.00098
s9 -1.33398 14 -2.00098s9.16699 -1 12.5 -1c12 0 21.5 3.16699 28.5 9.5s10.5 14.5 10.5 24.5c0 13.333 -6.83301 25 -20.5 35s-31.167 15.667 -52.5 17c-3.33301 0 -5 1 -5 3c0 0.666992 1.83301 5.66699 5.5 15l14.5 35.5c6 14.333 10.333 25.166 13 32.499h32
c-1.33301 -4.66699 -3.5 -11.167 -6.5 -19.5l-7.5 -21.5l-3 -9c0 -2 1.33301 -3 4 -3h2c25.333 0 46 -6.83301 62 -20.5s24 -32.834 24 -57.501c0 -21.333 -6.33301 -39.666 -19 -54.999s-34.334 -23 -65.001 -23z" />
    <glyph glyph-name="guillemotright" unicode="&#xbb;" horiz-adv-x="373" 
d="M184 342c2.66699 0 19.332 -13.001 49.999 -39.001l110 -94c4 -3.33301 6 -7 6 -11c0 -4.66699 -2 -8 -6 -10c-103.333 -89.333 -156.666 -134.333 -159.999 -135c-3.33301 0 -6.83301 2.16699 -10.5 6.5s-5.5 8.5 -5.5 12.5c0 2.66699 9.33301 14.667 28 36l70 81
c2 3.33301 3 6.33301 3 9s-1 5.33398 -3 8.00098c-66 76 -99.333 115 -100 117c0 4.66699 2 9 6 13s8 6 12 6zM40.998 341.999c2.66699 0 55.332 -44.3311 157.999 -132.998c5.33301 -3.33301 8 -7 8 -11s-2 -7.33301 -6 -10
c-103.333 -89.333 -156.666 -134.333 -159.999 -135c-4 0 -7.66699 2 -11 6s-5 8.33301 -5 13c0 3.33301 17.667 25.666 53 66.999l43 50c3.33301 3.33301 5 6.66602 5 9.99902c0 2 -1 4.33301 -3 7l-96 106c-2.66699 4 -4 7.66699 -4 11c0 4.66699 2 9 6 13s8 6 12 6z" />
    <glyph glyph-name="questiondown" unicode="&#xbf;" horiz-adv-x="389" 
d="M198 586c-16.667 0 -31.167 5.83203 -43.5 17.499s-18.5 25.834 -18.5 42.501c0 16 6 30.167 18 42.5s26.667 18.5 44 18.5c16.667 0 31 -6 43 -18s18 -26.667 18 -44s-6 -31.5 -18 -42.5s-26.333 -16.5 -43 -16.5zM197 -16.001c-59.333 0 -104.502 16 -135.502 48
s-46.5 66 -46.5 102c0 23.333 5.83301 45.166 17.5 65.499s25.834 38.5 42.501 54.5l50 48c16.667 16 30.834 35.333 42.501 58s17.5 47 17.5 73c0 3.33301 -0.166992 7.5 -0.5 12.5s-0.5 8.5 -0.5 10.5c0 12.667 2.83301 22 8.5 28s11.834 9 18.501 9
c18.667 0 28 -19 28 -57c0 -30 -7.16699 -59.333 -21.5 -88s-30 -52.5 -47 -71.5s-32.667 -41.833 -47 -68.5s-21.5 -53 -21.5 -79c0 -29.333 8.66699 -54.333 26 -75s38.333 -31 63 -31c14.667 0 27.334 3.83301 38.001 11.5s18.5 16.334 23.5 26.001
s11.667 18.334 20 26.001s18.166 11.5 29.499 11.5c12.667 0 23 -4.33301 31 -13s12 -19.334 12 -32.001c0 -30.667 -21.667 -50.667 -65 -60c-26.667 -6 -54.334 -9 -83.001 -9z" />
    <glyph glyph-name="Agrave" unicode="&#xc0;" horiz-adv-x="840" 
d="M295 883c0 11.333 3.83301 20.332 11.5 26.999s17.167 10 28.5 10c15.333 0 33.333 -8 54 -24c100.667 -73.333 152.667 -112.333 156 -117c2.66699 -5.33301 4 -9.66602 4 -12.999c0 -6 -2 -10.667 -6 -14s-8.66699 -5 -14 -5h-1c-4.66699 0 -68.334 29.333 -191.001 88
l-5 2l-6 3c-1.33301 0.666992 -3.5 2 -6.5 4s-5.5 3.83301 -7.5 5.5s-4.16699 3.66699 -6.5 6s-4.16602 4.83301 -5.49902 7.5s-2.5 5.66699 -3.5 9s-1.5 7 -1.5 11zM140 -0.000976562c-11.333 0 -22.665 -0.167969 -33.998 -0.500977s-21.333 -0.833008 -30 -1.5
s-16.334 -1.33398 -23.001 -2.00098s-12 -1.16699 -16 -1.5s-6.33301 -0.5 -7 -0.5c-14 0 -21 7 -21 21c0 3.33301 0.166992 6.16602 0.5 8.49902s1 4.5 2 6.5l2.5 5c0.666992 1.33301 2.16699 2.5 4.5 3.5s3.83301 1.66699 4.5 2s2.83398 0.833008 6.50098 1.5
s6 1.16699 7 1.5s4 0.833008 9 1.5s8.16699 1 9.5 1c16 2 28 6.16699 36 12.5s15.667 18.5 23 36.5c48 107.333 100 216.666 156 327.999c98.667 186.667 149.667 282.334 153 287.001c1.33301 1.33301 3.33301 3 6 5c7.33301 5.33301 15.666 8 24.999 8
c18 0 32.333 -13 43 -39l147 -340c74.667 -180.667 112.667 -272 114 -274c7.33301 -10.667 17.166 -17.667 29.499 -21s23 -5.66602 32 -6.99902s14.167 -5.33301 15.5 -12c1.33301 -5.33301 2 -10 2 -14c0 -14.667 -7 -22 -21 -22l-17 2
c-11.333 0.666992 -26.5 1.5 -45.5 2.5s-37.5 1.5 -55.5 1.5c-22 0 -42 -0.5 -60 -1.5s-32.167 -2 -42.5 -3s-16.5 -1.5 -18.5 -1.5c-14 0 -21 5.66699 -21 17c0 3.33301 0.166992 6.33301 0.5 9s1 5.16699 2 7.5s1.66699 4.16602 2 5.49902s1.83301 2.66602 4.5 3.99902
s4.66699 2.16602 6 2.49902s4 0.833008 8 1.5s7.16699 1.16699 9.5 1.5s6.5 0.833008 12.5 1.5s11 1.33398 15 2.00098c14 2.66699 21 9.33398 21 20.001c0 10 -8.16699 40.5 -24.5 91.5s-33.833 97.5 -52.5 139.5c-2.66699 6.66699 -8.66699 10 -18 10h-241
c-10.667 0 -18.334 -4 -23.001 -12c-23.333 -43.333 -44.166 -88.166 -62.499 -134.499s-27.5 -75.166 -27.5 -86.499c0 -12 3.83301 -19.833 11.5 -23.5s21.167 -6.5 40.5 -8.5c6 0 10.333 -0.333008 13 -1c14.667 -1.33301 22 -9.66602 22 -24.999
c0 -14.667 -7.33301 -22 -22 -22c-2 0 -7.83301 0.5 -17.5 1.5s-23 2 -40 3s-35.5 1.5 -55.5 1.5zM521.001 359.998c6 0 9 2.66797 9 8.00098s-13.167 38.666 -39.5 99.999s-43.166 98.333 -50.499 111c-2.66699 4.66699 -6.33398 7 -11.001 7c-6 0 -12.333 -6 -19 -18
c-70 -132 -105 -199.667 -105 -203s2 -5 6 -5h210z" />
    <glyph glyph-name="Aacute" unicode="&#xc1;" horiz-adv-x="840" 
d="M580 919c11.333 0 21.001 -3.50098 29.001 -10.501s12 -15.833 12 -26.5c0 -2.66699 -0.333008 -5.5 -1 -8.5s-1.33398 -5.5 -2.00098 -7.5s-1.83398 -4.16699 -3.50098 -6.5s-3.16699 -4.16602 -4.5 -5.49902s-3 -2.83301 -5 -4.5s-3.66699 -3 -5 -4
s-3.33301 -2.16699 -6 -3.5s-4.5 -2.33301 -5.5 -3s-2.66699 -1.66699 -5 -3s-3.83301 -2 -4.5 -2c-123.333 -58.667 -187 -88 -191 -88c-5.33301 0 -10.166 1.83301 -14.499 5.5s-6.5 8.5 -6.5 14.5c0 9.33301 6.66699 18.333 20 27l141 102c20.667 16 38 24 52 24z
M140.001 -0.000976562c-11.333 0 -22.665 -0.167969 -33.998 -0.500977s-21.333 -0.833008 -30 -1.5s-16.334 -1.33398 -23.001 -2.00098s-12 -1.16699 -16 -1.5s-6.33301 -0.5 -7 -0.5c-14 0 -21 7 -21 21c0 3.33301 0.166992 6.16602 0.5 8.49902s1 4.5 2 6.5l2.5 5
c0.666992 1.33301 2.16699 2.5 4.5 3.5s3.83301 1.66699 4.5 2s2.83398 0.833008 6.50098 1.5s6 1.16699 7 1.5s4 0.833008 9 1.5s8.16699 1 9.5 1c16 2 28 6.16699 36 12.5s15.667 18.5 23 36.5c48 107.333 100 216.666 156 327.999
c98.667 186.667 149.667 282.334 153 287.001c1.33301 1.33301 3.33301 3 6 5c7.33301 5.33301 15.666 8 24.999 8c18 0 32.333 -13 43 -39l147 -340c74.667 -180.667 112.667 -272 114 -274c7.33301 -10.667 17.166 -17.667 29.499 -21s23 -5.66602 32 -6.99902
s14.167 -5.33301 15.5 -12c1.33301 -5.33301 2 -10 2 -14c0 -14.667 -7 -22 -21 -22l-17 2c-11.333 0.666992 -26.5 1.5 -45.5 2.5s-37.5 1.5 -55.5 1.5c-22 0 -42 -0.5 -60 -1.5s-32.167 -2 -42.5 -3s-16.5 -1.5 -18.5 -1.5c-14 0 -21 5.66699 -21 17
c0 3.33301 0.166992 6.33301 0.5 9s1 5.16699 2 7.5s1.66699 4.16602 2 5.49902s1.83301 2.66602 4.5 3.99902s4.66699 2.16602 6 2.49902s4 0.833008 8 1.5s7.16699 1.16699 9.5 1.5s6.5 0.833008 12.5 1.5s11 1.33398 15 2.00098c14 2.66699 21 9.33398 21 20.001
c0 10 -8.16699 40.5 -24.5 91.5s-33.833 97.5 -52.5 139.5c-2.66699 6.66699 -8.66699 10 -18 10h-241c-10.667 0 -18.334 -4 -23.001 -12c-23.333 -43.333 -44.166 -88.166 -62.499 -134.499s-27.5 -75.166 -27.5 -86.499c0 -12 3.83301 -19.833 11.5 -23.5
s21.167 -6.5 40.5 -8.5c6 0 10.333 -0.333008 13 -1c14.667 -1.33301 22 -9.66602 22 -24.999c0 -14.667 -7.33301 -22 -22 -22c-2 0 -7.83301 0.5 -17.5 1.5s-23 2 -40 3s-35.5 1.5 -55.5 1.5zM521.002 359.998c6 0 9 2.66797 9 8.00098s-13.167 38.666 -39.5 99.999
s-43.166 98.333 -50.499 111c-2.66699 4.66699 -6.33398 7 -11.001 7c-6 0 -12.333 -6 -19 -18c-70 -132 -105 -199.667 -105 -203s2 -5 6 -5h210z" />
    <glyph glyph-name="Acircumflex" unicode="&#xc2;" horiz-adv-x="840" 
d="M342 746c-5.33301 0 -9.33203 1.66504 -11.999 4.99805s-4 6.33301 -4 9c0 4.66699 12.333 22.334 37 53.001l51 63c12 16 25 24 39 24c8.66699 0 17.334 -4.66699 26.001 -14c62.667 -77.333 94.334 -117.333 95.001 -120c0.666992 -1.33301 1 -3 1 -5
c0 -3.33301 -1.33301 -6.66602 -4 -9.99902s-6.66699 -5 -12 -5c-8.66699 0 -17.667 4.66699 -27 14l-17 14.5l-14.5 12l-11.5 9.5l-9.5 8c-2.33301 2 -4.83301 4 -7.5 6s-4.83398 3.5 -6.50098 4.5s-3.33398 1.83301 -5.00098 2.5s-3.33398 1.16699 -5.00098 1.5
s-3.16699 0.5 -4.5 0.5c-9.33301 0 -27.833 -12.167 -55.5 -36.5s-45.5 -36.5 -53.5 -36.5zM140.001 -0.00195312c-11.333 0 -22.665 -0.167969 -33.998 -0.500977s-21.333 -0.833008 -30 -1.5s-16.334 -1.33398 -23.001 -2.00098s-12 -1.16699 -16 -1.5
s-6.33301 -0.5 -7 -0.5c-14 0 -21 7 -21 21c0 3.33301 0.166992 6.16602 0.5 8.49902s1 4.5 2 6.5l2.5 5c0.666992 1.33301 2.16699 2.5 4.5 3.5s3.83301 1.66699 4.5 2s2.83398 0.833008 6.50098 1.5s6 1.16699 7 1.5s4 0.833008 9 1.5s8.16699 1 9.5 1
c16 2 28 6.16699 36 12.5s15.667 18.5 23 36.5c48 107.333 100 216.666 156 327.999c98.667 186.667 149.667 282.334 153 287.001c1.33301 1.33301 3.33301 3 6 5c7.33301 5.33301 15.666 8 24.999 8c18 0 32.333 -13 43 -39l147 -340
c74.667 -180.667 112.667 -272 114 -274c7.33301 -10.667 17.166 -17.667 29.499 -21s23 -5.66602 32 -6.99902s14.167 -5.33301 15.5 -12c1.33301 -5.33301 2 -10 2 -14c0 -14.667 -7 -22 -21 -22l-17 2c-11.333 0.666992 -26.5 1.5 -45.5 2.5s-37.5 1.5 -55.5 1.5
c-22 0 -42 -0.5 -60 -1.5s-32.167 -2 -42.5 -3s-16.5 -1.5 -18.5 -1.5c-14 0 -21 5.66699 -21 17c0 3.33301 0.166992 6.33301 0.5 9s1 5.16699 2 7.5s1.66699 4.16602 2 5.49902s1.83301 2.66602 4.5 3.99902s4.66699 2.16602 6 2.49902s4 0.833008 8 1.5
s7.16699 1.16699 9.5 1.5s6.5 0.833008 12.5 1.5s11 1.33398 15 2.00098c14 2.66699 21 9.33398 21 20.001c0 10 -8.16699 40.5 -24.5 91.5s-33.833 97.5 -52.5 139.5c-2.66699 6.66699 -8.66699 10 -18 10h-241c-10.667 0 -18.334 -4 -23.001 -12
c-23.333 -43.333 -44.166 -88.166 -62.499 -134.499s-27.5 -75.166 -27.5 -86.499c0 -12 3.83301 -19.833 11.5 -23.5s21.167 -6.5 40.5 -8.5c6 0 10.333 -0.333008 13 -1c14.667 -1.33301 22 -9.66602 22 -24.999c0 -14.667 -7.33301 -22 -22 -22
c-2 0 -7.83301 0.5 -17.5 1.5s-23 2 -40 3s-35.5 1.5 -55.5 1.5zM521.002 359.997c6 0 9 2.66797 9 8.00098s-13.167 38.666 -39.5 99.999s-43.166 98.333 -50.499 111c-2.66699 4.66699 -6.33398 7 -11.001 7c-6 0 -12.333 -6 -19 -18c-70 -132 -105 -199.667 -105 -203
s2 -5 6 -5h210z" />
    <glyph glyph-name="Atilde" unicode="&#xc3;" horiz-adv-x="840" 
d="M503 818c14 0 26.667 3.83301 38 11.5s20.5 15.5 27.5 23.5s11.833 12 14.5 12s6.66699 -1.33301 12 -4s8 -5.66699 8 -9c0 -4 -6.66699 -14 -20 -30s-26 -28.333 -38 -37c-18.667 -14.667 -38.334 -22 -59.001 -22c-18 0 -37.667 7.66699 -59 23s-38.333 23 -51 23
c-13.333 0 -25.166 -4.5 -35.499 -13.5s-18.5 -18 -24.5 -27s-9.66699 -13.5 -11 -13.5c-2 0 -4.83301 2 -8.5 6s-5.5 7.33301 -5.5 10c0 2 6 12 18 30s21.333 30.333 28 37c16 16 33.333 24 52 24c15.333 0 34.333 -7.33301 57 -22s41.667 -22 57 -22zM140 0
c-11.333 0 -22.665 -0.167969 -33.998 -0.500977s-21.333 -0.833008 -30 -1.5s-16.334 -1.33398 -23.001 -2.00098s-12 -1.16699 -16 -1.5s-6.33301 -0.5 -7 -0.5c-14 0 -21 7 -21 21c0 3.33301 0.166992 6.16602 0.5 8.49902s1 4.5 2 6.5l2.5 5
c0.666992 1.33301 2.16699 2.5 4.5 3.5s3.83301 1.66699 4.5 2s2.83398 0.833008 6.50098 1.5s6 1.16699 7 1.5s4 0.833008 9 1.5s8.16699 1 9.5 1c16 2 28 6.16699 36 12.5s15.667 18.5 23 36.5c48 107.333 100 216.666 156 327.999
c98.667 186.667 149.667 282.334 153 287.001c1.33301 1.33301 3.33301 3 6 5c7.33301 5.33301 15.666 8 24.999 8c18 0 32.333 -13 43 -39l147 -340c74.667 -180.667 112.667 -272 114 -274c7.33301 -10.667 17.166 -17.667 29.499 -21s23 -5.66602 32 -6.99902
s14.167 -5.33301 15.5 -12c1.33301 -5.33301 2 -10 2 -14c0 -14.667 -7 -22 -21 -22l-17 2c-11.333 0.666992 -26.5 1.5 -45.5 2.5s-37.5 1.5 -55.5 1.5c-22 0 -42 -0.5 -60 -1.5s-32.167 -2 -42.5 -3s-16.5 -1.5 -18.5 -1.5c-14 0 -21 5.66699 -21 17
c0 3.33301 0.166992 6.33301 0.5 9s1 5.16699 2 7.5s1.66699 4.16602 2 5.49902s1.83301 2.66602 4.5 3.99902s4.66699 2.16602 6 2.49902s4 0.833008 8 1.5s7.16699 1.16699 9.5 1.5s6.5 0.833008 12.5 1.5s11 1.33398 15 2.00098c14 2.66699 21 9.33398 21 20.001
c0 10 -8.16699 40.5 -24.5 91.5s-33.833 97.5 -52.5 139.5c-2.66699 6.66699 -8.66699 10 -18 10h-241c-10.667 0 -18.334 -4 -23.001 -12c-23.333 -43.333 -44.166 -88.166 -62.499 -134.499s-27.5 -75.166 -27.5 -86.499c0 -12 3.83301 -19.833 11.5 -23.5
s21.167 -6.5 40.5 -8.5c6 0 10.333 -0.333008 13 -1c14.667 -1.33301 22 -9.66602 22 -24.999c0 -14.667 -7.33301 -22 -22 -22c-2 0 -7.83301 0.5 -17.5 1.5s-23 2 -40 3s-35.5 1.5 -55.5 1.5zM521.001 359.999c6 0 9 2.66797 9 8.00098s-13.167 38.666 -39.5 99.999
s-43.166 98.333 -50.499 111c-2.66699 4.66699 -6.33398 7 -11.001 7c-6 0 -12.333 -6 -19 -18c-70 -132 -105 -199.667 -105 -203s2 -5 6 -5h210z" />
    <glyph glyph-name="Adieresis" unicode="&#xc4;" horiz-adv-x="840" 
d="M472 794c0 13.333 4.83301 24.667 14.5 34s21.167 14 34.5 14c14 0 25.667 -4.5 35 -13.5s14 -20.167 14 -33.5c0 -14 -4.83301 -25.667 -14.5 -35s-21.167 -14 -34.5 -14c-14 0 -25.667 4.5 -35 13.5s-14 20.5 -14 34.5zM333 794.001c0 13.333 4.83301 24.667 14.5 34
s21.167 14 34.5 14c14 0 25.833 -4.5 35.5 -13.5s14.5 -20.167 14.5 -33.5c0 -14 -4.83301 -25.667 -14.5 -35s-21.5 -14 -35.5 -14s-25.667 4.5 -35 13.5s-14 20.5 -14 34.5zM140 0.00195312c-11.333 0 -22.665 -0.167969 -33.998 -0.500977s-21.333 -0.833008 -30 -1.5
s-16.334 -1.33398 -23.001 -2.00098s-12 -1.16699 -16 -1.5s-6.33301 -0.5 -7 -0.5c-14 0 -21 7 -21 21c0 3.33301 0.166992 6.16602 0.5 8.49902s1 4.5 2 6.5l2.5 5c0.666992 1.33301 2.16699 2.5 4.5 3.5s3.83301 1.66699 4.5 2s2.83398 0.833008 6.50098 1.5
s6 1.16699 7 1.5s4 0.833008 9 1.5s8.16699 1 9.5 1c16 2 28 6.16699 36 12.5s15.667 18.5 23 36.5c48 107.333 100 216.666 156 327.999c98.667 186.667 149.667 282.334 153 287.001c1.33301 1.33301 3.33301 3 6 5c7.33301 5.33301 15.666 8 24.999 8
c18 0 32.333 -13 43 -39l147 -340c74.667 -180.667 112.667 -272 114 -274c7.33301 -10.667 17.166 -17.667 29.499 -21s23 -5.66602 32 -6.99902s14.167 -5.33301 15.5 -12c1.33301 -5.33301 2 -10 2 -14c0 -14.667 -7 -22 -21 -22l-17 2
c-11.333 0.666992 -26.5 1.5 -45.5 2.5s-37.5 1.5 -55.5 1.5c-22 0 -42 -0.5 -60 -1.5s-32.167 -2 -42.5 -3s-16.5 -1.5 -18.5 -1.5c-14 0 -21 5.66699 -21 17c0 3.33301 0.166992 6.33301 0.5 9s1 5.16699 2 7.5s1.66699 4.16602 2 5.49902s1.83301 2.66602 4.5 3.99902
s4.66699 2.16602 6 2.49902s4 0.833008 8 1.5s7.16699 1.16699 9.5 1.5s6.5 0.833008 12.5 1.5s11 1.33398 15 2.00098c14 2.66699 21 9.33398 21 20.001c0 10 -8.16699 40.5 -24.5 91.5s-33.833 97.5 -52.5 139.5c-2.66699 6.66699 -8.66699 10 -18 10h-241
c-10.667 0 -18.334 -4 -23.001 -12c-23.333 -43.333 -44.166 -88.166 -62.499 -134.499s-27.5 -75.166 -27.5 -86.499c0 -12 3.83301 -19.833 11.5 -23.5s21.167 -6.5 40.5 -8.5c6 0 10.333 -0.333008 13 -1c14.667 -1.33301 22 -9.66602 22 -24.999
c0 -14.667 -7.33301 -22 -22 -22c-2 0 -7.83301 0.5 -17.5 1.5s-23 2 -40 3s-35.5 1.5 -55.5 1.5zM521.001 360.001c6 0 9 2.66797 9 8.00098s-13.167 38.666 -39.5 99.999s-43.166 98.333 -50.499 111c-2.66699 4.66699 -6.33398 7 -11.001 7c-6 0 -12.333 -6 -19 -18
c-70 -132 -105 -199.667 -105 -203s2 -5 6 -5h210z" />
    <glyph glyph-name="Aring" unicode="&#xc5;" horiz-adv-x="840" 
d="M453 911c24 0 44.5 -9 61.5 -27s25.5 -39.333 25.5 -64s-8.5 -45.834 -25.5 -63.501s-37.5 -26.5 -61.5 -26.5c-23.333 0 -43.666 8.83301 -60.999 26.5s-26 38.834 -26 63.501s8.66699 46 26 64s37.666 27 60.999 27zM453 872c-12.667 0 -23.5 -5 -32.5 -15
s-13.5 -21.667 -13.5 -35c0 -14 4.5 -26.167 13.5 -36.5s20.167 -15.5 33.5 -15.5s24.333 5 33 15s13 21.667 13 35s-4.5 25.333 -13.5 36s-20.167 16 -33.5 16zM140 0c-11.333 0 -22.665 -0.167969 -33.998 -0.500977s-21.333 -0.833008 -30 -1.5
s-16.334 -1.33398 -23.001 -2.00098s-12 -1.16699 -16 -1.5s-6.33301 -0.5 -7 -0.5c-14 0 -21 7 -21 21c0 3.33301 0.166992 6.16602 0.5 8.49902s1 4.5 2 6.5l2.5 5c0.666992 1.33301 2.16699 2.5 4.5 3.5s3.83301 1.66699 4.5 2s2.83398 0.833008 6.50098 1.5
s6 1.16699 7 1.5s4 0.833008 9 1.5s8.16699 1 9.5 1c16 2 28 6.16699 36 12.5s15.667 18.5 23 36.5c48 107.333 100 216.666 156 327.999c98.667 186.667 149.667 282.334 153 287.001c1.33301 1.33301 3.33301 3 6 5c7.33301 5.33301 15.666 8 24.999 8
c18 0 32.333 -13 43 -39l147 -340c74.667 -180.667 112.667 -272 114 -274c7.33301 -10.667 17.166 -17.667 29.499 -21s23 -5.66602 32 -6.99902s14.167 -5.33301 15.5 -12c1.33301 -5.33301 2 -10 2 -14c0 -14.667 -7 -22 -21 -22l-17 2
c-11.333 0.666992 -26.5 1.5 -45.5 2.5s-37.5 1.5 -55.5 1.5c-22 0 -42 -0.5 -60 -1.5s-32.167 -2 -42.5 -3s-16.5 -1.5 -18.5 -1.5c-14 0 -21 5.66699 -21 17c0 3.33301 0.166992 6.33301 0.5 9s1 5.16699 2 7.5s1.66699 4.16602 2 5.49902s1.83301 2.66602 4.5 3.99902
s4.66699 2.16602 6 2.49902s4 0.833008 8 1.5s7.16699 1.16699 9.5 1.5s6.5 0.833008 12.5 1.5s11 1.33398 15 2.00098c14 2.66699 21 9.33398 21 20.001c0 10 -8.16699 40.5 -24.5 91.5s-33.833 97.5 -52.5 139.5c-2.66699 6.66699 -8.66699 10 -18 10h-241
c-10.667 0 -18.334 -4 -23.001 -12c-23.333 -43.333 -44.166 -88.166 -62.499 -134.499s-27.5 -75.166 -27.5 -86.499c0 -12 3.83301 -19.833 11.5 -23.5s21.167 -6.5 40.5 -8.5c6 0 10.333 -0.333008 13 -1c14.667 -1.33301 22 -9.66602 22 -24.999
c0 -14.667 -7.33301 -22 -22 -22c-2 0 -7.83301 0.5 -17.5 1.5s-23 2 -40 3s-35.5 1.5 -55.5 1.5zM521.001 359.999c6 0 9 2.66797 9 8.00098s-13.167 38.666 -39.5 99.999s-43.166 98.333 -50.499 111c-2.66699 4.66699 -6.33398 7 -11.001 7c-6 0 -12.333 -6 -19 -18
c-70 -132 -105 -199.667 -105 -203s2 -5 6 -5h210z" />
    <glyph glyph-name="AE" unicode="&#xc6;" horiz-adv-x="1034" 
d="M529 360v286c-10.667 0 -17.667 -1.66699 -21 -5c-20 -20.667 -54.833 -71 -104.5 -151s-74.5 -123.333 -74.5 -130h200zM315 691c0 4.66699 1.33789 10.332 4.00488 16.999s6.33398 10 11.001 10c2 0 7.33301 -0.333008 16 -1s24 -1.66699 46 -3
s48 -2.66602 78 -3.99902c17.333 -0.666992 100 -1 248 -1c140.667 0 212.667 -0.333008 216 -1c6.66699 -2 10.667 -7.66699 12 -17c2 -13.333 5.5 -30.833 10.5 -52.5l13.5 -56.5c4 -16 6 -24.333 6 -25c0 -5.33301 -2.66699 -9.83301 -8 -13.5s-11.333 -5.5 -18 -5.5
c-8.66699 0 -15 3.33301 -19 10c-2 4 -9.83301 21.5 -23.5 52.5s-21.834 48.5 -24.501 52.5h-229c-10 0 -17.333 -2.33301 -22 -7s-7.33398 -9.16699 -8.00098 -13.5s-1 -11.833 -1 -22.5v-150c0 -15.333 6.66699 -23 20 -23h157c17.333 0 28.166 3.16699 32.499 9.5
s6.5 18.833 6.5 37.5v19c0 14.667 9 22 27 22c18.667 0 28 -9.66699 28 -29v-189c0 -19.333 -9.33301 -29 -28 -29c-8 0 -14.167 1.33301 -18.5 4s-6.83301 5.33398 -7.5 8.00098s-1 6 -1 10v40c0 16 -1.5 26.333 -4.5 31s-10.5 7 -22.5 7h-141
c-10.667 0 -19 -0.666992 -25 -2s-11.667 -5.16602 -17 -11.499s-8 -15.5 -8 -27.5v-226c0 -12.667 0.333008 -21.5 1 -26.5s3.33398 -9.5 8.00098 -13.5s12.334 -6.66699 23.001 -8c30 -4.66699 62.333 -7 97 -7c34 0 65 2.33301 93 7s45.667 9.66699 53 15
c6 4.66699 18 23.167 36 55.5s29.667 50.166 35 53.499c3.33301 2 6.66602 3 9.99902 3c12 0 18 -7.66699 18 -23c0 -8 -10.333 -57 -31 -147c-2 -9.33301 -5.5 -15 -10.5 -17s-13.5 -3 -25.5 -3h-484c-11.333 0 -17 5 -17 15s4.5 17.167 13.5 21.5s19.167 6.5 30.5 6.5
s22.833 1.66699 34.5 5s19.5 9.66602 23.5 18.999v240h-181c-26 0 -41.333 -0.5 -46 -1.5s-8.66699 -4.16699 -12 -9.5c-26.667 -42 -51 -86.833 -73 -134.5s-33 -76.834 -33 -87.501c0 -4 0.5 -7.5 1.5 -10.5s2.83301 -5.5 5.5 -7.5s5.16699 -3.66699 7.5 -5
s6 -2.5 11 -3.5s9.33301 -1.83301 13 -2.5s9.33398 -1.5 17.001 -2.5s13.834 -1.83301 18.501 -2.5c12 -1.33301 18 -9.33301 18 -24s-5.66699 -22 -17 -22c-0.666992 0 -3.33398 0.166992 -8.00098 0.5s-10.834 0.833008 -18.501 1.5s-16.334 1.33398 -26.001 2.00098
s-21 1.16699 -34 1.5s-25.5 0.5 -37.5 0.5c-12.667 -0 -25.334 -0.166992 -38.001 -0.5s-23.834 -0.833008 -33.501 -1.5s-18.167 -1.33398 -25.5 -2.00098s-13.333 -1.16699 -18 -1.5s-7.33398 -0.5 -8.00098 -0.5c-10.667 0 -16 7 -16 21c0 12 3.66699 19.333 11 22
c2.66699 0.666992 9 1.83398 19 3.50098s19.667 4 29 7s17.333 7.16699 24 12.5s14.667 16.833 24 34.5l56 103c28 51 61.333 108.167 100 171.5l71 112.5l51 76l31.5 44c9 12.333 15 21 18 26s4.5 9.16699 4.5 12.5c0 10 -22 18 -66 24c-14 2 -25 3.66699 -33 5
c-14 2 -21 9.33301 -21 22z" />
    <glyph glyph-name="Ccedilla" unicode="&#xc7;" horiz-adv-x="716" 
d="M372 -24c-100 4.66699 -183.835 42.6709 -251.502 114.004s-101.5 155.666 -101.5 252.999c0 50 10.333 98.333 31 145s48.334 86.667 83.001 120c73.333 70 160.333 105 261 105h1c36.667 0 70.5 -4.5 101.5 -13.5s55 -18.167 72 -27.5s26.167 -14 27.5 -14
c5.33301 0 10 5.66699 14 17s9.33301 18 16 20c1.33301 0 3.33301 0.166992 6 0.5s4.33398 0.5 5.00098 0.5c7.33301 0 11.666 -4 12.999 -12l7 -52l14 -107c4.66699 -36 7 -55.333 7 -58c0 -11.333 -7 -17 -21 -17c-12.667 0 -20 2.16699 -22 6.5
s-4.33301 18.166 -7 41.499c-3.33301 25.333 -12.333 47.666 -27 66.999c-23.333 29.333 -53 53.5 -89 72.5s-76 28.5 -120 28.5c-74 0 -138.167 -28 -192.5 -84s-81.5 -129.333 -81.5 -220c0 -94 28 -173.167 84 -237.5s124 -96.5 204 -96.5c60 0 114.833 18.333 164.5 55
s83.834 85.334 102.501 146.001c3.33301 9.33301 8.33301 14 15 14c11.333 0 17 -4 17 -12c-15.333 -106 -24 -161.333 -26 -166c-3.33301 -11.333 -11 -17 -23 -17h-1h-28c-8 0 -13.833 -0.666992 -17.5 -2s-8.66699 -4.33301 -15 -9s-11.5 -8 -15.5 -10
c-54 -31.333 -111.667 -48.666 -173 -51.999c-1.33301 -4 -2.66602 -7.16699 -3.99902 -9.5s-2 -4.16602 -2 -5.49902l-1 -1c0 -2 1.33301 -3 4 -3h4c25.333 0 46 -6.83301 62 -20.5s24 -32.834 24 -57.501v-1c0 -20.667 -6.5 -38.667 -19.5 -54s-34.5 -23 -64.5 -23
c-15.333 0 -32.166 1.83301 -50.499 5.5s-28.5 6.5 -30.5 8.5c-2.66699 2 -4 4.33301 -4 7c0 1.33301 0.333008 3.66602 1 6.99902s2.16699 7 4.5 11s5.16602 6 8.49902 6l4 -1c2.66699 -0.666992 6 -1.33398 10 -2.00098l12.5 -2c4.33301 -0.666992 9 -1.33398 14 -2.00098
s9.16699 -1 12.5 -1c11.333 0 20.666 3.16699 27.999 9.5s11 14.166 11 23.499c0 14 -6.83301 26 -20.5 36s-31.167 15.667 -52.5 17c-3.33301 0 -5 1 -5 3c0 0.666992 6.66699 17.334 20 50.001z" />
    <glyph glyph-name="Egrave" unicode="&#xc8;" horiz-adv-x="591" 
d="M164 883c0 11.333 3.83301 20.332 11.5 26.999s17.167 10 28.5 10c15.333 0 33.333 -8 54 -24c100.667 -73.333 152.667 -112.333 156 -117c2.66699 -5.33301 4 -9.66602 4 -12.999c0 -6 -2 -10.667 -6 -14s-8.66699 -5 -14 -5h-1c-4.66699 0 -68.334 29.333 -191.001 88
l-5 2l-6 3c-1.33301 0.666992 -3.5 2 -6.5 4s-5.5 3.83301 -7.5 5.5s-4.16699 3.66699 -6.5 6s-4.16602 4.83301 -5.49902 7.5s-2.5 5.66699 -3.5 9s-1.5 7 -1.5 11zM446 524.999c19.333 0 29.001 -9.67188 29.001 -29.0049v-189c0 -19.333 -9.66699 -29 -29 -29
c-18 0 -27 7.33301 -27 22v55c0 15.333 -9 23 -27 23h-141c-7.33301 0 -13.333 -0.333008 -18 -1s-9.83398 -2.16699 -15.501 -4.5s-9.83398 -6.5 -12.501 -12.5s-4 -13.667 -4 -23v-235c0 -7.33301 0.5 -13.166 1.5 -17.499s4 -8.66602 9 -12.999
s12.167 -7.16602 21.5 -8.49902c30 -4.66699 62 -7 96 -7c22.667 0 50.667 2 84 6s54.333 9.33301 63 16c6 4.66699 18 23.167 36 55.5s29.667 50.166 35 53.499c4 2 7.33301 3 10 3c4.66699 0 8.83398 -2 12.501 -6s5.5 -9.66699 5.5 -17v-1c0 -6 -10.333 -54.667 -31 -146
c-1.33301 -8 -4.16602 -13.333 -8.49902 -16s-11.833 -4 -22.5 -4h-352c-30.667 0 -59.167 -2 -85.5 -6s-40.166 -6 -41.499 -6c-8 0 -14.167 3.83301 -18.5 11.5s-6.5 13.834 -6.5 18.501c0 7.33301 2.66699 12.666 8 15.999s18.666 9 39.999 17
c12 4.66699 22 8.33398 30 11.001c15.333 5.33301 23 18.666 23 39.999v534c0 7.33301 -1.66699 12 -5 14s-11 4 -23 6c-6 0.666992 -13.333 1.33398 -22 2.00098s-15.167 1.33398 -19.5 2.00098s-8.83301 1.83398 -13.5 3.50098s-8 4.16699 -10 7.5s-3 8 -3 14
c0 15.333 6.66699 23 20 23h471c11.333 0 18.666 -5.66699 21.999 -17l11.5 -53l13 -57.5c3.66699 -15.667 5.5 -24.167 5.5 -25.5c0 -10 -7 -15 -21 -15c-10.667 0 -20.334 6 -29.001 18c-30 52.667 -47 81.334 -51 86.001c-6 6 -15.667 9 -29 9h-193
c-13.333 0 -21.833 -3.33301 -25.5 -10s-5.5 -16.334 -5.5 -29.001v-154c0 -15.333 6.66699 -23 20 -23h157c7.33301 0 13.333 0.5 18 1.5s9.33398 4.16699 14.001 9.5s7 13 7 23v32c0 14.667 9 22 27 22z" />
    <glyph glyph-name="Eacute" unicode="&#xc9;" horiz-adv-x="591" 
d="M378 919c11.333 0 21.001 -3.50098 29.001 -10.501s12 -15.833 12 -26.5c0 -2.66699 -0.333008 -5.5 -1 -8.5s-1.33398 -5.5 -2.00098 -7.5s-1.83398 -4.16699 -3.50098 -6.5s-3.16699 -4.16602 -4.5 -5.49902s-3 -2.83301 -5 -4.5s-3.66699 -3 -5 -4
s-3.33301 -2.16699 -6 -3.5s-4.5 -2.33301 -5.5 -3s-2.66699 -1.66699 -5 -3s-3.83301 -2 -4.5 -2c-123.333 -58.667 -187 -88 -191 -88c-5.33301 0 -10.166 1.83301 -14.499 5.5s-6.5 8.5 -6.5 14.5c0 9.33301 6.66699 18.333 20 27l141 102c20.667 16 38 24 52 24z
M446.001 524.999c19.333 0 29.001 -9.67188 29.001 -29.0049v-189c0 -19.333 -9.66699 -29 -29 -29c-18 0 -27 7.33301 -27 22v55c0 15.333 -9 23 -27 23h-141c-7.33301 0 -13.333 -0.333008 -18 -1s-9.83398 -2.16699 -15.501 -4.5s-9.83398 -6.5 -12.501 -12.5
s-4 -13.667 -4 -23v-235c0 -7.33301 0.5 -13.166 1.5 -17.499s4 -8.66602 9 -12.999s12.167 -7.16602 21.5 -8.49902c30 -4.66699 62 -7 96 -7c22.667 0 50.667 2 84 6s54.333 9.33301 63 16c6 4.66699 18 23.167 36 55.5s29.667 50.166 35 53.499c4 2 7.33301 3 10 3
c4.66699 0 8.83398 -2 12.501 -6s5.5 -9.66699 5.5 -17v-1c0 -6 -10.333 -54.667 -31 -146c-1.33301 -8 -4.16602 -13.333 -8.49902 -16s-11.833 -4 -22.5 -4h-352c-30.667 0 -59.167 -2 -85.5 -6s-40.166 -6 -41.499 -6c-8 0 -14.167 3.83301 -18.5 11.5
s-6.5 13.834 -6.5 18.501c0 7.33301 2.66699 12.666 8 15.999s18.666 9 39.999 17c12 4.66699 22 8.33398 30 11.001c15.333 5.33301 23 18.666 23 39.999v534c0 7.33301 -1.66699 12 -5 14s-11 4 -23 6c-6 0.666992 -13.333 1.33398 -22 2.00098
s-15.167 1.33398 -19.5 2.00098s-8.83301 1.83398 -13.5 3.50098s-8 4.16699 -10 7.5s-3 8 -3 14c0 15.333 6.66699 23 20 23h471c11.333 0 18.666 -5.66699 21.999 -17l11.5 -53l13 -57.5c3.66699 -15.667 5.5 -24.167 5.5 -25.5c0 -10 -7 -15 -21 -15
c-10.667 0 -20.334 6 -29.001 18c-30 52.667 -47 81.334 -51 86.001c-6 6 -15.667 9 -29 9h-193c-13.333 0 -21.833 -3.33301 -25.5 -10s-5.5 -16.334 -5.5 -29.001v-154c0 -15.333 6.66699 -23 20 -23h157c7.33301 0 13.333 0.5 18 1.5s9.33398 4.16699 14.001 9.5
s7 13 7 23v32c0 14.667 9 22 27 22z" />
    <glyph glyph-name="Ecircumflex" unicode="&#xca;" horiz-adv-x="591" 
d="M184 746c-5.33301 0 -9.33203 1.66504 -11.999 4.99805s-4 6.33301 -4 9c0 4.66699 12.333 22.334 37 53.001l51 63c12 16 25 24 39 24c8.66699 0 17.334 -4.66699 26.001 -14c62.667 -77.333 94.334 -117.333 95.001 -120c0.666992 -1.33301 1 -3 1 -5
c0 -3.33301 -1.33301 -6.66602 -4 -9.99902s-6.66699 -5 -12 -5c-8.66699 0 -17.667 4.66699 -27 14l-17 14.5l-14.5 12l-11.5 9.5l-9.5 8c-2.33301 2 -4.83301 4 -7.5 6s-4.83398 3.5 -6.50098 4.5s-3.33398 1.83301 -5.00098 2.5s-3.33398 1.16699 -5.00098 1.5
s-3.16699 0.5 -4.5 0.5c-9.33301 0 -27.833 -12.167 -55.5 -36.5s-45.5 -36.5 -53.5 -36.5zM446.001 524.998c19.333 0 29.001 -9.67188 29.001 -29.0049v-189c0 -19.333 -9.66699 -29 -29 -29c-18 0 -27 7.33301 -27 22v55c0 15.333 -9 23 -27 23h-141
c-7.33301 0 -13.333 -0.333008 -18 -1s-9.83398 -2.16699 -15.501 -4.5s-9.83398 -6.5 -12.501 -12.5s-4 -13.667 -4 -23v-235c0 -7.33301 0.5 -13.166 1.5 -17.499s4 -8.66602 9 -12.999s12.167 -7.16602 21.5 -8.49902c30 -4.66699 62 -7 96 -7c22.667 0 50.667 2 84 6
s54.333 9.33301 63 16c6 4.66699 18 23.167 36 55.5s29.667 50.166 35 53.499c4 2 7.33301 3 10 3c4.66699 0 8.83398 -2 12.501 -6s5.5 -9.66699 5.5 -17v-1c0 -6 -10.333 -54.667 -31 -146c-1.33301 -8 -4.16602 -13.333 -8.49902 -16s-11.833 -4 -22.5 -4h-352
c-30.667 0 -59.167 -2 -85.5 -6s-40.166 -6 -41.499 -6c-8 0 -14.167 3.83301 -18.5 11.5s-6.5 13.834 -6.5 18.501c0 7.33301 2.66699 12.666 8 15.999s18.666 9 39.999 17c12 4.66699 22 8.33398 30 11.001c15.333 5.33301 23 18.666 23 39.999v534
c0 7.33301 -1.66699 12 -5 14s-11 4 -23 6c-6 0.666992 -13.333 1.33398 -22 2.00098s-15.167 1.33398 -19.5 2.00098s-8.83301 1.83398 -13.5 3.50098s-8 4.16699 -10 7.5s-3 8 -3 14c0 15.333 6.66699 23 20 23h471c11.333 0 18.666 -5.66699 21.999 -17l11.5 -53
l13 -57.5c3.66699 -15.667 5.5 -24.167 5.5 -25.5c0 -10 -7 -15 -21 -15c-10.667 0 -20.334 6 -29.001 18c-30 52.667 -47 81.334 -51 86.001c-6 6 -15.667 9 -29 9h-193c-13.333 0 -21.833 -3.33301 -25.5 -10s-5.5 -16.334 -5.5 -29.001v-154
c0 -15.333 6.66699 -23 20 -23h157c7.33301 0 13.333 0.5 18 1.5s9.33398 4.16699 14.001 9.5s7 13 7 23v32c0 14.667 9 22 27 22z" />
    <glyph glyph-name="Edieresis" unicode="&#xcb;" horiz-adv-x="591" 
d="M313 794c0 13.333 4.83301 24.667 14.5 34s21.167 14 34.5 14c14 0 25.667 -4.5 35 -13.5s14 -20.167 14 -33.5c0 -14 -4.83301 -25.667 -14.5 -35s-21.167 -14 -34.5 -14c-14 0 -25.667 4.5 -35 13.5s-14 20.5 -14 34.5zM174 794.001c0 13.333 4.83301 24.667 14.5 34
s21.167 14 34.5 14c14 0 25.833 -4.5 35.5 -13.5s14.5 -20.167 14.5 -33.5c0 -14 -4.83301 -25.667 -14.5 -35s-21.5 -14 -35.5 -14s-25.667 4.5 -35 13.5s-14 20.5 -14 34.5zM446 525.002c19.333 0 29.001 -9.67188 29.001 -29.0049v-189c0 -19.333 -9.66699 -29 -29 -29
c-18 0 -27 7.33301 -27 22v55c0 15.333 -9 23 -27 23h-141c-7.33301 0 -13.333 -0.333008 -18 -1s-9.83398 -2.16699 -15.501 -4.5s-9.83398 -6.5 -12.501 -12.5s-4 -13.667 -4 -23v-235c0 -7.33301 0.5 -13.166 1.5 -17.499s4 -8.66602 9 -12.999
s12.167 -7.16602 21.5 -8.49902c30 -4.66699 62 -7 96 -7c22.667 0 50.667 2 84 6s54.333 9.33301 63 16c6 4.66699 18 23.167 36 55.5s29.667 50.166 35 53.499c4 2 7.33301 3 10 3c4.66699 0 8.83398 -2 12.501 -6s5.5 -9.66699 5.5 -17v-1c0 -6 -10.333 -54.667 -31 -146
c-1.33301 -8 -4.16602 -13.333 -8.49902 -16s-11.833 -4 -22.5 -4h-352c-30.667 0 -59.167 -2 -85.5 -6s-40.166 -6 -41.499 -6c-8 0 -14.167 3.83301 -18.5 11.5s-6.5 13.834 -6.5 18.501c0 7.33301 2.66699 12.666 8 15.999s18.666 9 39.999 17
c12 4.66699 22 8.33398 30 11.001c15.333 5.33301 23 18.666 23 39.999v534c0 7.33301 -1.66699 12 -5 14s-11 4 -23 6c-6 0.666992 -13.333 1.33398 -22 2.00098s-15.167 1.33398 -19.5 2.00098s-8.83301 1.83398 -13.5 3.50098s-8 4.16699 -10 7.5s-3 8 -3 14
c0 15.333 6.66699 23 20 23h471c11.333 0 18.666 -5.66699 21.999 -17l11.5 -53l13 -57.5c3.66699 -15.667 5.5 -24.167 5.5 -25.5c0 -10 -7 -15 -21 -15c-10.667 0 -20.334 6 -29.001 18c-30 52.667 -47 81.334 -51 86.001c-6 6 -15.667 9 -29 9h-193
c-13.333 0 -21.833 -3.33301 -25.5 -10s-5.5 -16.334 -5.5 -29.001v-154c0 -15.333 6.66699 -23 20 -23h157c7.33301 0 13.333 0.5 18 1.5s9.33398 4.16699 14.001 9.5s7 13 7 23v32c0 14.667 9 22 27 22z" />
    <glyph glyph-name="Igrave" unicode="&#xcc;" horiz-adv-x="330" 
d="M35 883c0 11.333 3.83301 20.332 11.5 26.999s17.167 10 28.5 10c15.333 0 33.333 -8 54 -24c100.667 -73.333 152.667 -112.333 156 -117c2.66699 -5.33301 4 -9.66602 4 -12.999c0 -6 -2 -10.667 -6 -14s-8.66699 -5 -14 -5h-1c-4.66699 0 -68.334 29.333 -191.001 88
l-5 2l-6 3c-1.33301 0.666992 -3.5 2 -6.5 4s-5.5 3.83301 -7.5 5.5s-4.16699 3.66699 -6.5 6s-4.16602 4.83301 -5.49902 7.5s-2.5 5.66699 -3.5 9s-1.5 7 -1.5 11zM53 695.999l16.9971 -1.00293c11.333 -0.666992 26.333 -1.5 45 -2.5s37.334 -1.5 56.001 -1.5
c19.333 0 37 0.333008 53 1s28.5 1.33398 37.5 2.00098s14.5 1 16.5 1c11.333 0 17 -6.33301 17 -19c0 -3.33301 -0.166992 -6.16602 -0.5 -8.49902s-0.666016 -4.5 -0.999023 -6.5s-1.16602 -3.66699 -2.49902 -5l-3.5 -3.5c-1 -1 -2.83301 -1.83301 -5.5 -2.5
s-4.83398 -1.33398 -6.50098 -2.00098s-4.5 -1.16699 -8.5 -1.5s-7.33301 -0.666016 -10 -0.999023s-6.83398 -0.666016 -12.501 -0.999023s-10.5 -0.833008 -14.5 -1.5c-10.667 -0.666992 -16 -6.33398 -16 -17.001v-553c0 -16 6 -24.667 18 -26
c6.66699 -0.666992 14 -1.16699 22 -1.5s14.333 -0.5 19 -0.5s9.5 -0.333008 14.5 -1s8.83301 -1.33398 11.5 -2.00098s5.16699 -1.66699 7.5 -3s4 -3.33301 5 -6s1.5 -5.66699 1.5 -9c0 -20 -6.66699 -30 -20 -30c-0.666992 0 -3.33398 0.166992 -8.00098 0.5
s-11.167 0.833008 -19.5 1.5s-17.5 1.33398 -27.5 2.00098s-21.667 1.16699 -35 1.5s-26.666 0.5 -39.999 0.5s-26.666 -0.166992 -39.999 -0.5s-25.166 -0.833008 -35.499 -1.5s-19.5 -1.33398 -27.5 -2.00098s-14.5 -1.16699 -19.5 -1.5s-7.83301 -0.5 -8.5 -0.5
c-10.667 0 -16.667 7.66699 -18 23c-0.666992 2 -1 5.33301 -1 10c0 8 2.83301 13 8.5 15s19.167 3.66699 40.5 5c14.667 0.666992 27 1.33398 37 2.00098c14.667 0.666992 22 10.334 22 29.001v532c0 2 0.166992 4.83301 0.5 8.5s0.5 5.83398 0.5 6.50098
c0 8.66699 -2.66699 14 -8 16s-17.333 3.33301 -36 4c-10 0 -18 0.333008 -24 1c-15.333 1.33301 -23 8.66602 -23 21.999c0 18.667 7.33301 28 22 28z" />
    <glyph glyph-name="Iacute" unicode="&#xcd;" horiz-adv-x="330" 
d="M248 919c11.333 0 21.001 -3.50098 29.001 -10.501s12 -15.833 12 -26.5c0 -2.66699 -0.333008 -5.5 -1 -8.5s-1.33398 -5.5 -2.00098 -7.5s-1.83398 -4.16699 -3.50098 -6.5s-3.16699 -4.16602 -4.5 -5.49902s-3 -2.83301 -5 -4.5s-3.66699 -3 -5 -4
s-3.33301 -2.16699 -6 -3.5s-4.5 -2.33301 -5.5 -3s-2.66699 -1.66699 -5 -3s-3.83301 -2 -4.5 -2c-123.333 -58.667 -187 -88 -191 -88c-5.33301 0 -10.166 1.83301 -14.499 5.5s-6.5 8.5 -6.5 14.5c0 9.33301 6.66699 18.333 20 27l141 102c20.667 16 38 24 52 24z
M53.001 695.999l16.9971 -1.00293c11.333 -0.666992 26.333 -1.5 45 -2.5s37.334 -1.5 56.001 -1.5c19.333 0 37 0.333008 53 1s28.5 1.33398 37.5 2.00098s14.5 1 16.5 1c11.333 0 17 -6.33301 17 -19c0 -3.33301 -0.166992 -6.16602 -0.5 -8.49902
s-0.666016 -4.5 -0.999023 -6.5s-1.16602 -3.66699 -2.49902 -5l-3.5 -3.5c-1 -1 -2.83301 -1.83301 -5.5 -2.5s-4.83398 -1.33398 -6.50098 -2.00098s-4.5 -1.16699 -8.5 -1.5s-7.33301 -0.666016 -10 -0.999023s-6.83398 -0.666016 -12.501 -0.999023
s-10.5 -0.833008 -14.5 -1.5c-10.667 -0.666992 -16 -6.33398 -16 -17.001v-553c0 -16 6 -24.667 18 -26c6.66699 -0.666992 14 -1.16699 22 -1.5s14.333 -0.5 19 -0.5s9.5 -0.333008 14.5 -1s8.83301 -1.33398 11.5 -2.00098s5.16699 -1.66699 7.5 -3s4 -3.33301 5 -6
s1.5 -5.66699 1.5 -9c0 -20 -6.66699 -30 -20 -30c-0.666992 0 -3.33398 0.166992 -8.00098 0.5s-11.167 0.833008 -19.5 1.5s-17.5 1.33398 -27.5 2.00098s-21.667 1.16699 -35 1.5s-26.666 0.5 -39.999 0.5s-26.666 -0.166992 -39.999 -0.5
s-25.166 -0.833008 -35.499 -1.5s-19.5 -1.33398 -27.5 -2.00098s-14.5 -1.16699 -19.5 -1.5s-7.83301 -0.5 -8.5 -0.5c-10.667 0 -16.667 7.66699 -18 23c-0.666992 2 -1 5.33301 -1 10c0 8 2.83301 13 8.5 15s19.167 3.66699 40.5 5
c14.667 0.666992 27 1.33398 37 2.00098c14.667 0.666992 22 10.334 22 29.001v532c0 2 0.166992 4.83301 0.5 8.5s0.5 5.83398 0.5 6.50098c0 8.66699 -2.66699 14 -8 16s-17.333 3.33301 -36 4c-10 0 -18 0.333008 -24 1c-15.333 1.33301 -23 8.66602 -23 21.999
c0 18.667 7.33301 28 22 28z" />
    <glyph glyph-name="Icircumflex" unicode="&#xce;" horiz-adv-x="330" 
d="M55 746c-5.33301 0 -9.33203 1.66504 -11.999 4.99805s-4 6.33301 -4 9c0 4.66699 12.333 22.334 37 53.001l51 63c12 16 25 24 39 24c8.66699 0 17.334 -4.66699 26.001 -14c62.667 -77.333 94.334 -117.333 95.001 -120c0.666992 -1.33301 1 -3 1 -5
c0 -3.33301 -1.33301 -6.66602 -4 -9.99902s-6.66699 -5 -12 -5c-8.66699 0 -17.667 4.66699 -27 14l-17 14.5l-14.5 12l-11.5 9.5l-9.5 8c-2.33301 2 -4.83301 4 -7.5 6s-4.83398 3.5 -6.50098 4.5s-3.33398 1.83301 -5.00098 2.5s-3.33398 1.16699 -5.00098 1.5
s-3.16699 0.5 -4.5 0.5c-9.33301 0 -27.833 -12.167 -55.5 -36.5s-45.5 -36.5 -53.5 -36.5zM53.001 695.998l16.9971 -1.00293c11.333 -0.666992 26.333 -1.5 45 -2.5s37.334 -1.5 56.001 -1.5c19.333 0 37 0.333008 53 1s28.5 1.33398 37.5 2.00098s14.5 1 16.5 1
c11.333 0 17 -6.33301 17 -19c0 -3.33301 -0.166992 -6.16602 -0.5 -8.49902s-0.666016 -4.5 -0.999023 -6.5s-1.16602 -3.66699 -2.49902 -5l-3.5 -3.5c-1 -1 -2.83301 -1.83301 -5.5 -2.5s-4.83398 -1.33398 -6.50098 -2.00098s-4.5 -1.16699 -8.5 -1.5
s-7.33301 -0.666016 -10 -0.999023s-6.83398 -0.666016 -12.501 -0.999023s-10.5 -0.833008 -14.5 -1.5c-10.667 -0.666992 -16 -6.33398 -16 -17.001v-553c0 -16 6 -24.667 18 -26c6.66699 -0.666992 14 -1.16699 22 -1.5s14.333 -0.5 19 -0.5s9.5 -0.333008 14.5 -1
s8.83301 -1.33398 11.5 -2.00098s5.16699 -1.66699 7.5 -3s4 -3.33301 5 -6s1.5 -5.66699 1.5 -9c0 -20 -6.66699 -30 -20 -30c-0.666992 0 -3.33398 0.166992 -8.00098 0.5s-11.167 0.833008 -19.5 1.5s-17.5 1.33398 -27.5 2.00098s-21.667 1.16699 -35 1.5
s-26.666 0.5 -39.999 0.5s-26.666 -0.166992 -39.999 -0.5s-25.166 -0.833008 -35.499 -1.5s-19.5 -1.33398 -27.5 -2.00098s-14.5 -1.16699 -19.5 -1.5s-7.83301 -0.5 -8.5 -0.5c-10.667 0 -16.667 7.66699 -18 23c-0.666992 2 -1 5.33301 -1 10c0 8 2.83301 13 8.5 15
s19.167 3.66699 40.5 5c14.667 0.666992 27 1.33398 37 2.00098c14.667 0.666992 22 10.334 22 29.001v532c0 2 0.166992 4.83301 0.5 8.5s0.5 5.83398 0.5 6.50098c0 8.66699 -2.66699 14 -8 16s-17.333 3.33301 -36 4c-10 0 -18 0.333008 -24 1
c-15.333 1.33301 -23 8.66602 -23 21.999c0 18.667 7.33301 28 22 28z" />
    <glyph glyph-name="Idieresis" unicode="&#xcf;" horiz-adv-x="330" 
d="M184 794c0 13.333 4.83301 24.667 14.5 34s21.167 14 34.5 14c14 0 25.667 -4.5 35 -13.5s14 -20.167 14 -33.5c0 -14 -4.83301 -25.667 -14.5 -35s-21.167 -14 -34.5 -14c-14 0 -25.667 4.5 -35 13.5s-14 20.5 -14 34.5zM45 794.001c0 13.333 4.83301 24.667 14.5 34
s21.167 14 34.5 14c14 0 25.833 -4.5 35.5 -13.5s14.5 -20.167 14.5 -33.5c0 -14 -4.83301 -25.667 -14.5 -35s-21.5 -14 -35.5 -14s-25.667 4.5 -35 13.5s-14 20.5 -14 34.5zM53 696.002l16.9971 -1.00293c11.333 -0.666992 26.333 -1.5 45 -2.5s37.334 -1.5 56.001 -1.5
c19.333 0 37 0.333008 53 1s28.5 1.33398 37.5 2.00098s14.5 1 16.5 1c11.333 0 17 -6.33301 17 -19c0 -3.33301 -0.166992 -6.16602 -0.5 -8.49902s-0.666016 -4.5 -0.999023 -6.5s-1.16602 -3.66699 -2.49902 -5l-3.5 -3.5c-1 -1 -2.83301 -1.83301 -5.5 -2.5
s-4.83398 -1.33398 -6.50098 -2.00098s-4.5 -1.16699 -8.5 -1.5s-7.33301 -0.666016 -10 -0.999023s-6.83398 -0.666016 -12.501 -0.999023s-10.5 -0.833008 -14.5 -1.5c-10.667 -0.666992 -16 -6.33398 -16 -17.001v-553c0 -16 6 -24.667 18 -26
c6.66699 -0.666992 14 -1.16699 22 -1.5s14.333 -0.5 19 -0.5s9.5 -0.333008 14.5 -1s8.83301 -1.33398 11.5 -2.00098s5.16699 -1.66699 7.5 -3s4 -3.33301 5 -6s1.5 -5.66699 1.5 -9c0 -20 -6.66699 -30 -20 -30c-0.666992 0 -3.33398 0.166992 -8.00098 0.5
s-11.167 0.833008 -19.5 1.5s-17.5 1.33398 -27.5 2.00098s-21.667 1.16699 -35 1.5s-26.666 0.5 -39.999 0.5s-26.666 -0.166992 -39.999 -0.5s-25.166 -0.833008 -35.499 -1.5s-19.5 -1.33398 -27.5 -2.00098s-14.5 -1.16699 -19.5 -1.5s-7.83301 -0.5 -8.5 -0.5
c-10.667 0 -16.667 7.66699 -18 23c-0.666992 2 -1 5.33301 -1 10c0 8 2.83301 13 8.5 15s19.167 3.66699 40.5 5c14.667 0.666992 27 1.33398 37 2.00098c14.667 0.666992 22 10.334 22 29.001v532c0 2 0.166992 4.83301 0.5 8.5s0.5 5.83398 0.5 6.50098
c0 8.66699 -2.66699 14 -8 16s-17.333 3.33301 -36 4c-10 0 -18 0.333008 -24 1c-15.333 1.33301 -23 8.66602 -23 21.999c0 18.667 7.33301 28 22 28z" />
    <glyph glyph-name="Ntilde" unicode="&#xd1;" horiz-adv-x="818" 
d="M466 808c14 0 26.667 3.83301 38 11.5s20.5 15.5 27.5 23.5s11.833 12 14.5 12s6.66699 -1.33301 12 -4s8 -5.66699 8 -9c0 -4 -6.66699 -14 -20 -30s-26 -28.333 -38 -37c-18.667 -14.667 -38.334 -22 -59.001 -22c-18 0 -37.667 7.66699 -59 23s-38.333 23 -51 23
c-13.333 0 -25.166 -4.5 -35.499 -13.5s-18.5 -18 -24.5 -27s-9.66699 -13.5 -11 -13.5c-2 0 -4.83301 2 -8.5 6s-5.5 7.33301 -5.5 10c0 2 6 12 18 30s21.333 30.333 28 37c16 16 33.333 24 52 24c15.333 0 34.333 -7.33301 57 -22s41.667 -22 57 -22zM153 555
l0.0078125 3.99121c0 9.33301 -11.333 24.333 -34 45c-26.667 26.667 -57 41.334 -91 44.001c-12.667 0 -19 7.66699 -19 23c0 17.333 7.66699 26 23 26h126c16.667 0 30.334 -6.33301 41.001 -19l160 -186l94 -105c125.333 -136 190.666 -205.667 195.999 -209
c1.33301 -1.33301 2.66602 -2 3.99902 -2c4.66699 0 7 3.33301 7 10c0 8 0.333008 19.5 1 34.5s1.16699 28.667 1.5 41s0.5 23.833 0.5 34.5c0 92 -3.33301 193.667 -10 305c-0.666992 20 -5.33398 32.667 -14.001 38s-26 9.33301 -52 12c-15.333 2 -23 9.33301 -23 22
c0 6 2.33301 11.5 7 16.5s12.334 7.5 23.001 7.5c1.33301 0 6.16602 -0.166992 14.499 -0.5s20 -0.833008 35 -1.5s31.167 -1 48.5 -1s33.166 0.333008 47.499 1s25.666 1.16699 33.999 1.5s13.166 0.5 14.499 0.5c14.667 0 22 -7.66699 22 -23
c0 -5.33301 -0.666992 -9.66602 -2 -12.999s-4 -5.83301 -8 -7.5s-7.16699 -2.66699 -9.5 -3s-6.83301 -0.666016 -13.5 -0.999023s-11.334 -0.5 -14.001 -0.5c-17.333 -1.33301 -29.166 -6.66602 -35.499 -15.999s-9.83301 -27.666 -10.5 -54.999
c-2.66699 -116 -4 -204.667 -4 -266c0 -50.667 0.333008 -97.667 1 -141s1.33398 -77.166 2.00098 -101.499s1 -39.166 1 -44.499c0 -32.667 -7 -49 -21 -49c-8 0 -24.667 14.333 -50 43l-212 242c-150 166.667 -225.667 250 -227 250l-4 -4
c-9.33301 -140 -14 -261.333 -14 -364v-29c0 -27.333 2.66699 -45 8 -53s18.333 -12.667 39 -14c25.333 0 46 -2.33301 62 -7c8.66699 -4 13 -13 13 -27c0 -12.667 -5.66699 -19 -17 -19c-0.666992 0 -3.33398 0.166992 -8.00098 0.5s-10.834 0.833008 -18.501 1.5
s-16.5 1.33398 -26.5 2.00098s-21.333 1.16699 -34 1.5s-25.334 0.5 -38.001 0.5c-20 0 -40 -0.5 -60 -1.5s-36 -1.83301 -48 -2.5l-18 -2c-14 0 -21 6.66699 -21 20c0 14.667 5 23.667 15 27c4 1.33301 13.167 2.5 27.5 3.5s26.666 3.66699 36.999 8s17.833 11.5 22.5 21.5
c2.66699 6.66699 9 102.334 19 287.001z" />
    <glyph glyph-name="Ograve" unicode="&#xd2;" horiz-adv-x="796" 
d="M271 884c0 11.333 3.83301 20.332 11.5 26.999s17.167 10 28.5 10c15.333 0 33.333 -8 54 -24c100.667 -73.333 152.667 -112.333 156 -117c2.66699 -5.33301 4 -9.66602 4 -12.999c0 -6 -2 -10.667 -6 -14s-8.66699 -5 -14 -5h-1c-4.66699 0 -68.334 29.333 -191.001 88
l-5 2l-6 3c-1.33301 0.666992 -3.5 2 -6.5 4s-5.5 3.83301 -7.5 5.5s-4.16699 3.66699 -6.5 6s-4.16602 4.83301 -5.49902 7.5s-2.5 5.66699 -3.5 9s-1.5 7 -1.5 11zM778 344.999c0 -106 -35.832 -194.166 -107.499 -264.499s-158.167 -105.5 -259.5 -105.5
c-50 0 -99 9.66699 -147 29s-90.333 46.666 -127 81.999c-78 75.333 -117.667 167 -119 275c0 103.333 37.167 191.833 111.5 265.5s163.166 110.5 266.499 110.5c108 0 198.667 -38.667 272 -116s110 -169.333 110 -276zM116.001 393
c0 -45.333 6.16992 -89.001 18.5029 -131.001s30.166 -80 53.499 -114s54 -61.333 92 -82s80.333 -31 127 -31c31.333 0 62 5.33301 92 16s58.667 26.834 86 48.501s49.5 52.167 66.5 91.5s25.5 84.666 25.5 135.999c0 54 -9.16699 106.833 -27.5 158.5
s-46.833 94.5 -85.5 128.5c-52 46 -113.333 69 -184 69c-32.667 0 -64.334 -5.83301 -95.001 -17.5s-58.834 -28.667 -84.501 -51s-46.167 -52.666 -61.5 -90.999s-23 -81.833 -23 -130.5z" />
    <glyph glyph-name="Oacute" unicode="&#xd3;" horiz-adv-x="796" 
d="M484 921c11.333 0 21.001 -3.50098 29.001 -10.501s12 -15.833 12 -26.5c0 -2.66699 -0.333008 -5.5 -1 -8.5s-1.33398 -5.5 -2.00098 -7.5s-1.83398 -4.16699 -3.50098 -6.5s-3.16699 -4.16602 -4.5 -5.49902s-3 -2.83301 -5 -4.5s-3.66699 -3 -5 -4
s-3.33301 -2.16699 -6 -3.5s-4.5 -2.33301 -5.5 -3s-2.66699 -1.66699 -5 -3s-3.83301 -2 -4.5 -2c-123.333 -58.667 -187 -88 -191 -88c-5.33301 0 -10.166 1.83301 -14.499 5.5s-6.5 8.5 -6.5 14.5c0 9.33301 6.66699 18.333 20 27l141 102c20.667 16 38 24 52 24z
M778.001 344.999c0 -106 -35.832 -194.166 -107.499 -264.499s-158.167 -105.5 -259.5 -105.5c-50 0 -99 9.66699 -147 29s-90.333 46.666 -127 81.999c-78 75.333 -117.667 167 -119 275c0 103.333 37.167 191.833 111.5 265.5s163.166 110.5 266.499 110.5
c108 0 198.667 -38.667 272 -116s110 -169.333 110 -276zM116.002 393c0 -45.333 6.16992 -89.001 18.5029 -131.001s30.166 -80 53.499 -114s54 -61.333 92 -82s80.333 -31 127 -31c31.333 0 62 5.33301 92 16s58.667 26.834 86 48.501s49.5 52.167 66.5 91.5
s25.5 84.666 25.5 135.999c0 54 -9.16699 106.833 -27.5 158.5s-46.833 94.5 -85.5 128.5c-52 46 -113.333 69 -184 69c-32.667 0 -64.334 -5.83301 -95.001 -17.5s-58.834 -28.667 -84.501 -51s-46.167 -52.666 -61.5 -90.999s-23 -81.833 -23 -130.5z" />
    <glyph glyph-name="Ocircumflex" unicode="&#xd4;" horiz-adv-x="796" 
d="M290 748c-5.33301 0 -9.33203 1.66504 -11.999 4.99805s-4 6.33301 -4 9c0 4.66699 12.333 22.334 37 53.001l51 63c12 16 25 24 39 24c8.66699 0 17.334 -4.66699 26.001 -14c62.667 -77.333 94.334 -117.333 95.001 -120c0.666992 -1.33301 1 -3 1 -5
c0 -3.33301 -1.33301 -6.66602 -4 -9.99902s-6.66699 -5 -12 -5c-8.66699 0 -17.667 4.66699 -27 14l-17 14.5l-14.5 12l-11.5 9.5l-9.5 8c-2.33301 2 -4.83301 4 -7.5 6s-4.83398 3.5 -6.50098 4.5s-3.33398 1.83301 -5.00098 2.5s-3.33398 1.16699 -5.00098 1.5
s-3.16699 0.5 -4.5 0.5c-9.33301 0 -27.833 -12.167 -55.5 -36.5s-45.5 -36.5 -53.5 -36.5zM778.001 344.998c0 -106 -35.832 -194.166 -107.499 -264.499s-158.167 -105.5 -259.5 -105.5c-50 0 -99 9.66699 -147 29s-90.333 46.666 -127 81.999
c-78 75.333 -117.667 167 -119 275c0 103.333 37.167 191.833 111.5 265.5s163.166 110.5 266.499 110.5c108 0 198.667 -38.667 272 -116s110 -169.333 110 -276zM116.002 392.999c0 -45.333 6.16992 -89.001 18.5029 -131.001s30.166 -80 53.499 -114s54 -61.333 92 -82
s80.333 -31 127 -31c31.333 0 62 5.33301 92 16s58.667 26.834 86 48.501s49.5 52.167 66.5 91.5s25.5 84.666 25.5 135.999c0 54 -9.16699 106.833 -27.5 158.5s-46.833 94.5 -85.5 128.5c-52 46 -113.333 69 -184 69c-32.667 0 -64.334 -5.83301 -95.001 -17.5
s-58.834 -28.667 -84.501 -51s-46.167 -52.666 -61.5 -90.999s-23 -81.833 -23 -130.5z" />
    <glyph glyph-name="Otilde" unicode="&#xd5;" horiz-adv-x="796" 
d="M454 820c14 0 26.667 3.83301 38 11.5s20.5 15.5 27.5 23.5s11.833 12 14.5 12s6.66699 -1.33301 12 -4s8 -5.66699 8 -9c0 -4 -6.66699 -14 -20 -30s-26 -28.333 -38 -37c-18.667 -14.667 -38.334 -22 -59.001 -22c-18 0 -37.667 7.66699 -59 23s-38.333 23 -51 23
c-13.333 0 -25.166 -4.5 -35.499 -13.5s-18.5 -18 -24.5 -27s-9.66699 -13.5 -11 -13.5c-2 0 -4.83301 2 -8.5 6s-5.5 7.33301 -5.5 10c0 2 6 12 18 30s21.333 30.333 28 37c16 16 33.333 24 52 24c15.333 0 34.333 -7.33301 57 -22s41.667 -22 57 -22zM778 345
c0 -106 -35.832 -194.166 -107.499 -264.499s-158.167 -105.5 -259.5 -105.5c-50 0 -99 9.66699 -147 29s-90.333 46.666 -127 81.999c-78 75.333 -117.667 167 -119 275c0 103.333 37.167 191.833 111.5 265.5s163.166 110.5 266.499 110.5c108 0 198.667 -38.667 272 -116
s110 -169.333 110 -276zM116.001 393.001c0 -45.333 6.16992 -89.001 18.5029 -131.001s30.166 -80 53.499 -114s54 -61.333 92 -82s80.333 -31 127 -31c31.333 0 62 5.33301 92 16s58.667 26.834 86 48.501s49.5 52.167 66.5 91.5s25.5 84.666 25.5 135.999
c0 54 -9.16699 106.833 -27.5 158.5s-46.833 94.5 -85.5 128.5c-52 46 -113.333 69 -184 69c-32.667 0 -64.334 -5.83301 -95.001 -17.5s-58.834 -28.667 -84.501 -51s-46.167 -52.666 -61.5 -90.999s-23 -81.833 -23 -130.5z" />
    <glyph glyph-name="Odieresis" unicode="&#xd6;" horiz-adv-x="796" 
d="M419 806c0 13.333 4.83301 24.667 14.5 34s21.167 14 34.5 14c14 0 25.667 -4.5 35 -13.5s14 -20.167 14 -33.5c0 -14 -4.83301 -25.667 -14.5 -35s-21.167 -14 -34.5 -14c-14 0 -25.667 4.5 -35 13.5s-14 20.5 -14 34.5zM280 806.001c0 13.333 4.83301 24.667 14.5 34
s21.167 14 34.5 14c14 0 25.833 -4.5 35.5 -13.5s14.5 -20.167 14.5 -33.5c0 -14 -4.83301 -25.667 -14.5 -35s-21.5 -14 -35.5 -14s-25.667 4.5 -35 13.5s-14 20.5 -14 34.5zM778 345.002c0 -106 -35.832 -194.166 -107.499 -264.499s-158.167 -105.5 -259.5 -105.5
c-50 0 -99 9.66699 -147 29s-90.333 46.666 -127 81.999c-78 75.333 -117.667 167 -119 275c0 103.333 37.167 191.833 111.5 265.5s163.166 110.5 266.499 110.5c108 0 198.667 -38.667 272 -116s110 -169.333 110 -276zM116.001 393.003
c0 -45.333 6.16992 -89.001 18.5029 -131.001s30.166 -80 53.499 -114s54 -61.333 92 -82s80.333 -31 127 -31c31.333 0 62 5.33301 92 16s58.667 26.834 86 48.501s49.5 52.167 66.5 91.5s25.5 84.666 25.5 135.999c0 54 -9.16699 106.833 -27.5 158.5
s-46.833 94.5 -85.5 128.5c-52 46 -113.333 69 -184 69c-32.667 0 -64.334 -5.83301 -95.001 -17.5s-58.834 -28.667 -84.501 -51s-46.167 -52.666 -61.5 -90.999s-23 -81.833 -23 -130.5z" />
    <glyph glyph-name="multiply" unicode="&#xd7;" horiz-adv-x="565" 
d="M55 71c0 4.66699 3.33203 10.333 9.99902 17l178 177l-121 121c-32 31.333 -51.333 50.666 -58 57.999s-10 13 -10 17c0 4.66699 4.16699 11.334 12.5 20.001s15.833 13 22.5 13h1c6 0 39.667 -31.333 101 -94l93 -93l138 139c24.667 24.667 39.334 39.167 44.001 43.5
s8.66699 6.5 12 6.5h1c4.66699 0 11.334 -4.33301 20.001 -13s13 -16 13 -22v-1c0 -4.66699 -4.83301 -12.167 -14.5 -22.5s-42.834 -43.833 -99.501 -100.5l-72 -72c119.333 -119.333 180 -180.333 182 -183c3.33301 -4 5 -7.66699 5 -11
c0 -5.33301 -4.16699 -12.333 -12.5 -21s-15.5 -13 -21.5 -13c-5.33301 0 -11 3 -17 9l-178 178c-118.667 -118.667 -180.334 -179.667 -185.001 -183c-3.33301 -2.66699 -6.66602 -4 -9.99902 -4c-5.33301 0 -12.333 4.16699 -21 12.5s-13 15.5 -13 21.5z" />
    <glyph glyph-name="Oslash" unicode="&#xd8;" horiz-adv-x="796" 
d="M778 345c0 -106 -35.832 -194.167 -107.499 -264.5s-158.167 -105.5 -259.5 -105.5c-62.667 0 -122 14.333 -178 43l-27 -50c-2.66699 -4 -4.33398 -6.66699 -5.00098 -8c-4.66699 -3.33301 -11.334 -5 -20.001 -5c-23.333 0 -35 4.33301 -35 13v1l41 76
c-52 36 -93 82 -123 138s-45.333 115.333 -46 178c0 103.333 37.167 191.833 111.5 265.5s163.166 110.5 266.499 110.5c52.667 0 103.667 -10.333 153 -31c18.667 34 29.334 52.333 32.001 55c2.66699 1.33301 7.33398 2 14.001 2c24.667 0 37 -5.66699 37 -17
c0 -2 -11.667 -24 -35 -66c56 -35.333 100.167 -83 132.5 -143s48.5 -124 48.5 -192zM116.001 393c0 -52 8.50293 -103.501 25.5029 -154.501s43.833 -94.167 80.5 -129.5l295 539c-42.667 23.333 -88.334 35 -137.001 35c-32.667 0 -64.334 -5.83301 -95.001 -17.5
s-58.834 -28.667 -84.501 -51s-46.167 -52.666 -61.5 -90.999s-23 -81.833 -23 -130.5zM407.004 34.999c31.333 0 62 5.33398 92 16.001s58.667 26.834 86 48.501s49.5 52.167 66.5 91.5s25.5 84.666 25.5 135.999c0 55.333 -9.33301 108.666 -28 159.999
s-47.667 94.333 -87 129l-298 -541c43.333 -26.667 91 -40 143 -40z" />
    <glyph glyph-name="Ugrave" unicode="&#xd9;" horiz-adv-x="774" 
d="M261 883c0 11.333 3.83301 20.332 11.5 26.999s17.167 10 28.5 10c15.333 0 33.333 -8 54 -24c100.667 -73.333 152.667 -112.333 156 -117c2.66699 -5.33301 4 -9.66602 4 -12.999c0 -6 -2 -10.667 -6 -14s-8.66699 -5 -14 -5h-1c-4.66699 0 -68.334 29.333 -191.001 88
l-5 2l-6 3c-1.33301 0.666992 -3.5 2 -6.5 4s-5.5 3.83301 -7.5 5.5s-4.16699 3.66699 -6.5 6s-4.16602 4.83301 -5.49902 7.5s-2.5 5.66699 -3.5 9s-1.5 7 -1.5 11zM760 678.999c0 -9.33301 -3.66992 -15.501 -11.0029 -18.501s-15.166 -4.5 -23.499 -4.5
s-16.166 -5.5 -23.499 -16.5s-11 -28.833 -11 -53.5c0 -1.33301 -0.166992 -3.33301 -0.5 -6s-0.5 -4.33398 -0.5 -5.00098v-232c0 -5.33301 0.166992 -13.333 0.5 -24s0.5 -18.667 0.5 -24v-33c0 -22 -0.833008 -41.5 -2.5 -58.5s-5.33398 -36.5 -11.001 -58.5
s-15 -42.333 -28 -61s-29.5 -35 -49.5 -49c-47.333 -33.333 -111.666 -50 -192.999 -50c-46 0 -87.5 5 -124.5 15s-65.667 21.5 -86 34.5s-38.166 28.667 -53.499 47s-25.5 33 -30.5 44s-9.16699 22.5 -12.5 34.5c-8.66699 31.333 -13 75 -13 131
c0 8.66699 0.166992 21.667 0.5 39s0.5 30.333 0.5 39v258c0 4 -0.166992 7.5 -0.5 10.5s-1.5 5.33301 -3.5 7s-3.33301 3.16699 -4 4.5s-3 2.33301 -7 3s-6.5 1.16699 -7.5 1.5s-4.33301 0.833008 -10 1.5s-9.16699 1 -10.5 1c-18.667 2.66699 -28 11 -28 25
c0 16.667 7 25 21 25c2 0 7.33301 -0.333008 16 -1s20.834 -1.33398 36.501 -2.00098s32.5 -1 50.5 -1h6c19.333 0 37.333 0.333008 54 1s29.667 1.33398 39 2.00098s15 1 17 1c12.667 0 19 -9 19 -27c0 -5.33301 -0.666992 -9.66602 -2 -12.999
s-4.16602 -5.66602 -8.49902 -6.99902s-8.33301 -2.33301 -12 -3s-9.83398 -1.33398 -18.501 -2.00098s-16 -1.33398 -22 -2.00098c-22 -2.66699 -33 -14.667 -33 -36v-320c0 -45.333 4 -83.666 12 -114.999s25 -58.666 51 -81.999c40.667 -37.333 102 -56 184 -56
c95.333 0 157.666 31 186.999 93c13.333 28 20 66 20 114v14c0 7.33301 -0.166992 18 -0.5 32s-0.5 24.667 -0.5 32v278c0 12 -1 21.5 -3 28.5s-7.16699 12.167 -15.5 15.5s-14.5 5.33301 -18.5 6s-14.667 2 -32 4c-14.667 1.33301 -22 9 -22 23c0 15.333 6.33301 23 19 23
c1.33301 0 6 -0.333008 14 -1s18.667 -1.33398 32 -2.00098s28 -1 44 -1s30.667 0.333008 44 1s24 1.33398 32 2.00098s12.667 1 14 1c12.667 0 19 -9 19 -27z" />
    <glyph glyph-name="Uacute" unicode="&#xda;" horiz-adv-x="774" 
d="M536 919c11.333 0 21.001 -3.50098 29.001 -10.501s12 -15.833 12 -26.5c0 -2.66699 -0.333008 -5.5 -1 -8.5s-1.33398 -5.5 -2.00098 -7.5s-1.83398 -4.16699 -3.50098 -6.5s-3.16699 -4.16602 -4.5 -5.49902s-3 -2.83301 -5 -4.5s-3.66699 -3 -5 -4
s-3.33301 -2.16699 -6 -3.5s-4.5 -2.33301 -5.5 -3s-2.66699 -1.66699 -5 -3s-3.83301 -2 -4.5 -2c-123.333 -58.667 -187 -88 -191 -88c-5.33301 0 -10.166 1.83301 -14.499 5.5s-6.5 8.5 -6.5 14.5c0 9.33301 6.66699 18.333 20 27l141 102c20.667 16 38 24 52 24z
M760.001 678.999c0 -9.33301 -3.66992 -15.501 -11.0029 -18.501s-15.166 -4.5 -23.499 -4.5s-16.166 -5.5 -23.499 -16.5s-11 -28.833 -11 -53.5c0 -1.33301 -0.166992 -3.33301 -0.5 -6s-0.5 -4.33398 -0.5 -5.00098v-232c0 -5.33301 0.166992 -13.333 0.5 -24
s0.5 -18.667 0.5 -24v-33c0 -22 -0.833008 -41.5 -2.5 -58.5s-5.33398 -36.5 -11.001 -58.5s-15 -42.333 -28 -61s-29.5 -35 -49.5 -49c-47.333 -33.333 -111.666 -50 -192.999 -50c-46 0 -87.5 5 -124.5 15s-65.667 21.5 -86 34.5s-38.166 28.667 -53.499 47
s-25.5 33 -30.5 44s-9.16699 22.5 -12.5 34.5c-8.66699 31.333 -13 75 -13 131c0 8.66699 0.166992 21.667 0.5 39s0.5 30.333 0.5 39v258c0 4 -0.166992 7.5 -0.5 10.5s-1.5 5.33301 -3.5 7s-3.33301 3.16699 -4 4.5s-3 2.33301 -7 3s-6.5 1.16699 -7.5 1.5
s-4.33301 0.833008 -10 1.5s-9.16699 1 -10.5 1c-18.667 2.66699 -28 11 -28 25c0 16.667 7 25 21 25c2 0 7.33301 -0.333008 16 -1s20.834 -1.33398 36.501 -2.00098s32.5 -1 50.5 -1h6c19.333 0 37.333 0.333008 54 1s29.667 1.33398 39 2.00098s15 1 17 1
c12.667 0 19 -9 19 -27c0 -5.33301 -0.666992 -9.66602 -2 -12.999s-4.16602 -5.66602 -8.49902 -6.99902s-8.33301 -2.33301 -12 -3s-9.83398 -1.33398 -18.501 -2.00098s-16 -1.33398 -22 -2.00098c-22 -2.66699 -33 -14.667 -33 -36v-320
c0 -45.333 4 -83.666 12 -114.999s25 -58.666 51 -81.999c40.667 -37.333 102 -56 184 -56c95.333 0 157.666 31 186.999 93c13.333 28 20 66 20 114v14c0 7.33301 -0.166992 18 -0.5 32s-0.5 24.667 -0.5 32v278c0 12 -1 21.5 -3 28.5s-7.16699 12.167 -15.5 15.5
s-14.5 5.33301 -18.5 6s-14.667 2 -32 4c-14.667 1.33301 -22 9 -22 23c0 15.333 6.33301 23 19 23c1.33301 0 6 -0.333008 14 -1s18.667 -1.33398 32 -2.00098s28 -1 44 -1s30.667 0.333008 44 1s24 1.33398 32 2.00098s12.667 1 14 1c12.667 0 19 -9 19 -27z" />
    <glyph glyph-name="Ucircumflex" unicode="&#xdb;" horiz-adv-x="774" 
d="M280 746c-5.33301 0 -9.33203 1.66504 -11.999 4.99805s-4 6.33301 -4 9c0 4.66699 12.333 22.334 37 53.001l51 63c12 16 25 24 39 24c8.66699 0 17.334 -4.66699 26.001 -14c62.667 -77.333 94.334 -117.333 95.001 -120c0.666992 -1.33301 1 -3 1 -5
c0 -3.33301 -1.33301 -6.66602 -4 -9.99902s-6.66699 -5 -12 -5c-8.66699 0 -17.667 4.66699 -27 14l-17 14.5l-14.5 12l-11.5 9.5l-9.5 8c-2.33301 2 -4.83301 4 -7.5 6s-4.83398 3.5 -6.50098 4.5s-3.33398 1.83301 -5.00098 2.5s-3.33398 1.16699 -5.00098 1.5
s-3.16699 0.5 -4.5 0.5c-9.33301 0 -27.833 -12.167 -55.5 -36.5s-45.5 -36.5 -53.5 -36.5zM760.001 678.998c0 -9.33301 -3.66992 -15.501 -11.0029 -18.501s-15.166 -4.5 -23.499 -4.5s-16.166 -5.5 -23.499 -16.5s-11 -28.833 -11 -53.5
c0 -1.33301 -0.166992 -3.33301 -0.5 -6s-0.5 -4.33398 -0.5 -5.00098v-232c0 -5.33301 0.166992 -13.333 0.5 -24s0.5 -18.667 0.5 -24v-33c0 -22 -0.833008 -41.5 -2.5 -58.5s-5.33398 -36.5 -11.001 -58.5s-15 -42.333 -28 -61s-29.5 -35 -49.5 -49
c-47.333 -33.333 -111.666 -50 -192.999 -50c-46 0 -87.5 5 -124.5 15s-65.667 21.5 -86 34.5s-38.166 28.667 -53.499 47s-25.5 33 -30.5 44s-9.16699 22.5 -12.5 34.5c-8.66699 31.333 -13 75 -13 131c0 8.66699 0.166992 21.667 0.5 39s0.5 30.333 0.5 39v258
c0 4 -0.166992 7.5 -0.5 10.5s-1.5 5.33301 -3.5 7s-3.33301 3.16699 -4 4.5s-3 2.33301 -7 3s-6.5 1.16699 -7.5 1.5s-4.33301 0.833008 -10 1.5s-9.16699 1 -10.5 1c-18.667 2.66699 -28 11 -28 25c0 16.667 7 25 21 25c2 0 7.33301 -0.333008 16 -1
s20.834 -1.33398 36.501 -2.00098s32.5 -1 50.5 -1h6c19.333 0 37.333 0.333008 54 1s29.667 1.33398 39 2.00098s15 1 17 1c12.667 0 19 -9 19 -27c0 -5.33301 -0.666992 -9.66602 -2 -12.999s-4.16602 -5.66602 -8.49902 -6.99902s-8.33301 -2.33301 -12 -3
s-9.83398 -1.33398 -18.501 -2.00098s-16 -1.33398 -22 -2.00098c-22 -2.66699 -33 -14.667 -33 -36v-320c0 -45.333 4 -83.666 12 -114.999s25 -58.666 51 -81.999c40.667 -37.333 102 -56 184 -56c95.333 0 157.666 31 186.999 93c13.333 28 20 66 20 114v14
c0 7.33301 -0.166992 18 -0.5 32s-0.5 24.667 -0.5 32v278c0 12 -1 21.5 -3 28.5s-7.16699 12.167 -15.5 15.5s-14.5 5.33301 -18.5 6s-14.667 2 -32 4c-14.667 1.33301 -22 9 -22 23c0 15.333 6.33301 23 19 23c1.33301 0 6 -0.333008 14 -1s18.667 -1.33398 32 -2.00098
s28 -1 44 -1s30.667 0.333008 44 1s24 1.33398 32 2.00098s12.667 1 14 1c12.667 0 19 -9 19 -27z" />
    <glyph glyph-name="Udieresis" unicode="&#xdc;" horiz-adv-x="774" 
d="M434 794c0 13.333 4.83301 24.667 14.5 34s21.167 14 34.5 14c14 0 25.667 -4.5 35 -13.5s14 -20.167 14 -33.5c0 -14 -4.83301 -25.667 -14.5 -35s-21.167 -14 -34.5 -14c-14 0 -25.667 4.5 -35 13.5s-14 20.5 -14 34.5zM295 794.001c0 13.333 4.83301 24.667 14.5 34
s21.167 14 34.5 14c14 0 25.833 -4.5 35.5 -13.5s14.5 -20.167 14.5 -33.5c0 -14 -4.83301 -25.667 -14.5 -35s-21.5 -14 -35.5 -14s-25.667 4.5 -35 13.5s-14 20.5 -14 34.5zM760 679.002c0 -9.33301 -3.66992 -15.501 -11.0029 -18.501s-15.166 -4.5 -23.499 -4.5
s-16.166 -5.5 -23.499 -16.5s-11 -28.833 -11 -53.5c0 -1.33301 -0.166992 -3.33301 -0.5 -6s-0.5 -4.33398 -0.5 -5.00098v-232c0 -5.33301 0.166992 -13.333 0.5 -24s0.5 -18.667 0.5 -24v-33c0 -22 -0.833008 -41.5 -2.5 -58.5s-5.33398 -36.5 -11.001 -58.5
s-15 -42.333 -28 -61s-29.5 -35 -49.5 -49c-47.333 -33.333 -111.666 -50 -192.999 -50c-46 0 -87.5 5 -124.5 15s-65.667 21.5 -86 34.5s-38.166 28.667 -53.499 47s-25.5 33 -30.5 44s-9.16699 22.5 -12.5 34.5c-8.66699 31.333 -13 75 -13 131
c0 8.66699 0.166992 21.667 0.5 39s0.5 30.333 0.5 39v258c0 4 -0.166992 7.5 -0.5 10.5s-1.5 5.33301 -3.5 7s-3.33301 3.16699 -4 4.5s-3 2.33301 -7 3s-6.5 1.16699 -7.5 1.5s-4.33301 0.833008 -10 1.5s-9.16699 1 -10.5 1c-18.667 2.66699 -28 11 -28 25
c0 16.667 7 25 21 25c2 0 7.33301 -0.333008 16 -1s20.834 -1.33398 36.501 -2.00098s32.5 -1 50.5 -1h6c19.333 0 37.333 0.333008 54 1s29.667 1.33398 39 2.00098s15 1 17 1c12.667 0 19 -9 19 -27c0 -5.33301 -0.666992 -9.66602 -2 -12.999
s-4.16602 -5.66602 -8.49902 -6.99902s-8.33301 -2.33301 -12 -3s-9.83398 -1.33398 -18.501 -2.00098s-16 -1.33398 -22 -2.00098c-22 -2.66699 -33 -14.667 -33 -36v-320c0 -45.333 4 -83.666 12 -114.999s25 -58.666 51 -81.999c40.667 -37.333 102 -56 184 -56
c95.333 0 157.666 31 186.999 93c13.333 28 20 66 20 114v14c0 7.33301 -0.166992 18 -0.5 32s-0.5 24.667 -0.5 32v278c0 12 -1 21.5 -3 28.5s-7.16699 12.167 -15.5 15.5s-14.5 5.33301 -18.5 6s-14.667 2 -32 4c-14.667 1.33301 -22 9 -22 23c0 15.333 6.33301 23 19 23
c1.33301 0 6 -0.333008 14 -1s18.667 -1.33398 32 -2.00098s28 -1 44 -1s30.667 0.333008 44 1s24 1.33398 32 2.00098s12.667 1 14 1c12.667 0 19 -9 19 -27z" />
    <glyph glyph-name="Yacute" unicode="&#xdd;" horiz-adv-x="683" 
d="M485 657c-10.667 0.666992 -18.6641 1.33398 -23.9971 2.00098s-10.333 3.16699 -15 7.5s-7 10.5 -7 18.5c0 4.66699 1.83301 9.33398 5.5 14.001s9.16699 7 16.5 7c1.33301 0 6 -0.333008 14 -1s18.833 -1.33398 32.5 -2.00098s28.5 -1 44.5 -1h3c16 0 31 0.333008 45 1
s24.667 1.33398 32 2.00098s12 1 14 1c10 0 17.333 -2.16699 22 -6.5s7 -9.16602 7 -14.499c0 -6.66699 -2.5 -12.167 -7.5 -16.5s-12.167 -9.83301 -21.5 -16.5s-17.333 -14.334 -24 -23.001l-149 -192l-34.5 -46.5l-26.5 -36l-18.5 -24.5
c-6.33301 -8 -10.666 -14 -12.999 -18s-4.83301 -7.83301 -7.5 -11.5s-4.16699 -7.16699 -4.5 -10.5s-0.666016 -6.16602 -0.999023 -8.49902s-0.5 -5.83301 -0.5 -10.5v-199c0 -10 3.66699 -16.167 11 -18.5s27.666 -4.16602 60.999 -5.49902
c16.667 -0.666992 30 -1.33398 40 -2.00098c15.333 -0.666992 23 -8.66699 23 -24v-9c0 -12.667 -5.66699 -19 -17 -19l-21 2c-13.333 0.666992 -31.5 1.5 -54.5 2.5s-45.833 1.5 -68.5 1.5c-14.667 0 -29.5 -0.166992 -44.5 -0.5s-28.167 -0.833008 -39.5 -1.5
s-21.5 -1.33398 -30.5 -2.00098s-16.167 -1.16699 -21.5 -1.5s-8.33301 -0.5 -9 -0.5c-17.333 0 -26 9.66699 -26 29c0 2.66699 0.166992 5.16699 0.5 7.5s0.666016 4.33301 0.999023 6s1.33301 3 3 4s3 1.83301 4 2.5s3 1.33398 6 2.00098s5.66699 1.16699 8 1.5
s5.66602 0.5 9.99902 0.5s8.66602 0.166992 12.999 0.5s9.66602 0.5 15.999 0.5s12.5 0.333008 18.5 1l4 1h5.5c0.333008 0 1.66602 0.166992 3.99902 0.5s3.83301 0.666016 4.5 0.999023s2 0.833008 4 1.5s3.16699 1.66699 3.5 3s1 2.66602 2 3.99902s1.66699 3 2 5
s0.5 4.33301 0.5 7v212c0 6 -0.666992 11.5 -2 16.5s-2.33301 8.5 -3 10.5s-3.16699 6.66699 -7.5 14s-7.5 12.333 -9.5 15l-163 262c-15.333 24 -23.666 37.333 -24.999 40c-6.66699 8.66699 -16.667 13.5 -30 14.5s-21.666 5.16699 -24.999 12.5
c-2.66699 4 -4 8.66699 -4 14c0 6 2.16699 11.333 6.5 16s10.833 7 19.5 7c2 0 7.83301 -0.333008 17.5 -1s23 -1.33398 40 -2.00098s35.5 -1 55.5 -1s38.333 0.333008 55 1s29.667 1.33398 39 2.00098s15 1 17 1c12.667 0 19 -7 19 -21
c0 -3.33301 -0.166992 -6.33301 -0.5 -9s-1 -5 -2 -7s-2 -3.66699 -3 -5s-2.83301 -2.5 -5.5 -3.5s-4.83398 -1.66699 -6.50098 -2s-4.66699 -0.833008 -9 -1.5s-8 -1 -11 -1s-7.5 -0.166992 -13.5 -0.5s-11.333 -0.833008 -16 -1.5c-18 -2 -27 -9.66699 -27 -23v-2
c0 -4.66699 16.333 -35 49 -91l97 -168c6 -10 10.667 -15 14 -15c1.33301 0 4 2 8 6c98.667 136 152.667 211.667 162 227c12 21.333 18 35.666 18 42.999c0 10.667 -3 17.5 -9 20.5s-17 4.83301 -33 5.5h-7zM478.003 919c11.333 0 21.001 -3.50098 29.001 -10.501
s12 -15.833 12 -26.5c0 -2.66699 -0.333008 -5.5 -1 -8.5s-1.33398 -5.5 -2.00098 -7.5s-1.83398 -4.16699 -3.50098 -6.5s-3.16699 -4.16602 -4.5 -5.49902s-3 -2.83301 -5 -4.5s-3.66699 -3 -5 -4s-3.33301 -2.16699 -6 -3.5s-4.5 -2.33301 -5.5 -3
s-2.66699 -1.66699 -5 -3s-3.83301 -2 -4.5 -2c-123.333 -58.667 -187 -88 -191 -88c-5.33301 0 -10.166 1.83301 -14.499 5.5s-6.5 8.5 -6.5 14.5c0 9.33301 6.66699 18.333 20 27l141 102c20.667 16 38 24 52 24z" />
    <glyph glyph-name="germandbls" unicode="&#xdf;" horiz-adv-x="541" 
d="M31 -6c-8.66699 0 -13.0049 6.33496 -13.0049 19.002c0 2.66699 0.166992 5 0.5 7s0.833008 3.83301 1.5 5.5s1.33398 3 2.00098 4s2 2 4 3s3.5 1.66699 4.5 2s3.16699 0.833008 6.5 1.5s6 1.16699 8 1.5s5.33301 0.666016 10 0.999023s8.66699 0.833008 12 1.5
c2.66699 0 5 0.5 7 1.5s3.5 2.5 4.5 4.5s1.83301 4.16699 2.5 6.5s1.16699 5.5 1.5 9.5s0.5 7.66699 0.5 11s0.166992 8 0.5 14s0.5 11.333 0.5 16c1.33301 34.667 2 120 2 256c0 4.66699 -2 7.5 -6 8.5s-13.333 1.5 -28 1.5h-20h-1c-14.667 0 -22 6.33301 -22 19
c0 16 5 25.667 15 29c3.33301 1.33301 13.333 2 30 2s25.667 0.333008 27 1c2 0.666992 3 3 3 7v2c1.33301 121.333 31.333 207 90 257c40 33.333 85.667 50 137 50c35.333 0 64.166 -10.333 86.499 -31s33.5 -48.334 33.5 -83.001c0 -24 -6 -46.667 -18 -68
s-25.167 -38.166 -39.5 -50.499s-27.5 -27 -39.5 -44s-18 -33.833 -18 -50.5c0 -18.667 5.83301 -35.334 17.5 -50.001s32.334 -34.5 62.001 -59.5s54.5 -48.167 74.5 -69.5c42.667 -46 64 -89.667 64 -131c0 -34.667 -12.167 -63 -36.5 -85s-54.5 -33 -90.5 -33
c-34 0 -63.333 6.33301 -88 19s-41 25.667 -49 39c-4 7.33301 -6 16.666 -6 27.999v67c0 10.667 0.666992 17 2 19c4.66699 4.66699 10 7 16 7s10 -2 12 -6s2.83301 -8.66699 2.5 -14s0.166992 -12.666 1.5 -21.999s4 -17.666 8 -24.999
c6.66699 -10.667 18.834 -22.5 36.501 -35.5s36.5 -19.5 56.5 -19.5s37 6 51 18s21 27.333 21 46c0 18 -6 34.5 -18 49.5s-34.833 36.667 -68.5 65s-62.167 54.5 -85.5 78.5c-27.333 27.333 -41 54.666 -41 81.999c0 20.667 7.5 42.667 22.5 66l45 72
c15 24.667 22.5 49.334 22.5 74.001c0 24 -7.16699 44.333 -21.5 61s-32.833 25 -55.5 25c-8 0 -16.167 -1.5 -24.5 -4.5s-18.666 -9.16699 -30.999 -18.5s-23.333 -25.333 -33 -48s-16.5 -50.667 -20.5 -84c-3.33301 -26.667 -5 -67 -5 -121v-10
c0 -74.667 -0.166992 -136 -0.5 -184s-0.5 -81.333 -0.5 -100v-35c0 -6.66699 0.333008 -11.834 1 -15.501s3.5 -7.5 8.5 -11.5s12.5 -6.33301 22.5 -7c11.333 -0.666992 18.833 -1.33398 22.5 -2.00098s6.66699 -2.16699 9 -4.5s3.5 -6.5 3.5 -12.5
c0 -15.333 -3.66699 -23 -11 -23h-5c-3.33301 0.666992 -7.83301 1.33398 -13.5 2.00098s-12.167 1.33398 -19.5 2.00098s-15.666 1.16699 -24.999 1.5s-18.333 0.5 -27 0.5c-9.33301 0 -18.666 -0.166992 -27.999 -0.5s-17.5 -0.833008 -24.5 -1.5
s-13.333 -1.33398 -19 -2.00098s-10.167 -1.16699 -13.5 -1.5s-5.33301 -0.5 -6 -0.5z" />
    <glyph glyph-name="agrave" unicode="&#xe0;" horiz-adv-x="433" 
d="M30 353c0 20 16.165 40.1689 48.498 60.502s68.5 30.5 108.5 30.5c12.667 0 25.667 -1.33301 39 -4s28.5 -7.33398 45.5 -14.001s31.333 -18.167 43 -34.5s18.834 -36.166 21.501 -59.499c1.33301 -16 2 -28.333 2 -37v-202c0 -12 2.33301 -21.667 7 -29
s9.33398 -11.833 14.001 -13.5s9.33398 -2.5 14.001 -2.5c9.33301 0 16.666 2.83301 21.999 8.5s9.5 11.334 12.5 17.001s6.5 8.5 10.5 8.5c6 0 9 -4.33301 9 -13c0 -16 -7.33301 -33.5 -22 -52.5s-33.667 -28.5 -57 -28.5c-8.66699 0 -17 1.33301 -25 4
s-14.667 6.16699 -20 10.5s-10.166 8.5 -14.499 12.5s-7.83301 7.66699 -10.5 11l-3 4c-0.666992 0 -1 0.166992 -1 0.5s-0.333008 0.5 -1 0.5c-1.33301 0 -2.33301 -0.666992 -3 -2s-3 -4 -7 -8s-9.66699 -8.33301 -17 -13c-30 -18.667 -61.667 -28 -95 -28
c-34.667 0 -62.834 11 -84.501 33s-32.5 49 -32.5 81v1c0 38.667 14.333 69 43 91c10 8 23 15.167 39 21.5s31.833 11.166 47.5 14.499s30.5 6.16602 44.5 8.49902s25.667 3.83301 35 4.5l14 1c5.33301 1.33301 8 6 8 14v37c0 35.333 -8 62.666 -24 81.999
c-16.667 18 -36.667 27 -60 27c-36 0 -65.333 -22.667 -88 -68c-6 -8 -13.333 -12 -22 -12c-10.667 0 -20.167 3.33301 -28.5 10s-12.5 15.667 -12.5 27zM174.998 36.002c15.333 0 29.834 3.33203 43.501 9.99902s23.167 12.667 28.5 18s9.66602 10 12.999 14
c4 5.33301 6 13 6 23v25v42c0 12.667 -0.5 20.834 -1.5 24.501s-3.83301 5.5 -8.5 5.5c-16.667 0 -37.5 -2.66699 -62.5 -8s-44.833 -15 -59.5 -29c-16 -13.333 -24 -32 -24 -56c0 -25.333 7 -44 21 -56c9.33301 -8.66699 24 -13 44 -13zM45.999 680.001
c0 11.333 3.83203 20.501 11.499 27.501s16.5 10.5 26.5 10.5h1c18.667 0 37.334 -14.333 56.001 -43l70 -104c25.333 -37.333 38 -59 38 -65c0 -5.33301 -2 -10.166 -6 -14.499s-8.66699 -6.5 -14 -6.5h-2c-4.66699 0 -9.5 2.16699 -14.5 6.5s-24.5 24.166 -58.5 59.499
l-82 83c-17.333 17.333 -26 32.666 -26 45.999z" />
    <glyph glyph-name="aacute" unicode="&#xe1;" horiz-adv-x="433" 
d="M292 718c10.667 0 19.666 -3.5 26.999 -10.5s11 -16.167 11 -27.5c0 -13.333 -8 -28.666 -24 -45.999c-89.333 -91.333 -137 -139.333 -143 -144c-4.66699 -3.33301 -9.66699 -5 -15 -5c-6 0 -10.833 2.16699 -14.5 6.5s-5.5 9.16602 -5.5 14.499
c0 6.66699 15.333 32.667 46 78l62 91c18.667 28.667 37.334 43 56.001 43zM29.999 353c0 20 16.165 40.1689 48.498 60.502s68.5 30.5 108.5 30.5c12.667 0 25.667 -1.33301 39 -4s28.5 -7.33398 45.5 -14.001s31.333 -18.167 43 -34.5s18.834 -36.166 21.501 -59.499
c1.33301 -16 2 -28.333 2 -37v-202c0 -12 2.33301 -21.667 7 -29s9.33398 -11.833 14.001 -13.5s9.33398 -2.5 14.001 -2.5c9.33301 0 16.666 2.83301 21.999 8.5s9.5 11.334 12.5 17.001s6.5 8.5 10.5 8.5c6 0 9 -4.33301 9 -13c0 -16 -7.33301 -33.5 -22 -52.5
s-33.667 -28.5 -57 -28.5c-8.66699 0 -17 1.33301 -25 4s-14.667 6.16699 -20 10.5s-10.166 8.5 -14.499 12.5s-7.83301 7.66699 -10.5 11l-3 4c-0.666992 0 -1 0.166992 -1 0.5s-0.333008 0.5 -1 0.5c-1.33301 0 -2.33301 -0.666992 -3 -2s-3 -4 -7 -8
s-9.66699 -8.33301 -17 -13c-30 -18.667 -61.667 -28 -95 -28c-34.667 0 -62.834 11 -84.501 33s-32.5 49 -32.5 81v1c0 38.667 14.333 69 43 91c10 8 23 15.167 39 21.5s31.833 11.166 47.5 14.499s30.5 6.16602 44.5 8.49902s25.667 3.83301 35 4.5l14 1
c5.33301 1.33301 8 6 8 14v37c0 35.333 -8 62.666 -24 81.999c-16.667 18 -36.667 27 -60 27c-36 0 -65.333 -22.667 -88 -68c-6 -8 -13.333 -12 -22 -12c-10.667 0 -20.167 3.33301 -28.5 10s-12.5 15.667 -12.5 27zM174.997 36.002
c15.333 0 29.834 3.33203 43.501 9.99902s23.167 12.667 28.5 18s9.66602 10 12.999 14c4 5.33301 6 13 6 23v25v42c0 12.667 -0.5 20.834 -1.5 24.501s-3.83301 5.5 -8.5 5.5c-16.667 0 -37.5 -2.66699 -62.5 -8s-44.833 -15 -59.5 -29c-16 -13.333 -24 -32 -24 -56
c0 -25.333 7 -44 21 -56c9.33301 -8.66699 24 -13 44 -13z" />
    <glyph glyph-name="acircumflex" unicode="&#xe2;" horiz-adv-x="433" 
d="M110 485c-3.33301 0 -6.83398 1.33398 -10.501 4.00098s-5.5 6.66699 -5.5 12c0 4 8.5 30.333 25.5 79s29.833 82.667 38.5 102c8.66699 20 18.667 30 30 30c10.667 0 20.5 -9.66699 29.5 -29s22.833 -56.333 41.5 -111c8.66699 -24.667 15.334 -44.334 20.001 -59.001
c2 -6 3 -9.66699 3 -11c0 -6 -1.83301 -10.333 -5.5 -13s-7.16699 -4 -10.5 -4c-8 0 -16.667 8 -26 24c-27.333 48.667 -42.666 74 -45.999 76c-1.33301 0.666992 -3 1 -5 1c-4.66699 0 -8.83398 -2.66699 -12.501 -8s-13.167 -21 -28.5 -47l-14 -24
c-9.33301 -14.667 -17.333 -22 -24 -22zM29.999 353.001c0 20 16.165 40.1689 48.498 60.502s68.5 30.5 108.5 30.5c12.667 0 25.667 -1.33301 39 -4s28.5 -7.33398 45.5 -14.001s31.333 -18.167 43 -34.5s18.834 -36.166 21.501 -59.499c1.33301 -16 2 -28.333 2 -37v-202
c0 -12 2.33301 -21.667 7 -29s9.33398 -11.833 14.001 -13.5s9.33398 -2.5 14.001 -2.5c9.33301 0 16.666 2.83301 21.999 8.5s9.5 11.334 12.5 17.001s6.5 8.5 10.5 8.5c6 0 9 -4.33301 9 -13c0 -16 -7.33301 -33.5 -22 -52.5s-33.667 -28.5 -57 -28.5
c-8.66699 0 -17 1.33301 -25 4s-14.667 6.16699 -20 10.5s-10.166 8.5 -14.499 12.5s-7.83301 7.66699 -10.5 11l-3 4c-0.666992 0 -1 0.166992 -1 0.5s-0.333008 0.5 -1 0.5c-1.33301 0 -2.33301 -0.666992 -3 -2s-3 -4 -7 -8s-9.66699 -8.33301 -17 -13
c-30 -18.667 -61.667 -28 -95 -28c-34.667 0 -62.834 11 -84.501 33s-32.5 49 -32.5 81v1c0 38.667 14.333 69 43 91c10 8 23 15.167 39 21.5s31.833 11.166 47.5 14.499s30.5 6.16602 44.5 8.49902s25.667 3.83301 35 4.5l14 1c5.33301 1.33301 8 6 8 14v37
c0 35.333 -8 62.666 -24 81.999c-16.667 18 -36.667 27 -60 27c-36 0 -65.333 -22.667 -88 -68c-6 -8 -13.333 -12 -22 -12c-10.667 0 -20.167 3.33301 -28.5 10s-12.5 15.667 -12.5 27zM174.997 36.0029c15.333 0 29.834 3.33203 43.501 9.99902s23.167 12.667 28.5 18
s9.66602 10 12.999 14c4 5.33301 6 13 6 23v25v42c0 12.667 -0.5 20.834 -1.5 24.501s-3.83301 5.5 -8.5 5.5c-16.667 0 -37.5 -2.66699 -62.5 -8s-44.833 -15 -59.5 -29c-16 -13.333 -24 -32 -24 -56c0 -25.333 7 -44 21 -56c9.33301 -8.66699 24 -13 44 -13z" />
    </font>
</defs>
</svg>
